G04 #@! TF.FileFunction,Copper,L1,Top,Signal*
%FSLAX46Y46*%
G04 Gerber Fmt 4.6, Leading zero omitted, Abs format (unit mm)*
G04 Created by KiCad (PCBNEW 4.0.7) date Sunday, September 09, 2018 'PMt' 03:54:26 PM*
%MOMM*%
%LPD*%
G01*
G04 APERTURE LIST*
%ADD10C,0.100000*%
%ADD11R,3.500000X1.000000*%
%ADD12R,3.400000X1.500000*%
%ADD13R,1.250000X1.000000*%
%ADD14R,1.200000X1.200000*%
%ADD15R,2.500000X2.300000*%
%ADD16R,0.900000X1.700000*%
%ADD17R,1.550000X0.600000*%
%ADD18R,1.750000X0.450000*%
%ADD19R,1.500000X0.600000*%
%ADD20C,1.520000*%
%ADD21C,2.700000*%
%ADD22R,1.700000X1.700000*%
%ADD23O,1.700000X1.700000*%
%ADD24R,0.900000X2.500000*%
%ADD25O,3.010000X1.510000*%
%ADD26R,0.700000X1.300000*%
%ADD27C,2.000000*%
%ADD28R,2.000000X4.500000*%
%ADD29R,2.600000X1.600000*%
%ADD30C,0.600000*%
%ADD31C,0.250000*%
%ADD32C,0.254000*%
G04 APERTURE END LIST*
D10*
G36*
X168394555Y-72113666D02*
X168783464Y-71724757D01*
X169914835Y-72856128D01*
X169525926Y-73245037D01*
X168394555Y-72113666D01*
X168394555Y-72113666D01*
G37*
G36*
X167828870Y-72679352D02*
X168217779Y-72290443D01*
X169349150Y-73421814D01*
X168960241Y-73810723D01*
X167828870Y-72679352D01*
X167828870Y-72679352D01*
G37*
G36*
X167263184Y-73245037D02*
X167652093Y-72856128D01*
X168783464Y-73987499D01*
X168394555Y-74376408D01*
X167263184Y-73245037D01*
X167263184Y-73245037D01*
G37*
G36*
X166697499Y-73810722D02*
X167086408Y-73421813D01*
X168217779Y-74553184D01*
X167828870Y-74942093D01*
X166697499Y-73810722D01*
X166697499Y-73810722D01*
G37*
G36*
X166131813Y-74376408D02*
X166520722Y-73987499D01*
X167652093Y-75118870D01*
X167263184Y-75507779D01*
X166131813Y-74376408D01*
X166131813Y-74376408D01*
G37*
G36*
X165566128Y-74942093D02*
X165955037Y-74553184D01*
X167086408Y-75684555D01*
X166697499Y-76073464D01*
X165566128Y-74942093D01*
X165566128Y-74942093D01*
G37*
G36*
X165000443Y-75507779D02*
X165389352Y-75118870D01*
X166520723Y-76250241D01*
X166131814Y-76639150D01*
X165000443Y-75507779D01*
X165000443Y-75507779D01*
G37*
G36*
X164434757Y-76073464D02*
X164823666Y-75684555D01*
X165955037Y-76815926D01*
X165566128Y-77204835D01*
X164434757Y-76073464D01*
X164434757Y-76073464D01*
G37*
G36*
X164823666Y-79255445D02*
X164434757Y-78866536D01*
X165566128Y-77735165D01*
X165955037Y-78124074D01*
X164823666Y-79255445D01*
X164823666Y-79255445D01*
G37*
G36*
X165389352Y-79821130D02*
X165000443Y-79432221D01*
X166131814Y-78300850D01*
X166520723Y-78689759D01*
X165389352Y-79821130D01*
X165389352Y-79821130D01*
G37*
G36*
X165955037Y-80386816D02*
X165566128Y-79997907D01*
X166697499Y-78866536D01*
X167086408Y-79255445D01*
X165955037Y-80386816D01*
X165955037Y-80386816D01*
G37*
G36*
X166520722Y-80952501D02*
X166131813Y-80563592D01*
X167263184Y-79432221D01*
X167652093Y-79821130D01*
X166520722Y-80952501D01*
X166520722Y-80952501D01*
G37*
G36*
X167086408Y-81518187D02*
X166697499Y-81129278D01*
X167828870Y-79997907D01*
X168217779Y-80386816D01*
X167086408Y-81518187D01*
X167086408Y-81518187D01*
G37*
G36*
X167652093Y-82083872D02*
X167263184Y-81694963D01*
X168394555Y-80563592D01*
X168783464Y-80952501D01*
X167652093Y-82083872D01*
X167652093Y-82083872D01*
G37*
G36*
X168217779Y-82649557D02*
X167828870Y-82260648D01*
X168960241Y-81129277D01*
X169349150Y-81518186D01*
X168217779Y-82649557D01*
X168217779Y-82649557D01*
G37*
G36*
X168783464Y-83215243D02*
X168394555Y-82826334D01*
X169525926Y-81694963D01*
X169914835Y-82083872D01*
X168783464Y-83215243D01*
X168783464Y-83215243D01*
G37*
G36*
X170445165Y-82083872D02*
X170834074Y-81694963D01*
X171965445Y-82826334D01*
X171576536Y-83215243D01*
X170445165Y-82083872D01*
X170445165Y-82083872D01*
G37*
G36*
X171010850Y-81518186D02*
X171399759Y-81129277D01*
X172531130Y-82260648D01*
X172142221Y-82649557D01*
X171010850Y-81518186D01*
X171010850Y-81518186D01*
G37*
G36*
X171576536Y-80952501D02*
X171965445Y-80563592D01*
X173096816Y-81694963D01*
X172707907Y-82083872D01*
X171576536Y-80952501D01*
X171576536Y-80952501D01*
G37*
G36*
X172142221Y-80386816D02*
X172531130Y-79997907D01*
X173662501Y-81129278D01*
X173273592Y-81518187D01*
X172142221Y-80386816D01*
X172142221Y-80386816D01*
G37*
G36*
X172707907Y-79821130D02*
X173096816Y-79432221D01*
X174228187Y-80563592D01*
X173839278Y-80952501D01*
X172707907Y-79821130D01*
X172707907Y-79821130D01*
G37*
G36*
X173273592Y-79255445D02*
X173662501Y-78866536D01*
X174793872Y-79997907D01*
X174404963Y-80386816D01*
X173273592Y-79255445D01*
X173273592Y-79255445D01*
G37*
G36*
X173839277Y-78689759D02*
X174228186Y-78300850D01*
X175359557Y-79432221D01*
X174970648Y-79821130D01*
X173839277Y-78689759D01*
X173839277Y-78689759D01*
G37*
G36*
X174404963Y-78124074D02*
X174793872Y-77735165D01*
X175925243Y-78866536D01*
X175536334Y-79255445D01*
X174404963Y-78124074D01*
X174404963Y-78124074D01*
G37*
G36*
X174793872Y-77204835D02*
X174404963Y-76815926D01*
X175536334Y-75684555D01*
X175925243Y-76073464D01*
X174793872Y-77204835D01*
X174793872Y-77204835D01*
G37*
G36*
X174228186Y-76639150D02*
X173839277Y-76250241D01*
X174970648Y-75118870D01*
X175359557Y-75507779D01*
X174228186Y-76639150D01*
X174228186Y-76639150D01*
G37*
G36*
X173662501Y-76073464D02*
X173273592Y-75684555D01*
X174404963Y-74553184D01*
X174793872Y-74942093D01*
X173662501Y-76073464D01*
X173662501Y-76073464D01*
G37*
G36*
X173096816Y-75507779D02*
X172707907Y-75118870D01*
X173839278Y-73987499D01*
X174228187Y-74376408D01*
X173096816Y-75507779D01*
X173096816Y-75507779D01*
G37*
G36*
X172531130Y-74942093D02*
X172142221Y-74553184D01*
X173273592Y-73421813D01*
X173662501Y-73810722D01*
X172531130Y-74942093D01*
X172531130Y-74942093D01*
G37*
G36*
X171965445Y-74376408D02*
X171576536Y-73987499D01*
X172707907Y-72856128D01*
X173096816Y-73245037D01*
X171965445Y-74376408D01*
X171965445Y-74376408D01*
G37*
G36*
X171399759Y-73810723D02*
X171010850Y-73421814D01*
X172142221Y-72290443D01*
X172531130Y-72679352D01*
X171399759Y-73810723D01*
X171399759Y-73810723D01*
G37*
G36*
X170834074Y-73245037D02*
X170445165Y-72856128D01*
X171576536Y-71724757D01*
X171965445Y-72113666D01*
X170834074Y-73245037D01*
X170834074Y-73245037D01*
G37*
D11*
X123525000Y-108220000D03*
X123525000Y-110220000D03*
D12*
X117775000Y-105870000D03*
X117775000Y-112570000D03*
D13*
X118110000Y-88630000D03*
X118110000Y-86630000D03*
X130810000Y-88630000D03*
X130810000Y-86630000D03*
X166878000Y-87138000D03*
X166878000Y-89138000D03*
X123190000Y-62500000D03*
X123190000Y-64500000D03*
X118110000Y-62500000D03*
X118110000Y-64500000D03*
X143510000Y-97520000D03*
X143510000Y-95520000D03*
X135890000Y-84820000D03*
X135890000Y-82820000D03*
D14*
X122090000Y-101600000D03*
X124290000Y-101600000D03*
D15*
X133740000Y-106680000D03*
X138040000Y-106680000D03*
X122310000Y-87630000D03*
X126610000Y-87630000D03*
D14*
X130640000Y-69850000D03*
X128440000Y-69850000D03*
X130640000Y-73660000D03*
X128440000Y-73660000D03*
D16*
X123010000Y-82550000D03*
X125910000Y-82550000D03*
D17*
X126840000Y-97155000D03*
X126840000Y-98425000D03*
X126840000Y-99695000D03*
X126840000Y-100965000D03*
X132240000Y-100965000D03*
X132240000Y-99695000D03*
X132240000Y-98425000D03*
X132240000Y-97155000D03*
D18*
X142030000Y-77885000D03*
X142030000Y-77235000D03*
X142030000Y-76585000D03*
X142030000Y-75935000D03*
X142030000Y-75285000D03*
X142030000Y-74635000D03*
X142030000Y-73985000D03*
X142030000Y-73335000D03*
X142030000Y-72685000D03*
X142030000Y-72035000D03*
X142030000Y-71385000D03*
X142030000Y-70735000D03*
X142030000Y-70085000D03*
X142030000Y-69435000D03*
X134830000Y-69435000D03*
X134830000Y-70085000D03*
X134830000Y-70735000D03*
X134830000Y-71385000D03*
X134830000Y-72035000D03*
X134830000Y-72685000D03*
X134830000Y-73335000D03*
X134830000Y-73985000D03*
X134830000Y-74635000D03*
X134830000Y-75285000D03*
X134830000Y-75935000D03*
X134830000Y-76585000D03*
X134830000Y-77235000D03*
X134830000Y-77885000D03*
D19*
X156540000Y-102235000D03*
X156540000Y-100965000D03*
X156540000Y-99695000D03*
X156540000Y-98425000D03*
X156540000Y-97155000D03*
X156540000Y-95885000D03*
X156540000Y-103505000D03*
X156540000Y-104775000D03*
X156540000Y-106045000D03*
X156540000Y-107315000D03*
X166040000Y-107315000D03*
X166040000Y-106045000D03*
X166040000Y-104775000D03*
X166040000Y-103505000D03*
X166040000Y-102235000D03*
X166040000Y-100965000D03*
X166040000Y-99695000D03*
X166040000Y-98425000D03*
X166040000Y-97155000D03*
X166040000Y-95885000D03*
D20*
X124460000Y-72390000D03*
X124460000Y-74930000D03*
X122460000Y-74930000D03*
X122460000Y-72390000D03*
D21*
X119760000Y-67660000D03*
X119760000Y-79660000D03*
D22*
X157099000Y-63119000D03*
D23*
X154559000Y-63119000D03*
X152019000Y-63119000D03*
X149479000Y-63119000D03*
X146939000Y-63119000D03*
X144399000Y-63119000D03*
X141859000Y-63119000D03*
X139319000Y-63119000D03*
X136779000Y-63119000D03*
X134239000Y-63119000D03*
D22*
X166243000Y-111379000D03*
D23*
X168783000Y-111379000D03*
X171323000Y-111379000D03*
X173863000Y-111379000D03*
X176403000Y-111379000D03*
X178943000Y-111379000D03*
D22*
X161163000Y-111379000D03*
D23*
X158623000Y-111379000D03*
X156083000Y-111379000D03*
X153543000Y-111379000D03*
X151003000Y-111379000D03*
X148463000Y-111379000D03*
X145923000Y-111379000D03*
X143383000Y-111379000D03*
D22*
X178943000Y-63119000D03*
D23*
X176403000Y-63119000D03*
X173863000Y-63119000D03*
X171323000Y-63119000D03*
X168783000Y-63119000D03*
X166243000Y-63119000D03*
X163703000Y-63119000D03*
X161163000Y-63119000D03*
D24*
X142060000Y-106680000D03*
X144960000Y-106680000D03*
D25*
X179070000Y-93980000D03*
X179070000Y-91440000D03*
X179070000Y-100330000D03*
X179070000Y-97790000D03*
D26*
X138110000Y-96520000D03*
X136210000Y-96520000D03*
X138110000Y-100330000D03*
X136210000Y-100330000D03*
X117160000Y-101600000D03*
X119060000Y-101600000D03*
X136210000Y-92710000D03*
X138110000Y-92710000D03*
X130490000Y-92710000D03*
X128590000Y-92710000D03*
X138110000Y-88900000D03*
X136210000Y-88900000D03*
X145100000Y-77470000D03*
X147000000Y-77470000D03*
X145100000Y-81280000D03*
X147000000Y-81280000D03*
X130490000Y-81280000D03*
X128590000Y-81280000D03*
X130490000Y-77470000D03*
X128590000Y-77470000D03*
D25*
X119380000Y-97790000D03*
X119380000Y-95250000D03*
X119380000Y-92710000D03*
D27*
X163830000Y-86940000D03*
X163830000Y-91440000D03*
X157330000Y-86940000D03*
X157330000Y-91440000D03*
D28*
X152400000Y-75760000D03*
X152400000Y-84260000D03*
D29*
X149330000Y-106680000D03*
X152930000Y-106680000D03*
X149330000Y-101600000D03*
X152930000Y-101600000D03*
X149330000Y-96520000D03*
X152930000Y-96520000D03*
X141710000Y-91440000D03*
X145310000Y-91440000D03*
D30*
X120650000Y-106426000D03*
X128524000Y-98806000D03*
X128524000Y-100584000D03*
X137160000Y-71628000D03*
X140462000Y-73914000D03*
X136398000Y-73406000D03*
X159766000Y-68580000D03*
X163576000Y-71374000D03*
X139446000Y-97282000D03*
X147574000Y-104902000D03*
X133096000Y-86360000D03*
X135128000Y-94488000D03*
X140716000Y-94488000D03*
X146304000Y-95250000D03*
X127254000Y-83820000D03*
X147066000Y-97536000D03*
X129540000Y-90170000D03*
X141478000Y-96520000D03*
X132334000Y-72898000D03*
X132080000Y-68834000D03*
X130556000Y-67310000D03*
X123444000Y-89662000D03*
X131572000Y-90932000D03*
X134112000Y-91694000D03*
X134366000Y-103886000D03*
X147066000Y-89916000D03*
X155194000Y-93980000D03*
X138684000Y-74676000D03*
X140462000Y-75946000D03*
X164338000Y-107442000D03*
X158496000Y-107442000D03*
X170688000Y-80772000D03*
X167640000Y-94234000D03*
X173990000Y-81788000D03*
X168402000Y-86868000D03*
X148336000Y-99314000D03*
X148590000Y-90678000D03*
X163830000Y-83312000D03*
X171704000Y-75438000D03*
X146304000Y-94234000D03*
X144018000Y-77978000D03*
X151892000Y-109728000D03*
X151892000Y-91694000D03*
X153162000Y-90424000D03*
X145034000Y-84836000D03*
X141986000Y-78994000D03*
X136906000Y-81280000D03*
X140208000Y-72136000D03*
X124968000Y-98298000D03*
X135636000Y-109220000D03*
X141224000Y-109474000D03*
X138176000Y-109220000D03*
X127000000Y-70866000D03*
X127000000Y-79756000D03*
X131572000Y-93980000D03*
X130556000Y-100584000D03*
X134874000Y-98298000D03*
X139192000Y-99060000D03*
X140208000Y-100330000D03*
X145034000Y-103886000D03*
X134874000Y-96520000D03*
X135636000Y-97790000D03*
X135382000Y-99314000D03*
X136144000Y-101600000D03*
X173228000Y-78486000D03*
X168910000Y-84836000D03*
X169672000Y-87122000D03*
X167640000Y-106172000D03*
X162306000Y-72390000D03*
X154178000Y-72136000D03*
X164084000Y-77470000D03*
X154686000Y-84328000D03*
X168656000Y-79502000D03*
X158750000Y-96012000D03*
X169672000Y-79756000D03*
X158496000Y-106172000D03*
X167640000Y-95250000D03*
X166370000Y-84074000D03*
X149098000Y-67310000D03*
X170434000Y-84328000D03*
X172974000Y-84074000D03*
X146050000Y-66548000D03*
X178816000Y-87630000D03*
X174244000Y-92202000D03*
X176530000Y-74930000D03*
X176022000Y-73152000D03*
X178816000Y-70358000D03*
X138176000Y-64770000D03*
X177546000Y-75184000D03*
X177546000Y-70358000D03*
X136906000Y-65532000D03*
X170942000Y-74930000D03*
X148590000Y-80010000D03*
X148336000Y-76454000D03*
X170434000Y-74168000D03*
X159512000Y-98552000D03*
X164846000Y-93218000D03*
X171958000Y-85598000D03*
X171958000Y-96266000D03*
X172212000Y-106172000D03*
X168148000Y-109982000D03*
X167894000Y-108204000D03*
X167894000Y-109220000D03*
D31*
X123525000Y-108220000D02*
X122444000Y-108220000D01*
X122444000Y-108220000D02*
X120650000Y-106426000D01*
X126840000Y-100965000D02*
X128143000Y-100965000D01*
X128143000Y-98425000D02*
X126840000Y-98425000D01*
X128524000Y-98806000D02*
X128143000Y-98425000D01*
X128143000Y-100965000D02*
X128524000Y-100584000D01*
X134830000Y-71385000D02*
X136917000Y-71385000D01*
X136917000Y-71385000D02*
X137160000Y-71628000D01*
X134830000Y-75935000D02*
X135901000Y-75935000D01*
X136398000Y-75438000D02*
X136398000Y-73406000D01*
X135901000Y-75935000D02*
X136398000Y-75438000D01*
X134830000Y-73335000D02*
X136327000Y-73335000D01*
X140533000Y-73985000D02*
X142030000Y-73985000D01*
X140462000Y-73914000D02*
X140533000Y-73985000D01*
X136327000Y-73335000D02*
X136398000Y-73406000D01*
X141859000Y-63119000D02*
X141859000Y-65405000D01*
X143693000Y-73985000D02*
X142030000Y-73985000D01*
X146050000Y-71628000D02*
X143693000Y-73985000D01*
X146050000Y-69596000D02*
X146050000Y-71628000D01*
X141859000Y-65405000D02*
X146050000Y-69596000D01*
X168023324Y-73616268D02*
X165781056Y-71374000D01*
X165781056Y-71374000D02*
X163576000Y-71374000D01*
X166891953Y-74747639D02*
X163576000Y-71431686D01*
X163576000Y-71431686D02*
X163576000Y-71374000D01*
X117160000Y-101600000D02*
X117160000Y-100010000D01*
X117160000Y-100010000D02*
X119380000Y-97790000D01*
X138110000Y-96520000D02*
X138110000Y-95692000D01*
X129540000Y-95250000D02*
X128397000Y-96393000D01*
X137668000Y-95250000D02*
X129540000Y-95250000D01*
X138110000Y-95692000D02*
X137668000Y-95250000D01*
X132240000Y-99695000D02*
X131699000Y-99695000D01*
X131699000Y-99695000D02*
X128397000Y-96393000D01*
X128397000Y-96393000D02*
X128270000Y-96266000D01*
X120904000Y-96266000D02*
X119380000Y-97790000D01*
X128270000Y-96266000D02*
X120904000Y-96266000D01*
X149330000Y-106680000D02*
X147574000Y-104924000D01*
X138684000Y-96520000D02*
X138110000Y-96520000D01*
X139446000Y-97282000D02*
X138684000Y-96520000D01*
X147574000Y-104924000D02*
X147574000Y-104902000D01*
X149330000Y-101600000D02*
X148568000Y-102362000D01*
X148568000Y-102362000D02*
X131318000Y-102362000D01*
X131318000Y-102362000D02*
X128778000Y-99822000D01*
X128778000Y-99822000D02*
X126967000Y-99822000D01*
X126967000Y-99822000D02*
X126840000Y-99695000D01*
X149330000Y-96520000D02*
X148060000Y-95250000D01*
X133096000Y-86360000D02*
X131080000Y-86360000D01*
X140716000Y-94488000D02*
X135128000Y-94488000D01*
X148060000Y-95250000D02*
X146304000Y-95250000D01*
X131080000Y-86360000D02*
X130810000Y-86630000D01*
X125984000Y-82550000D02*
X125910000Y-82550000D01*
X127254000Y-83820000D02*
X125984000Y-82550000D01*
X148082000Y-96520000D02*
X147066000Y-97536000D01*
X149330000Y-96520000D02*
X148082000Y-96520000D01*
X149330000Y-96520000D02*
X141478000Y-96520000D01*
X129540000Y-90170000D02*
X127000000Y-87630000D01*
X127000000Y-87630000D02*
X126610000Y-87630000D01*
X132334000Y-72898000D02*
X132547000Y-72685000D01*
X132547000Y-72685000D02*
X134830000Y-72685000D01*
X131572000Y-73660000D02*
X130640000Y-73660000D01*
X132334000Y-72898000D02*
X131572000Y-73660000D01*
X123190000Y-62500000D02*
X125746000Y-62500000D01*
X131826000Y-69850000D02*
X130640000Y-69850000D01*
X132080000Y-69596000D02*
X131826000Y-69850000D01*
X132080000Y-68834000D02*
X132080000Y-69596000D01*
X125746000Y-62500000D02*
X130556000Y-67310000D01*
X118110000Y-62500000D02*
X123190000Y-62500000D01*
X136210000Y-88900000D02*
X133604000Y-88900000D01*
X123444000Y-89662000D02*
X122310000Y-88528000D01*
X133604000Y-88900000D02*
X131572000Y-90932000D01*
X122310000Y-88528000D02*
X122310000Y-87630000D01*
X118110000Y-88630000D02*
X121310000Y-88630000D01*
X121310000Y-88630000D02*
X122310000Y-87630000D01*
X138110000Y-92710000D02*
X138110000Y-91882000D01*
X136210000Y-89982000D02*
X136210000Y-88900000D01*
X138110000Y-91882000D02*
X136210000Y-89982000D01*
X133740000Y-106680000D02*
X133740000Y-104512000D01*
X134112000Y-90932000D02*
X135890000Y-89154000D01*
X134112000Y-91694000D02*
X134112000Y-90932000D01*
X133740000Y-104512000D02*
X134366000Y-103886000D01*
X135890000Y-89154000D02*
X136210000Y-88900000D01*
X138110000Y-92710000D02*
X138684000Y-92710000D01*
X139954000Y-91440000D02*
X138684000Y-92710000D01*
X139954000Y-91440000D02*
X141710000Y-91440000D01*
X156540000Y-95885000D02*
X156540000Y-95326000D01*
X142494000Y-89916000D02*
X141710000Y-90700000D01*
X147066000Y-89916000D02*
X142494000Y-89916000D01*
X156540000Y-95326000D02*
X155194000Y-93980000D01*
X141710000Y-90700000D02*
X141710000Y-91440000D01*
X140462000Y-75946000D02*
X140462000Y-86614000D01*
X140462000Y-86614000D02*
X140208000Y-86868000D01*
X140208000Y-86868000D02*
X136652000Y-86868000D01*
X136652000Y-86868000D02*
X136210000Y-87310000D01*
X136210000Y-87310000D02*
X136210000Y-88900000D01*
X134830000Y-72685000D02*
X136693000Y-72685000D01*
X136693000Y-72685000D02*
X138684000Y-74676000D01*
X140473000Y-75935000D02*
X142030000Y-75935000D01*
X140462000Y-75946000D02*
X140473000Y-75935000D01*
X156540000Y-95885000D02*
X157937000Y-94488000D01*
X164643000Y-94488000D02*
X166040000Y-95885000D01*
X157937000Y-94488000D02*
X164643000Y-94488000D01*
X166040000Y-107315000D02*
X167767000Y-107315000D01*
X168332998Y-94926998D02*
X167640000Y-94234000D01*
X168332998Y-106749002D02*
X168332998Y-94926998D01*
X167767000Y-107315000D02*
X168332998Y-106749002D01*
X156540000Y-107315000D02*
X158369000Y-107315000D01*
X164465000Y-107315000D02*
X166040000Y-107315000D01*
X164338000Y-107442000D02*
X164465000Y-107315000D01*
X158369000Y-107315000D02*
X158496000Y-107442000D01*
X170688000Y-79756000D02*
X170688000Y-77412314D01*
X170688000Y-77412314D02*
X167457639Y-74181953D01*
X170688000Y-80772000D02*
X170688000Y-79756000D01*
X170688000Y-79756000D02*
X170688000Y-79675056D01*
X170688000Y-79675056D02*
X166326268Y-75313324D01*
X171770990Y-81889417D02*
X171770990Y-81854990D01*
X171770990Y-81854990D02*
X170688000Y-80772000D01*
X167640000Y-94234000D02*
X166040000Y-95834000D01*
X166040000Y-95834000D02*
X166040000Y-95885000D01*
X172902361Y-80758047D02*
X172960047Y-80758047D01*
X172960047Y-80758047D02*
X173990000Y-81788000D01*
X168402000Y-86868000D02*
X168132000Y-87138000D01*
X168132000Y-87138000D02*
X166878000Y-87138000D01*
X143510000Y-97520000D02*
X145304000Y-99314000D01*
X145304000Y-99314000D02*
X148336000Y-99314000D01*
X139954000Y-88900000D02*
X138110000Y-88900000D01*
X141986000Y-86868000D02*
X139954000Y-88900000D01*
X147320000Y-86868000D02*
X141986000Y-86868000D01*
X148590000Y-88138000D02*
X147320000Y-86868000D01*
X148590000Y-90678000D02*
X148590000Y-88138000D01*
X138110000Y-88900000D02*
X155370000Y-88900000D01*
X155370000Y-88900000D02*
X157330000Y-86940000D01*
X157330000Y-86940000D02*
X163830000Y-86940000D01*
X172902361Y-74181953D02*
X171704000Y-75380314D01*
X163830000Y-83312000D02*
X163830000Y-86940000D01*
X171704000Y-75380314D02*
X171704000Y-75438000D01*
X142030000Y-77235000D02*
X143275000Y-77235000D01*
X145018000Y-95520000D02*
X143510000Y-95520000D01*
X146304000Y-94234000D02*
X145018000Y-95520000D01*
X143275000Y-77235000D02*
X144018000Y-77978000D01*
X151003000Y-111379000D02*
X151003000Y-110617000D01*
X151003000Y-110617000D02*
X151892000Y-109728000D01*
X151892000Y-91694000D02*
X153162000Y-90424000D01*
X145034000Y-84836000D02*
X141986000Y-81788000D01*
X141986000Y-81788000D02*
X141986000Y-78994000D01*
X134830000Y-70735000D02*
X138807000Y-70735000D01*
X135890000Y-82296000D02*
X135890000Y-82820000D01*
X136906000Y-81280000D02*
X135890000Y-82296000D01*
X138807000Y-70735000D02*
X140208000Y-72136000D01*
X119060000Y-101600000D02*
X122090000Y-101600000D01*
X138040000Y-106680000D02*
X135636000Y-109084000D01*
X125349000Y-97155000D02*
X126840000Y-97155000D01*
X124968000Y-97536000D02*
X125349000Y-97155000D01*
X124968000Y-98298000D02*
X124968000Y-97536000D01*
X135636000Y-109084000D02*
X135636000Y-109220000D01*
X138040000Y-106680000D02*
X138040000Y-109084000D01*
X142060000Y-108638000D02*
X142060000Y-106680000D01*
X141224000Y-109474000D02*
X142060000Y-108638000D01*
X138040000Y-109084000D02*
X138176000Y-109220000D01*
X128440000Y-69850000D02*
X128016000Y-69850000D01*
X128016000Y-69850000D02*
X127000000Y-70866000D01*
X127000000Y-79756000D02*
X128524000Y-81280000D01*
X128524000Y-81280000D02*
X128590000Y-81280000D01*
X128440000Y-73660000D02*
X128440000Y-77320000D01*
X128440000Y-77320000D02*
X128590000Y-77470000D01*
X123010000Y-82550000D02*
X124460000Y-81100000D01*
X124460000Y-81100000D02*
X124460000Y-74930000D01*
X130490000Y-92710000D02*
X136210000Y-92710000D01*
X132240000Y-100965000D02*
X130937000Y-100965000D01*
X131572000Y-93792000D02*
X130490000Y-92710000D01*
X131572000Y-93980000D02*
X131572000Y-93792000D01*
X130937000Y-100965000D02*
X130556000Y-100584000D01*
X135890000Y-96520000D02*
X136210000Y-96520000D01*
X133985000Y-98425000D02*
X135890000Y-96520000D01*
X132240000Y-98425000D02*
X133985000Y-98425000D01*
X138110000Y-100330000D02*
X138110000Y-100142000D01*
X138110000Y-100142000D02*
X139192000Y-99060000D01*
X134747000Y-98425000D02*
X132240000Y-98425000D01*
X134874000Y-98298000D02*
X134747000Y-98425000D01*
X144960000Y-106680000D02*
X144960000Y-103960000D01*
X140208000Y-100330000D02*
X138110000Y-100330000D01*
X144960000Y-103960000D02*
X145034000Y-103886000D01*
X136210000Y-100330000D02*
X136210000Y-101534000D01*
X132875000Y-96520000D02*
X132240000Y-97155000D01*
X134874000Y-96520000D02*
X132875000Y-96520000D01*
X135636000Y-99060000D02*
X135636000Y-97790000D01*
X135382000Y-99314000D02*
X135636000Y-99060000D01*
X136210000Y-101534000D02*
X136144000Y-101600000D01*
X173228000Y-78486000D02*
X169672000Y-74930000D01*
X168910000Y-84836000D02*
X168910000Y-86360000D01*
X168910000Y-86360000D02*
X169672000Y-87122000D01*
X166167000Y-106172000D02*
X167640000Y-106172000D01*
X170075798Y-73406000D02*
X169154695Y-72484897D01*
X170180000Y-73406000D02*
X170075798Y-73406000D01*
X169672000Y-73914000D02*
X170180000Y-73406000D01*
X169672000Y-74168000D02*
X169672000Y-73914000D01*
X169672000Y-74422000D02*
X169672000Y-74168000D01*
X169672000Y-74930000D02*
X169672000Y-74422000D01*
X166167000Y-106172000D02*
X166040000Y-106045000D01*
X168589010Y-73050583D02*
X166912427Y-71374000D01*
X166912427Y-64989573D02*
X168783000Y-63119000D01*
X166912427Y-71374000D02*
X166912427Y-64989573D01*
X165760583Y-75879010D02*
X165760583Y-75844583D01*
X165760583Y-75844583D02*
X162306000Y-72390000D01*
X154178000Y-72136000D02*
X152400000Y-73914000D01*
X152400000Y-73914000D02*
X152400000Y-75760000D01*
X165194897Y-76444695D02*
X165109305Y-76444695D01*
X165109305Y-76444695D02*
X164084000Y-77470000D01*
X154686000Y-84328000D02*
X154618000Y-84260000D01*
X154618000Y-84260000D02*
X152400000Y-84260000D01*
X165194897Y-78495305D02*
X163680202Y-80010000D01*
X165608000Y-63754000D02*
X166243000Y-63119000D01*
X165608000Y-68072000D02*
X165608000Y-63754000D01*
X157734000Y-75946000D02*
X165608000Y-68072000D01*
X161798000Y-80010000D02*
X157734000Y-75946000D01*
X162306000Y-80010000D02*
X161798000Y-80010000D01*
X163068000Y-80010000D02*
X162306000Y-80010000D01*
X163680202Y-80010000D02*
X163068000Y-80010000D01*
X165760583Y-79060990D02*
X164303573Y-80518000D01*
X164592000Y-64008000D02*
X163703000Y-63119000D01*
X164592000Y-68072000D02*
X164592000Y-64008000D01*
X156972000Y-75692000D02*
X164592000Y-68072000D01*
X156718000Y-75692000D02*
X156972000Y-75692000D01*
X161544000Y-80518000D02*
X156718000Y-75692000D01*
X164303573Y-80518000D02*
X161544000Y-80518000D01*
X166326268Y-79626676D02*
X164926944Y-81026000D01*
X163830000Y-65786000D02*
X161163000Y-63119000D01*
X163830000Y-67818000D02*
X163830000Y-65786000D01*
X155956000Y-75692000D02*
X163830000Y-67818000D01*
X161290000Y-81026000D02*
X155956000Y-75692000D01*
X164926944Y-81026000D02*
X161290000Y-81026000D01*
X166891953Y-80192361D02*
X165550314Y-81534000D01*
X161798000Y-67818000D02*
X157099000Y-63119000D01*
X162814000Y-67818000D02*
X161798000Y-67818000D01*
X155194000Y-75438000D02*
X162814000Y-67818000D01*
X155194000Y-75946000D02*
X155194000Y-75438000D01*
X160782000Y-81534000D02*
X155194000Y-75946000D01*
X165550314Y-81534000D02*
X160782000Y-81534000D01*
X167457639Y-80758047D02*
X167457639Y-80700361D01*
X167457639Y-80700361D02*
X168656000Y-79502000D01*
X158750000Y-96012000D02*
X157607000Y-97155000D01*
X157607000Y-97155000D02*
X156540000Y-97155000D01*
X168023324Y-81323732D02*
X168104268Y-81323732D01*
X168104268Y-81323732D02*
X169672000Y-79756000D01*
X158496000Y-106172000D02*
X156667000Y-106172000D01*
X156667000Y-106172000D02*
X156540000Y-106045000D01*
X168589010Y-81889417D02*
X166404427Y-84074000D01*
X167005000Y-97155000D02*
X166040000Y-97155000D01*
X167640000Y-96520000D02*
X167005000Y-97155000D01*
X167640000Y-95250000D02*
X167640000Y-96520000D01*
X166404427Y-84074000D02*
X166370000Y-84074000D01*
X169154695Y-82455103D02*
X169154695Y-83048695D01*
X146939000Y-65151000D02*
X146939000Y-63119000D01*
X149098000Y-67310000D02*
X146939000Y-65151000D01*
X169154695Y-83048695D02*
X170434000Y-84328000D01*
X171205305Y-82455103D02*
X171355103Y-82455103D01*
X171355103Y-82455103D02*
X172974000Y-84074000D01*
X146050000Y-66548000D02*
X144399000Y-64897000D01*
X144399000Y-64897000D02*
X144399000Y-63119000D01*
X173468047Y-80192361D02*
X174752000Y-81476314D01*
X168783000Y-90043000D02*
X168783000Y-111379000D01*
X174752000Y-84074000D02*
X168783000Y-90043000D01*
X174752000Y-81476314D02*
X174752000Y-84074000D01*
X174033732Y-79626676D02*
X174033732Y-79799732D01*
X174033732Y-79799732D02*
X175514000Y-81280000D01*
X175514000Y-81280000D02*
X175514000Y-84074000D01*
X175514000Y-84074000D02*
X169418000Y-90170000D01*
X169418000Y-90170000D02*
X169418000Y-109474000D01*
X169418000Y-109474000D02*
X171323000Y-111379000D01*
X174599417Y-75879010D02*
X174599417Y-75844583D01*
X174599417Y-75844583D02*
X177800000Y-72644000D01*
X177800000Y-72644000D02*
X178562000Y-72644000D01*
X178562000Y-72644000D02*
X178816000Y-72898000D01*
X178816000Y-72898000D02*
X178816000Y-87630000D01*
X174244000Y-92202000D02*
X173863000Y-92583000D01*
X173863000Y-92583000D02*
X173863000Y-111379000D01*
X175895000Y-73279000D02*
X176022000Y-73152000D01*
X176403000Y-75057000D02*
X176403000Y-111379000D01*
X176530000Y-74930000D02*
X176403000Y-75057000D01*
X174033732Y-75313324D02*
X174033732Y-75140268D01*
X174033732Y-75140268D02*
X175895000Y-73279000D01*
X175895000Y-73279000D02*
X178816000Y-70358000D01*
X138176000Y-64770000D02*
X136779000Y-63373000D01*
X136779000Y-63373000D02*
X136779000Y-63119000D01*
X177038000Y-109474000D02*
X178943000Y-111379000D01*
X177038000Y-75692000D02*
X177038000Y-109474000D01*
X177546000Y-75184000D02*
X177038000Y-75692000D01*
X173468047Y-74747639D02*
X173468047Y-74689953D01*
X173468047Y-74689953D02*
X177546000Y-70612000D01*
X177546000Y-70612000D02*
X177546000Y-70358000D01*
X136906000Y-65532000D02*
X136652000Y-65532000D01*
X136652000Y-65532000D02*
X134239000Y-63119000D01*
X147320000Y-81280000D02*
X148590000Y-80010000D01*
X170942000Y-74930000D02*
X172255732Y-73616268D01*
X147320000Y-81280000D02*
X147000000Y-81280000D01*
X172336676Y-73616268D02*
X172255732Y-73616268D01*
X172336676Y-73616268D02*
X172336676Y-73535324D01*
X172336676Y-73535324D02*
X178943000Y-66929000D01*
X178943000Y-66929000D02*
X178943000Y-63119000D01*
X171770990Y-73050583D02*
X170653573Y-74168000D01*
X148336000Y-76454000D02*
X147320000Y-77470000D01*
X170653573Y-74168000D02*
X170434000Y-74168000D01*
X147320000Y-77470000D02*
X147000000Y-77470000D01*
X171770990Y-73050583D02*
X171805417Y-73050583D01*
X171805417Y-73050583D02*
X176403000Y-68453000D01*
X176403000Y-68453000D02*
X176403000Y-63119000D01*
X171205305Y-72484897D02*
X173863000Y-69827202D01*
X173863000Y-69827202D02*
X173863000Y-63119000D01*
X145100000Y-81280000D02*
X145100000Y-80955000D01*
X145100000Y-80955000D02*
X142030000Y-77885000D01*
X145100000Y-77470000D02*
X144780000Y-77150000D01*
X144780000Y-77150000D02*
X144780000Y-75692000D01*
X144780000Y-75692000D02*
X144373000Y-75285000D01*
X144373000Y-75285000D02*
X142030000Y-75285000D01*
X133467000Y-68072000D02*
X134830000Y-69435000D01*
X126778000Y-68072000D02*
X133467000Y-68072000D01*
X122460000Y-72390000D02*
X126778000Y-68072000D01*
X124460000Y-72390000D02*
X125222000Y-71628000D01*
X133604000Y-70104000D02*
X134811000Y-70104000D01*
X132080000Y-71628000D02*
X133604000Y-70104000D01*
X131826000Y-71628000D02*
X132080000Y-71628000D01*
X131572000Y-71628000D02*
X131826000Y-71628000D01*
X131318000Y-71628000D02*
X131572000Y-71628000D01*
X125222000Y-71628000D02*
X131318000Y-71628000D01*
X134811000Y-70104000D02*
X134830000Y-70085000D01*
X130490000Y-77470000D02*
X130490000Y-76774000D01*
X133279000Y-73985000D02*
X134830000Y-73985000D01*
X130490000Y-76774000D02*
X133279000Y-73985000D01*
X130490000Y-81280000D02*
X130490000Y-81092000D01*
X130490000Y-81092000D02*
X132080000Y-79502000D01*
X132080000Y-79502000D02*
X132080000Y-76454000D01*
X132080000Y-76454000D02*
X133899000Y-74635000D01*
X133899000Y-74635000D02*
X134830000Y-74635000D01*
X156540000Y-98425000D02*
X156667000Y-98552000D01*
X156667000Y-98552000D02*
X159512000Y-98552000D01*
X164846000Y-93218000D02*
X164971602Y-93218000D01*
X164971602Y-93218000D02*
X171893801Y-86295801D01*
X171893801Y-86295801D02*
X171893801Y-85662199D01*
X171893801Y-85662199D02*
X171958000Y-85598000D01*
X156540000Y-104775000D02*
X159131000Y-104775000D01*
X171958000Y-105918000D02*
X171958000Y-96266000D01*
X172212000Y-106172000D02*
X171958000Y-105918000D01*
X164338000Y-109982000D02*
X168148000Y-109982000D01*
X159131000Y-104775000D02*
X164338000Y-109982000D01*
X166040000Y-104775000D02*
X164973000Y-104775000D01*
X164084000Y-108204000D02*
X167894000Y-108204000D01*
X163068000Y-107188000D02*
X164084000Y-108204000D01*
X163068000Y-106680000D02*
X163068000Y-107188000D01*
X164973000Y-104775000D02*
X163068000Y-106680000D01*
X166040000Y-103505000D02*
X165227000Y-103505000D01*
X164338000Y-109220000D02*
X167894000Y-109220000D01*
X162052000Y-106934000D02*
X164338000Y-109220000D01*
X162052000Y-106680000D02*
X162052000Y-106934000D01*
X165227000Y-103505000D02*
X162052000Y-106680000D01*
D32*
G36*
X128787155Y-64383372D02*
X129415321Y-65012636D01*
X130236481Y-65353611D01*
X131125619Y-65354387D01*
X131947372Y-65014845D01*
X132576636Y-64386679D01*
X132863130Y-63696725D01*
X132867039Y-63716378D01*
X133188946Y-64198147D01*
X133670715Y-64520054D01*
X134239000Y-64633093D01*
X134605408Y-64560210D01*
X136114599Y-66069401D01*
X136134802Y-66082900D01*
X136375673Y-66324192D01*
X136719201Y-66466838D01*
X137091167Y-66467162D01*
X137434943Y-66325117D01*
X137698192Y-66062327D01*
X137840838Y-65718799D01*
X137840904Y-65643259D01*
X137989201Y-65704838D01*
X138361167Y-65705162D01*
X138704943Y-65563117D01*
X138968192Y-65300327D01*
X139110838Y-64956799D01*
X139111156Y-64591750D01*
X139319000Y-64633093D01*
X139887285Y-64520054D01*
X140369054Y-64198147D01*
X140596702Y-63857447D01*
X140663817Y-64000358D01*
X141092076Y-64390645D01*
X141502110Y-64560476D01*
X141732000Y-64439155D01*
X141732000Y-63627000D01*
X141986000Y-63627000D01*
X141986000Y-64439155D01*
X142215890Y-64560476D01*
X142625924Y-64390645D01*
X143054183Y-64000358D01*
X143121298Y-63857447D01*
X143348946Y-64198147D01*
X143639000Y-64391954D01*
X143639000Y-64897000D01*
X143696852Y-65187839D01*
X143861599Y-65434401D01*
X145114878Y-66687680D01*
X145114838Y-66733167D01*
X145256883Y-67076943D01*
X145519673Y-67340192D01*
X145863201Y-67482838D01*
X146235167Y-67483162D01*
X146578943Y-67341117D01*
X146842192Y-67078327D01*
X146984838Y-66734799D01*
X146985162Y-66362833D01*
X146921178Y-66207980D01*
X148162878Y-67449680D01*
X148162838Y-67495167D01*
X148304883Y-67838943D01*
X148567673Y-68102192D01*
X148911201Y-68244838D01*
X149283167Y-68245162D01*
X149626943Y-68103117D01*
X149890192Y-67840327D01*
X150032838Y-67496799D01*
X150033162Y-67124833D01*
X149891117Y-66781057D01*
X149628327Y-66517808D01*
X149284799Y-66375162D01*
X149237923Y-66375121D01*
X147699000Y-64836198D01*
X147699000Y-64391954D01*
X147989054Y-64198147D01*
X148209000Y-63868974D01*
X148428946Y-64198147D01*
X148910715Y-64520054D01*
X149479000Y-64633093D01*
X150047285Y-64520054D01*
X150529054Y-64198147D01*
X150749000Y-63868974D01*
X150968946Y-64198147D01*
X151450715Y-64520054D01*
X152019000Y-64633093D01*
X152587285Y-64520054D01*
X153069054Y-64198147D01*
X153289000Y-63868974D01*
X153508946Y-64198147D01*
X153990715Y-64520054D01*
X154559000Y-64633093D01*
X155127285Y-64520054D01*
X155609054Y-64198147D01*
X155636850Y-64156548D01*
X155645838Y-64204317D01*
X155784910Y-64420441D01*
X155997110Y-64565431D01*
X156249000Y-64616440D01*
X157521638Y-64616440D01*
X161231198Y-68326000D01*
X154656599Y-74900599D01*
X154491852Y-75147161D01*
X154434000Y-75438000D01*
X154434000Y-75946000D01*
X154491852Y-76236839D01*
X154656599Y-76483401D01*
X160244599Y-82071401D01*
X160491160Y-82236148D01*
X160782000Y-82294000D01*
X165550314Y-82294000D01*
X165841153Y-82236148D01*
X166087715Y-82071401D01*
X166405860Y-81753257D01*
X166628599Y-81975996D01*
X166737473Y-82050387D01*
X166805375Y-82152772D01*
X167028114Y-82375511D01*
X166264717Y-83138908D01*
X166184833Y-83138838D01*
X165841057Y-83280883D01*
X165577808Y-83543673D01*
X165435162Y-83887201D01*
X165434838Y-84259167D01*
X165576883Y-84602943D01*
X165839673Y-84866192D01*
X166183201Y-85008838D01*
X166555167Y-85009162D01*
X166898943Y-84867117D01*
X167162192Y-84604327D01*
X167304838Y-84260799D01*
X167304849Y-84248380D01*
X168102916Y-83450313D01*
X168325655Y-83673052D01*
X168523358Y-83808137D01*
X168774520Y-83862621D01*
X168874926Y-83843728D01*
X168932217Y-83901019D01*
X168724833Y-83900838D01*
X168381057Y-84042883D01*
X168117808Y-84305673D01*
X167975162Y-84649201D01*
X167974838Y-85021167D01*
X168116883Y-85364943D01*
X168150000Y-85398118D01*
X168150000Y-85960453D01*
X167873057Y-86074883D01*
X167844853Y-86103038D01*
X167754890Y-86041569D01*
X167503000Y-85990560D01*
X166253000Y-85990560D01*
X166017683Y-86034838D01*
X165801559Y-86173910D01*
X165656569Y-86386110D01*
X165605560Y-86638000D01*
X165605560Y-87638000D01*
X165649838Y-87873317D01*
X165788910Y-88089441D01*
X165857006Y-88135969D01*
X165714673Y-88278302D01*
X165618000Y-88511691D01*
X165618000Y-88852250D01*
X165776750Y-89011000D01*
X166751000Y-89011000D01*
X166751000Y-88991000D01*
X167005000Y-88991000D01*
X167005000Y-89011000D01*
X167025000Y-89011000D01*
X167025000Y-89265000D01*
X167005000Y-89265000D01*
X167005000Y-89285000D01*
X166751000Y-89285000D01*
X166751000Y-89265000D01*
X165776750Y-89265000D01*
X165618000Y-89423750D01*
X165618000Y-89764309D01*
X165714673Y-89997698D01*
X165893301Y-90176327D01*
X166126690Y-90273000D01*
X166592250Y-90273000D01*
X166750998Y-90114252D01*
X166750998Y-90273000D01*
X166841800Y-90273000D01*
X165473566Y-91641234D01*
X165451856Y-91054540D01*
X165249387Y-90565736D01*
X164982532Y-90467073D01*
X164009605Y-91440000D01*
X164023748Y-91454143D01*
X163844143Y-91633748D01*
X163830000Y-91619605D01*
X162857073Y-92592532D01*
X162955736Y-92859387D01*
X163565461Y-93085908D01*
X163911125Y-93073117D01*
X163910838Y-93403167D01*
X164045056Y-93728000D01*
X157937000Y-93728000D01*
X157646160Y-93785852D01*
X157399599Y-93950599D01*
X156819500Y-94530698D01*
X156129122Y-93840320D01*
X156129162Y-93794833D01*
X155987117Y-93451057D01*
X155724327Y-93187808D01*
X155380799Y-93045162D01*
X155008833Y-93044838D01*
X154665057Y-93186883D01*
X154401808Y-93449673D01*
X154259162Y-93793201D01*
X154258838Y-94165167D01*
X154400883Y-94508943D01*
X154663673Y-94772192D01*
X155007201Y-94914838D01*
X155054077Y-94914879D01*
X155306714Y-95167516D01*
X155193569Y-95333110D01*
X155142560Y-95585000D01*
X155142560Y-96185000D01*
X155186838Y-96420317D01*
X155250678Y-96519528D01*
X155193569Y-96603110D01*
X155142560Y-96855000D01*
X155142560Y-97455000D01*
X155186838Y-97690317D01*
X155250678Y-97789528D01*
X155193569Y-97873110D01*
X155142560Y-98125000D01*
X155142560Y-98725000D01*
X155186838Y-98960317D01*
X155245178Y-99050980D01*
X155155000Y-99268690D01*
X155155000Y-99409250D01*
X155313750Y-99568000D01*
X156413000Y-99568000D01*
X156413000Y-99548000D01*
X156667000Y-99548000D01*
X156667000Y-99568000D01*
X157766250Y-99568000D01*
X157925000Y-99409250D01*
X157925000Y-99312000D01*
X158949537Y-99312000D01*
X158981673Y-99344192D01*
X159325201Y-99486838D01*
X159697167Y-99487162D01*
X160040943Y-99345117D01*
X160304192Y-99082327D01*
X160446838Y-98738799D01*
X160447162Y-98366833D01*
X160305117Y-98023057D01*
X160042327Y-97759808D01*
X159698799Y-97617162D01*
X159326833Y-97616838D01*
X158983057Y-97758883D01*
X158949882Y-97792000D01*
X157995340Y-97792000D01*
X158144401Y-97692401D01*
X158889680Y-96947122D01*
X158935167Y-96947162D01*
X159278943Y-96805117D01*
X159542192Y-96542327D01*
X159684838Y-96198799D01*
X159685162Y-95826833D01*
X159543117Y-95483057D01*
X159308470Y-95248000D01*
X164328198Y-95248000D01*
X164646372Y-95566174D01*
X164642560Y-95585000D01*
X164642560Y-96185000D01*
X164686838Y-96420317D01*
X164750678Y-96519528D01*
X164693569Y-96603110D01*
X164642560Y-96855000D01*
X164642560Y-97455000D01*
X164686838Y-97690317D01*
X164750678Y-97789528D01*
X164693569Y-97873110D01*
X164642560Y-98125000D01*
X164642560Y-98725000D01*
X164686838Y-98960317D01*
X164745178Y-99050980D01*
X164655000Y-99268690D01*
X164655000Y-99409250D01*
X164813750Y-99568000D01*
X165913000Y-99568000D01*
X165913000Y-99548000D01*
X166167000Y-99548000D01*
X166167000Y-99568000D01*
X167266250Y-99568000D01*
X167425000Y-99409250D01*
X167425000Y-99268690D01*
X167335194Y-99051878D01*
X167386431Y-98976890D01*
X167437440Y-98725000D01*
X167437440Y-98125000D01*
X167393162Y-97889683D01*
X167349258Y-97821455D01*
X167542401Y-97692401D01*
X167572998Y-97661804D01*
X167572998Y-105236941D01*
X167454833Y-105236838D01*
X167400086Y-105259459D01*
X167437440Y-105075000D01*
X167437440Y-104475000D01*
X167393162Y-104239683D01*
X167329322Y-104140472D01*
X167386431Y-104056890D01*
X167437440Y-103805000D01*
X167437440Y-103205000D01*
X167393162Y-102969683D01*
X167334822Y-102879020D01*
X167425000Y-102661310D01*
X167425000Y-102520750D01*
X167266250Y-102362000D01*
X166167000Y-102362000D01*
X166167000Y-102382000D01*
X165913000Y-102382000D01*
X165913000Y-102362000D01*
X164813750Y-102362000D01*
X164655000Y-102520750D01*
X164655000Y-102661310D01*
X164744806Y-102878122D01*
X164693569Y-102953110D01*
X164690797Y-102966799D01*
X164689599Y-102967599D01*
X161544000Y-106113198D01*
X159668401Y-104237599D01*
X159421839Y-104072852D01*
X159131000Y-104015000D01*
X157890334Y-104015000D01*
X157925000Y-103931310D01*
X157925000Y-103790750D01*
X157766250Y-103632000D01*
X156667000Y-103632000D01*
X156667000Y-103652000D01*
X156413000Y-103652000D01*
X156413000Y-103632000D01*
X155313750Y-103632000D01*
X155155000Y-103790750D01*
X155155000Y-103931310D01*
X155244806Y-104148122D01*
X155193569Y-104223110D01*
X155142560Y-104475000D01*
X155142560Y-105075000D01*
X155186838Y-105310317D01*
X155250678Y-105409528D01*
X155193569Y-105493110D01*
X155142560Y-105745000D01*
X155142560Y-106345000D01*
X155186838Y-106580317D01*
X155250678Y-106679528D01*
X155193569Y-106763110D01*
X155142560Y-107015000D01*
X155142560Y-107615000D01*
X155186838Y-107850317D01*
X155325910Y-108066441D01*
X155538110Y-108211431D01*
X155790000Y-108262440D01*
X157290000Y-108262440D01*
X157525317Y-108218162D01*
X157741441Y-108079090D01*
X157744236Y-108075000D01*
X157806759Y-108075000D01*
X157965673Y-108234192D01*
X158309201Y-108376838D01*
X158681167Y-108377162D01*
X159024943Y-108235117D01*
X159288192Y-107972327D01*
X159430838Y-107628799D01*
X159431162Y-107256833D01*
X159289117Y-106913057D01*
X159183290Y-106807046D01*
X159288192Y-106702327D01*
X159430838Y-106358799D01*
X159431020Y-106149822D01*
X163800599Y-110519401D01*
X164047161Y-110684148D01*
X164338000Y-110742000D01*
X164745560Y-110742000D01*
X164745560Y-111944863D01*
X162660440Y-111986565D01*
X162660440Y-110529000D01*
X162616162Y-110293683D01*
X162477090Y-110077559D01*
X162264890Y-109932569D01*
X162013000Y-109881560D01*
X160313000Y-109881560D01*
X160077683Y-109925838D01*
X159861559Y-110064910D01*
X159716569Y-110277110D01*
X159694699Y-110385107D01*
X159389924Y-110107355D01*
X158979890Y-109937524D01*
X158750000Y-110058845D01*
X158750000Y-111252000D01*
X158770000Y-111252000D01*
X158770000Y-111506000D01*
X158750000Y-111506000D01*
X158750000Y-111526000D01*
X158496000Y-111526000D01*
X158496000Y-111506000D01*
X156210000Y-111506000D01*
X156210000Y-111526000D01*
X155956000Y-111526000D01*
X155956000Y-111506000D01*
X155936000Y-111506000D01*
X155936000Y-111252000D01*
X155956000Y-111252000D01*
X155956000Y-110058845D01*
X156210000Y-110058845D01*
X156210000Y-111252000D01*
X158496000Y-111252000D01*
X158496000Y-110058845D01*
X158266110Y-109937524D01*
X157856076Y-110107355D01*
X157427817Y-110497642D01*
X157353000Y-110656954D01*
X157278183Y-110497642D01*
X156849924Y-110107355D01*
X156439890Y-109937524D01*
X156210000Y-110058845D01*
X155956000Y-110058845D01*
X155726110Y-109937524D01*
X155316076Y-110107355D01*
X154887817Y-110497642D01*
X154820702Y-110640553D01*
X154593054Y-110299853D01*
X154111285Y-109977946D01*
X153543000Y-109864907D01*
X152974715Y-109977946D01*
X152733765Y-110138944D01*
X152826838Y-109914799D01*
X152827162Y-109542833D01*
X152685117Y-109199057D01*
X152422327Y-108935808D01*
X152078799Y-108793162D01*
X151706833Y-108792838D01*
X151363057Y-108934883D01*
X151099808Y-109197673D01*
X150957162Y-109541201D01*
X150957121Y-109588077D01*
X150600161Y-109945037D01*
X150434715Y-109977946D01*
X149952946Y-110299853D01*
X149733000Y-110629026D01*
X149513054Y-110299853D01*
X149031285Y-109977946D01*
X148463000Y-109864907D01*
X147894715Y-109977946D01*
X147412946Y-110299853D01*
X147193000Y-110629026D01*
X146973054Y-110299853D01*
X146491285Y-109977946D01*
X145923000Y-109864907D01*
X145354715Y-109977946D01*
X144872946Y-110299853D01*
X144653000Y-110629026D01*
X144433054Y-110299853D01*
X143951285Y-109977946D01*
X143383000Y-109864907D01*
X142814715Y-109977946D01*
X142332946Y-110299853D01*
X142011039Y-110781622D01*
X141898000Y-111349907D01*
X141898000Y-111408093D01*
X142011039Y-111976378D01*
X142290066Y-112393973D01*
X131320469Y-112613365D01*
X131647611Y-111825519D01*
X131648387Y-110936381D01*
X131308845Y-110114628D01*
X130680679Y-109485364D01*
X129859519Y-109144389D01*
X128970381Y-109143613D01*
X128148628Y-109483155D01*
X127519364Y-110111321D01*
X127178389Y-110932481D01*
X127177613Y-111821619D01*
X127517155Y-112643372D01*
X127562234Y-112688529D01*
X120122440Y-112837325D01*
X120122440Y-111820000D01*
X120078162Y-111584683D01*
X119939090Y-111368559D01*
X119726890Y-111223569D01*
X119475000Y-111172560D01*
X116967000Y-111172560D01*
X116967000Y-110505750D01*
X121140000Y-110505750D01*
X121140000Y-110846309D01*
X121236673Y-111079698D01*
X121415301Y-111258327D01*
X121648690Y-111355000D01*
X123239250Y-111355000D01*
X123398000Y-111196250D01*
X123398000Y-110347000D01*
X123652000Y-110347000D01*
X123652000Y-111196250D01*
X123810750Y-111355000D01*
X125401310Y-111355000D01*
X125634699Y-111258327D01*
X125813327Y-111079698D01*
X125910000Y-110846309D01*
X125910000Y-110505750D01*
X125751250Y-110347000D01*
X123652000Y-110347000D01*
X123398000Y-110347000D01*
X121298750Y-110347000D01*
X121140000Y-110505750D01*
X116967000Y-110505750D01*
X116967000Y-107267440D01*
X119475000Y-107267440D01*
X119710317Y-107223162D01*
X119926441Y-107084090D01*
X119950563Y-107048786D01*
X120119673Y-107218192D01*
X120463201Y-107360838D01*
X120510077Y-107360879D01*
X121127560Y-107978362D01*
X121127560Y-108720000D01*
X121171838Y-108955317D01*
X121310910Y-109171441D01*
X121379006Y-109217969D01*
X121236673Y-109360302D01*
X121140000Y-109593691D01*
X121140000Y-109934250D01*
X121298750Y-110093000D01*
X123398000Y-110093000D01*
X123398000Y-110073000D01*
X123652000Y-110073000D01*
X123652000Y-110093000D01*
X125751250Y-110093000D01*
X125910000Y-109934250D01*
X125910000Y-109593691D01*
X125813327Y-109360302D01*
X125672090Y-109219064D01*
X125726441Y-109184090D01*
X125871431Y-108971890D01*
X125922440Y-108720000D01*
X125922440Y-107720000D01*
X125878162Y-107484683D01*
X125739090Y-107268559D01*
X125526890Y-107123569D01*
X125275000Y-107072560D01*
X122371362Y-107072560D01*
X121585122Y-106286320D01*
X121585162Y-106240833D01*
X121443117Y-105897057D01*
X121180327Y-105633808D01*
X120836799Y-105491162D01*
X120464833Y-105490838D01*
X120122440Y-105632312D01*
X120122440Y-105120000D01*
X120078162Y-104884683D01*
X119939090Y-104668559D01*
X119726890Y-104523569D01*
X119475000Y-104472560D01*
X116967000Y-104472560D01*
X116967000Y-102897440D01*
X117510000Y-102897440D01*
X117745317Y-102853162D01*
X117961441Y-102714090D01*
X118106431Y-102501890D01*
X118109081Y-102488803D01*
X118245910Y-102701441D01*
X118458110Y-102846431D01*
X118710000Y-102897440D01*
X119410000Y-102897440D01*
X119645317Y-102853162D01*
X119861441Y-102714090D01*
X120006431Y-102501890D01*
X120035164Y-102360000D01*
X120872666Y-102360000D01*
X120886838Y-102435317D01*
X121025910Y-102651441D01*
X121238110Y-102796431D01*
X121490000Y-102847440D01*
X122690000Y-102847440D01*
X122925317Y-102803162D01*
X123141441Y-102664090D01*
X123187969Y-102595994D01*
X123330302Y-102738327D01*
X123563691Y-102835000D01*
X124004250Y-102835000D01*
X124163000Y-102676250D01*
X124163000Y-101727000D01*
X124143000Y-101727000D01*
X124143000Y-101473000D01*
X124163000Y-101473000D01*
X124163000Y-100523750D01*
X124004250Y-100365000D01*
X123563691Y-100365000D01*
X123330302Y-100461673D01*
X123189064Y-100602910D01*
X123154090Y-100548559D01*
X122941890Y-100403569D01*
X122690000Y-100352560D01*
X121490000Y-100352560D01*
X121254683Y-100396838D01*
X121038559Y-100535910D01*
X120893569Y-100748110D01*
X120874961Y-100840000D01*
X120036742Y-100840000D01*
X120013162Y-100714683D01*
X119874090Y-100498559D01*
X119661890Y-100353569D01*
X119410000Y-100302560D01*
X118710000Y-100302560D01*
X118474683Y-100346838D01*
X118258559Y-100485910D01*
X118113569Y-100698110D01*
X118110919Y-100711197D01*
X117974090Y-100498559D01*
X117920000Y-100461601D01*
X117920000Y-100324802D01*
X119064802Y-99180000D01*
X120171925Y-99180000D01*
X120703855Y-99074193D01*
X121154803Y-98772878D01*
X121456118Y-98321930D01*
X121561925Y-97790000D01*
X121456118Y-97258070D01*
X121301053Y-97026000D01*
X124412290Y-97026000D01*
X124265852Y-97245161D01*
X124208000Y-97536000D01*
X124208000Y-97735537D01*
X124175808Y-97767673D01*
X124033162Y-98111201D01*
X124032838Y-98483167D01*
X124174883Y-98826943D01*
X124437673Y-99090192D01*
X124781201Y-99232838D01*
X125153167Y-99233162D01*
X125496943Y-99091117D01*
X125519437Y-99068662D01*
X125468569Y-99143110D01*
X125417560Y-99395000D01*
X125417560Y-99995000D01*
X125461838Y-100230317D01*
X125520178Y-100320980D01*
X125430000Y-100538690D01*
X125430000Y-100644340D01*
X125428327Y-100640301D01*
X125249698Y-100461673D01*
X125016309Y-100365000D01*
X124575750Y-100365000D01*
X124417000Y-100523750D01*
X124417000Y-101473000D01*
X124437000Y-101473000D01*
X124437000Y-101727000D01*
X124417000Y-101727000D01*
X124417000Y-102676250D01*
X124575750Y-102835000D01*
X125016309Y-102835000D01*
X125249698Y-102738327D01*
X125428327Y-102559699D01*
X125525000Y-102326310D01*
X125525000Y-101885750D01*
X125366252Y-101727002D01*
X125525000Y-101727002D01*
X125525000Y-101620660D01*
X125526673Y-101624699D01*
X125705302Y-101803327D01*
X125938691Y-101900000D01*
X126554250Y-101900000D01*
X126713000Y-101741250D01*
X126713000Y-101092000D01*
X126967000Y-101092000D01*
X126967000Y-101741250D01*
X127125750Y-101900000D01*
X127741309Y-101900000D01*
X127974698Y-101803327D01*
X128153327Y-101624699D01*
X128250000Y-101391310D01*
X128250000Y-101250750D01*
X128091250Y-101092000D01*
X126967000Y-101092000D01*
X126713000Y-101092000D01*
X126693000Y-101092000D01*
X126693000Y-100838000D01*
X126713000Y-100838000D01*
X126713000Y-100818000D01*
X126967000Y-100818000D01*
X126967000Y-100838000D01*
X128091250Y-100838000D01*
X128250000Y-100679250D01*
X128250000Y-100582000D01*
X128463198Y-100582000D01*
X130780599Y-102899401D01*
X131027160Y-103064148D01*
X131075414Y-103073746D01*
X131318000Y-103122000D01*
X133807889Y-103122000D01*
X133573808Y-103355673D01*
X133431162Y-103699201D01*
X133431121Y-103746077D01*
X133202599Y-103974599D01*
X133037852Y-104221161D01*
X132980000Y-104512000D01*
X132980000Y-104882560D01*
X132490000Y-104882560D01*
X132254683Y-104926838D01*
X132038559Y-105065910D01*
X131893569Y-105278110D01*
X131842560Y-105530000D01*
X131842560Y-107830000D01*
X131886838Y-108065317D01*
X132025910Y-108281441D01*
X132238110Y-108426431D01*
X132490000Y-108477440D01*
X134990000Y-108477440D01*
X135071837Y-108462041D01*
X134843808Y-108689673D01*
X134701162Y-109033201D01*
X134700838Y-109405167D01*
X134842883Y-109748943D01*
X135105673Y-110012192D01*
X135449201Y-110154838D01*
X135821167Y-110155162D01*
X136164943Y-110013117D01*
X136428192Y-109750327D01*
X136570838Y-109406799D01*
X136570997Y-109223805D01*
X137280000Y-108514802D01*
X137280000Y-108939669D01*
X137241162Y-109033201D01*
X137240838Y-109405167D01*
X137382883Y-109748943D01*
X137645673Y-110012192D01*
X137989201Y-110154838D01*
X138361167Y-110155162D01*
X138704943Y-110013117D01*
X138968192Y-109750327D01*
X139006045Y-109659167D01*
X140288838Y-109659167D01*
X140430883Y-110002943D01*
X140693673Y-110266192D01*
X141037201Y-110408838D01*
X141409167Y-110409162D01*
X141752943Y-110267117D01*
X142016192Y-110004327D01*
X142158838Y-109660799D01*
X142158879Y-109613923D01*
X142597401Y-109175401D01*
X142762148Y-108928839D01*
X142820000Y-108638000D01*
X142820000Y-108485105D01*
X142961441Y-108394090D01*
X143106431Y-108181890D01*
X143157440Y-107930000D01*
X143157440Y-105430000D01*
X143113162Y-105194683D01*
X142974090Y-104978559D01*
X142761890Y-104833569D01*
X142510000Y-104782560D01*
X141610000Y-104782560D01*
X141374683Y-104826838D01*
X141158559Y-104965910D01*
X141013569Y-105178110D01*
X140962560Y-105430000D01*
X140962560Y-107930000D01*
X141006838Y-108165317D01*
X141145910Y-108381441D01*
X141202851Y-108420347D01*
X141084320Y-108538878D01*
X141038833Y-108538838D01*
X140695057Y-108680883D01*
X140431808Y-108943673D01*
X140289162Y-109287201D01*
X140288838Y-109659167D01*
X139006045Y-109659167D01*
X139110838Y-109406799D01*
X139111162Y-109034833D01*
X138969117Y-108691057D01*
X138800000Y-108521645D01*
X138800000Y-108477440D01*
X139290000Y-108477440D01*
X139525317Y-108433162D01*
X139741441Y-108294090D01*
X139886431Y-108081890D01*
X139937440Y-107830000D01*
X139937440Y-105530000D01*
X139893162Y-105294683D01*
X139754090Y-105078559D01*
X139541890Y-104933569D01*
X139290000Y-104882560D01*
X136790000Y-104882560D01*
X136554683Y-104926838D01*
X136338559Y-105065910D01*
X136193569Y-105278110D01*
X136142560Y-105530000D01*
X136142560Y-107502638D01*
X135592303Y-108052895D01*
X135637440Y-107830000D01*
X135637440Y-105530000D01*
X135593162Y-105294683D01*
X135454090Y-105078559D01*
X135241890Y-104933569D01*
X134990000Y-104882560D01*
X134500000Y-104882560D01*
X134500000Y-104826802D01*
X134505680Y-104821122D01*
X134551167Y-104821162D01*
X134894943Y-104679117D01*
X135158192Y-104416327D01*
X135300838Y-104072799D01*
X135301162Y-103700833D01*
X135159117Y-103357057D01*
X134924470Y-103122000D01*
X144475889Y-103122000D01*
X144241808Y-103355673D01*
X144099162Y-103699201D01*
X144098838Y-104071167D01*
X144200000Y-104315998D01*
X144200000Y-104874895D01*
X144058559Y-104965910D01*
X143913569Y-105178110D01*
X143862560Y-105430000D01*
X143862560Y-107930000D01*
X143906838Y-108165317D01*
X144045910Y-108381441D01*
X144258110Y-108526431D01*
X144510000Y-108577440D01*
X145410000Y-108577440D01*
X145645317Y-108533162D01*
X145861441Y-108394090D01*
X146006431Y-108181890D01*
X146057440Y-107930000D01*
X146057440Y-105430000D01*
X146013162Y-105194683D01*
X145943978Y-105087167D01*
X146638838Y-105087167D01*
X146780883Y-105430943D01*
X147043673Y-105694192D01*
X147387201Y-105836838D01*
X147391300Y-105836842D01*
X147382560Y-105880000D01*
X147382560Y-107480000D01*
X147426838Y-107715317D01*
X147565910Y-107931441D01*
X147778110Y-108076431D01*
X148030000Y-108127440D01*
X150630000Y-108127440D01*
X150865317Y-108083162D01*
X151081441Y-107944090D01*
X151127969Y-107875994D01*
X151270302Y-108018327D01*
X151503691Y-108115000D01*
X152644250Y-108115000D01*
X152803000Y-107956250D01*
X152803000Y-106807000D01*
X153057000Y-106807000D01*
X153057000Y-107956250D01*
X153215750Y-108115000D01*
X154356309Y-108115000D01*
X154589698Y-108018327D01*
X154768327Y-107839699D01*
X154865000Y-107606310D01*
X154865000Y-106965750D01*
X154706250Y-106807000D01*
X153057000Y-106807000D01*
X152803000Y-106807000D01*
X152783000Y-106807000D01*
X152783000Y-106553000D01*
X152803000Y-106553000D01*
X152803000Y-105403750D01*
X153057000Y-105403750D01*
X153057000Y-106553000D01*
X154706250Y-106553000D01*
X154865000Y-106394250D01*
X154865000Y-105753690D01*
X154768327Y-105520301D01*
X154589698Y-105341673D01*
X154356309Y-105245000D01*
X153215750Y-105245000D01*
X153057000Y-105403750D01*
X152803000Y-105403750D01*
X152644250Y-105245000D01*
X151503691Y-105245000D01*
X151270302Y-105341673D01*
X151129064Y-105482910D01*
X151094090Y-105428559D01*
X150881890Y-105283569D01*
X150630000Y-105232560D01*
X148957362Y-105232560D01*
X148509103Y-104784301D01*
X148509162Y-104716833D01*
X148367117Y-104373057D01*
X148104327Y-104109808D01*
X147760799Y-103967162D01*
X147388833Y-103966838D01*
X147045057Y-104108883D01*
X146781808Y-104371673D01*
X146639162Y-104715201D01*
X146638838Y-105087167D01*
X145943978Y-105087167D01*
X145874090Y-104978559D01*
X145720000Y-104873274D01*
X145720000Y-104522334D01*
X145826192Y-104416327D01*
X145968838Y-104072799D01*
X145969162Y-103700833D01*
X145827117Y-103357057D01*
X145592470Y-103122000D01*
X148568000Y-103122000D01*
X148858839Y-103064148D01*
X148883844Y-103047440D01*
X150630000Y-103047440D01*
X150865317Y-103003162D01*
X151081441Y-102864090D01*
X151127969Y-102795994D01*
X151270302Y-102938327D01*
X151503691Y-103035000D01*
X152644250Y-103035000D01*
X152803000Y-102876250D01*
X152803000Y-101727000D01*
X153057000Y-101727000D01*
X153057000Y-102876250D01*
X153215750Y-103035000D01*
X154356309Y-103035000D01*
X154589698Y-102938327D01*
X154768327Y-102759699D01*
X154865000Y-102526310D01*
X154865000Y-102520750D01*
X155155000Y-102520750D01*
X155155000Y-102661310D01*
X155241442Y-102870000D01*
X155155000Y-103078690D01*
X155155000Y-103219250D01*
X155313750Y-103378000D01*
X156413000Y-103378000D01*
X156413000Y-102362000D01*
X156667000Y-102362000D01*
X156667000Y-103378000D01*
X157766250Y-103378000D01*
X157925000Y-103219250D01*
X157925000Y-103078690D01*
X157838558Y-102870000D01*
X157925000Y-102661310D01*
X157925000Y-102520750D01*
X157766250Y-102362000D01*
X156667000Y-102362000D01*
X156413000Y-102362000D01*
X155313750Y-102362000D01*
X155155000Y-102520750D01*
X154865000Y-102520750D01*
X154865000Y-101885750D01*
X154706250Y-101727000D01*
X153057000Y-101727000D01*
X152803000Y-101727000D01*
X152783000Y-101727000D01*
X152783000Y-101473000D01*
X152803000Y-101473000D01*
X152803000Y-100323750D01*
X153057000Y-100323750D01*
X153057000Y-101473000D01*
X154706250Y-101473000D01*
X154865000Y-101314250D01*
X154865000Y-101250750D01*
X155155000Y-101250750D01*
X155155000Y-101391310D01*
X155241442Y-101600000D01*
X155155000Y-101808690D01*
X155155000Y-101949250D01*
X155313750Y-102108000D01*
X156413000Y-102108000D01*
X156413000Y-101092000D01*
X156667000Y-101092000D01*
X156667000Y-102108000D01*
X157766250Y-102108000D01*
X157925000Y-101949250D01*
X157925000Y-101808690D01*
X157838558Y-101600000D01*
X157925000Y-101391310D01*
X157925000Y-101250750D01*
X164655000Y-101250750D01*
X164655000Y-101391310D01*
X164741442Y-101600000D01*
X164655000Y-101808690D01*
X164655000Y-101949250D01*
X164813750Y-102108000D01*
X165913000Y-102108000D01*
X165913000Y-101092000D01*
X166167000Y-101092000D01*
X166167000Y-102108000D01*
X167266250Y-102108000D01*
X167425000Y-101949250D01*
X167425000Y-101808690D01*
X167338558Y-101600000D01*
X167425000Y-101391310D01*
X167425000Y-101250750D01*
X167266250Y-101092000D01*
X166167000Y-101092000D01*
X165913000Y-101092000D01*
X164813750Y-101092000D01*
X164655000Y-101250750D01*
X157925000Y-101250750D01*
X157766250Y-101092000D01*
X156667000Y-101092000D01*
X156413000Y-101092000D01*
X155313750Y-101092000D01*
X155155000Y-101250750D01*
X154865000Y-101250750D01*
X154865000Y-100673690D01*
X154768327Y-100440301D01*
X154589698Y-100261673D01*
X154356309Y-100165000D01*
X153215750Y-100165000D01*
X153057000Y-100323750D01*
X152803000Y-100323750D01*
X152644250Y-100165000D01*
X151503691Y-100165000D01*
X151270302Y-100261673D01*
X151129064Y-100402910D01*
X151094090Y-100348559D01*
X150881890Y-100203569D01*
X150630000Y-100152560D01*
X148754962Y-100152560D01*
X148864943Y-100107117D01*
X148991530Y-99980750D01*
X155155000Y-99980750D01*
X155155000Y-100121310D01*
X155241442Y-100330000D01*
X155155000Y-100538690D01*
X155155000Y-100679250D01*
X155313750Y-100838000D01*
X156413000Y-100838000D01*
X156413000Y-99822000D01*
X156667000Y-99822000D01*
X156667000Y-100838000D01*
X157766250Y-100838000D01*
X157925000Y-100679250D01*
X157925000Y-100538690D01*
X157838558Y-100330000D01*
X157925000Y-100121310D01*
X157925000Y-99980750D01*
X164655000Y-99980750D01*
X164655000Y-100121310D01*
X164741442Y-100330000D01*
X164655000Y-100538690D01*
X164655000Y-100679250D01*
X164813750Y-100838000D01*
X165913000Y-100838000D01*
X165913000Y-99822000D01*
X166167000Y-99822000D01*
X166167000Y-100838000D01*
X167266250Y-100838000D01*
X167425000Y-100679250D01*
X167425000Y-100538690D01*
X167338558Y-100330000D01*
X167425000Y-100121310D01*
X167425000Y-99980750D01*
X167266250Y-99822000D01*
X166167000Y-99822000D01*
X165913000Y-99822000D01*
X164813750Y-99822000D01*
X164655000Y-99980750D01*
X157925000Y-99980750D01*
X157766250Y-99822000D01*
X156667000Y-99822000D01*
X156413000Y-99822000D01*
X155313750Y-99822000D01*
X155155000Y-99980750D01*
X148991530Y-99980750D01*
X149128192Y-99844327D01*
X149270838Y-99500799D01*
X149271162Y-99128833D01*
X149129117Y-98785057D01*
X148866327Y-98521808D01*
X148522799Y-98379162D01*
X148150833Y-98378838D01*
X147807057Y-98520883D01*
X147773882Y-98554000D01*
X145618802Y-98554000D01*
X144782440Y-97717638D01*
X144782440Y-97280000D01*
X146159897Y-97280000D01*
X146131162Y-97349201D01*
X146130838Y-97721167D01*
X146272883Y-98064943D01*
X146535673Y-98328192D01*
X146879201Y-98470838D01*
X147251167Y-98471162D01*
X147594943Y-98329117D01*
X147858192Y-98066327D01*
X147909395Y-97943017D01*
X148030000Y-97967440D01*
X150630000Y-97967440D01*
X150865317Y-97923162D01*
X151081441Y-97784090D01*
X151127969Y-97715994D01*
X151270302Y-97858327D01*
X151503691Y-97955000D01*
X152644250Y-97955000D01*
X152803000Y-97796250D01*
X152803000Y-96647000D01*
X153057000Y-96647000D01*
X153057000Y-97796250D01*
X153215750Y-97955000D01*
X154356309Y-97955000D01*
X154589698Y-97858327D01*
X154768327Y-97679699D01*
X154865000Y-97446310D01*
X154865000Y-96805750D01*
X154706250Y-96647000D01*
X153057000Y-96647000D01*
X152803000Y-96647000D01*
X152783000Y-96647000D01*
X152783000Y-96393000D01*
X152803000Y-96393000D01*
X152803000Y-95243750D01*
X153057000Y-95243750D01*
X153057000Y-96393000D01*
X154706250Y-96393000D01*
X154865000Y-96234250D01*
X154865000Y-95593690D01*
X154768327Y-95360301D01*
X154589698Y-95181673D01*
X154356309Y-95085000D01*
X153215750Y-95085000D01*
X153057000Y-95243750D01*
X152803000Y-95243750D01*
X152644250Y-95085000D01*
X151503691Y-95085000D01*
X151270302Y-95181673D01*
X151129064Y-95322910D01*
X151094090Y-95268559D01*
X150881890Y-95123569D01*
X150630000Y-95072560D01*
X148957362Y-95072560D01*
X148597401Y-94712599D01*
X148350839Y-94547852D01*
X148060000Y-94490000D01*
X147210103Y-94490000D01*
X147238838Y-94420799D01*
X147239162Y-94048833D01*
X147097117Y-93705057D01*
X146834327Y-93441808D01*
X146490799Y-93299162D01*
X146118833Y-93298838D01*
X145775057Y-93440883D01*
X145511808Y-93703673D01*
X145369162Y-94047201D01*
X145369121Y-94094077D01*
X144714808Y-94748390D01*
X144599090Y-94568559D01*
X144386890Y-94423569D01*
X144135000Y-94372560D01*
X142885000Y-94372560D01*
X142649683Y-94416838D01*
X142433559Y-94555910D01*
X142288569Y-94768110D01*
X142237560Y-95020000D01*
X142237560Y-95760000D01*
X142040463Y-95760000D01*
X142008327Y-95727808D01*
X141664799Y-95585162D01*
X141292833Y-95584838D01*
X140949057Y-95726883D01*
X140685808Y-95989673D01*
X140543162Y-96333201D01*
X140542838Y-96705167D01*
X140684883Y-97048943D01*
X140947673Y-97312192D01*
X141291201Y-97454838D01*
X141663167Y-97455162D01*
X142006943Y-97313117D01*
X142040118Y-97280000D01*
X142237560Y-97280000D01*
X142237560Y-98020000D01*
X142281838Y-98255317D01*
X142420910Y-98471441D01*
X142633110Y-98616431D01*
X142885000Y-98667440D01*
X143582638Y-98667440D01*
X144766599Y-99851401D01*
X145013161Y-100016148D01*
X145304000Y-100074000D01*
X147773537Y-100074000D01*
X147805673Y-100106192D01*
X147952471Y-100167148D01*
X147794683Y-100196838D01*
X147578559Y-100335910D01*
X147433569Y-100548110D01*
X147382560Y-100800000D01*
X147382560Y-101602000D01*
X138595202Y-101602000D01*
X138695317Y-101583162D01*
X138911441Y-101444090D01*
X139056431Y-101231890D01*
X139085164Y-101090000D01*
X139645537Y-101090000D01*
X139677673Y-101122192D01*
X140021201Y-101264838D01*
X140393167Y-101265162D01*
X140736943Y-101123117D01*
X141000192Y-100860327D01*
X141142838Y-100516799D01*
X141143162Y-100144833D01*
X141001117Y-99801057D01*
X140738327Y-99537808D01*
X140394799Y-99395162D01*
X140065351Y-99394875D01*
X140126838Y-99246799D01*
X140127162Y-98874833D01*
X139985117Y-98531057D01*
X139722327Y-98267808D01*
X139600294Y-98217135D01*
X139631167Y-98217162D01*
X139974943Y-98075117D01*
X140238192Y-97812327D01*
X140380838Y-97468799D01*
X140381162Y-97096833D01*
X140239117Y-96753057D01*
X139976327Y-96489808D01*
X139632799Y-96347162D01*
X139585923Y-96347121D01*
X139221401Y-95982599D01*
X139107440Y-95906453D01*
X139107440Y-95870000D01*
X139063162Y-95634683D01*
X138924090Y-95418559D01*
X138739499Y-95292434D01*
X138709810Y-95248000D01*
X140153537Y-95248000D01*
X140185673Y-95280192D01*
X140529201Y-95422838D01*
X140901167Y-95423162D01*
X141244943Y-95281117D01*
X141508192Y-95018327D01*
X141650838Y-94674799D01*
X141651162Y-94302833D01*
X141509117Y-93959057D01*
X141246327Y-93695808D01*
X140902799Y-93553162D01*
X140530833Y-93552838D01*
X140187057Y-93694883D01*
X140153882Y-93728000D01*
X138977096Y-93728000D01*
X139056431Y-93611890D01*
X139107440Y-93360000D01*
X139107440Y-93323547D01*
X139221401Y-93247401D01*
X139879917Y-92588885D01*
X139945910Y-92691441D01*
X140158110Y-92836431D01*
X140410000Y-92887440D01*
X143010000Y-92887440D01*
X143245317Y-92843162D01*
X143461441Y-92704090D01*
X143507969Y-92635994D01*
X143650302Y-92778327D01*
X143883691Y-92875000D01*
X145024250Y-92875000D01*
X145183000Y-92716250D01*
X145183000Y-91567000D01*
X145437000Y-91567000D01*
X145437000Y-92716250D01*
X145595750Y-92875000D01*
X146736309Y-92875000D01*
X146969698Y-92778327D01*
X147148327Y-92599699D01*
X147245000Y-92366310D01*
X147245000Y-91725750D01*
X147086250Y-91567000D01*
X145437000Y-91567000D01*
X145183000Y-91567000D01*
X145163000Y-91567000D01*
X145163000Y-91313000D01*
X145183000Y-91313000D01*
X145183000Y-91293000D01*
X145437000Y-91293000D01*
X145437000Y-91313000D01*
X147086250Y-91313000D01*
X147245000Y-91154250D01*
X147245000Y-90851157D01*
X147251167Y-90851162D01*
X147594943Y-90709117D01*
X147655024Y-90649140D01*
X147654838Y-90863167D01*
X147796883Y-91206943D01*
X148059673Y-91470192D01*
X148403201Y-91612838D01*
X148775167Y-91613162D01*
X149118943Y-91471117D01*
X149382192Y-91208327D01*
X149524838Y-90864799D01*
X149525162Y-90492833D01*
X149383117Y-90149057D01*
X149350000Y-90115882D01*
X149350000Y-89660000D01*
X152603889Y-89660000D01*
X152369808Y-89893673D01*
X152227162Y-90237201D01*
X152227121Y-90284077D01*
X151752320Y-90758878D01*
X151706833Y-90758838D01*
X151363057Y-90900883D01*
X151099808Y-91163673D01*
X150957162Y-91507201D01*
X150956838Y-91879167D01*
X151098883Y-92222943D01*
X151361673Y-92486192D01*
X151705201Y-92628838D01*
X152077167Y-92629162D01*
X152165818Y-92592532D01*
X156357073Y-92592532D01*
X156455736Y-92859387D01*
X157065461Y-93085908D01*
X157715460Y-93061856D01*
X158204264Y-92859387D01*
X158302927Y-92592532D01*
X157330000Y-91619605D01*
X156357073Y-92592532D01*
X152165818Y-92592532D01*
X152420943Y-92487117D01*
X152684192Y-92224327D01*
X152826838Y-91880799D01*
X152826879Y-91833923D01*
X153301680Y-91359122D01*
X153347167Y-91359162D01*
X153690943Y-91217117D01*
X153732671Y-91175461D01*
X155684092Y-91175461D01*
X155708144Y-91825460D01*
X155910613Y-92314264D01*
X156177468Y-92412927D01*
X157150395Y-91440000D01*
X157509605Y-91440000D01*
X158482532Y-92412927D01*
X158749387Y-92314264D01*
X158975908Y-91704539D01*
X158956331Y-91175461D01*
X162184092Y-91175461D01*
X162208144Y-91825460D01*
X162410613Y-92314264D01*
X162677468Y-92412927D01*
X163650395Y-91440000D01*
X162677468Y-90467073D01*
X162410613Y-90565736D01*
X162184092Y-91175461D01*
X158956331Y-91175461D01*
X158951856Y-91054540D01*
X158749387Y-90565736D01*
X158482532Y-90467073D01*
X157509605Y-91440000D01*
X157150395Y-91440000D01*
X156177468Y-90467073D01*
X155910613Y-90565736D01*
X155684092Y-91175461D01*
X153732671Y-91175461D01*
X153954192Y-90954327D01*
X154096838Y-90610799D01*
X154097119Y-90287468D01*
X156357073Y-90287468D01*
X157330000Y-91260395D01*
X158302927Y-90287468D01*
X162857073Y-90287468D01*
X163830000Y-91260395D01*
X164802927Y-90287468D01*
X164704264Y-90020613D01*
X164094539Y-89794092D01*
X163444540Y-89818144D01*
X162955736Y-90020613D01*
X162857073Y-90287468D01*
X158302927Y-90287468D01*
X158204264Y-90020613D01*
X157594539Y-89794092D01*
X156944540Y-89818144D01*
X156455736Y-90020613D01*
X156357073Y-90287468D01*
X154097119Y-90287468D01*
X154097162Y-90238833D01*
X153955117Y-89895057D01*
X153720470Y-89660000D01*
X155370000Y-89660000D01*
X155660839Y-89602148D01*
X155907401Y-89437401D01*
X156838527Y-88506275D01*
X157003352Y-88574716D01*
X157653795Y-88575284D01*
X158254943Y-88326894D01*
X158715278Y-87867363D01*
X158784773Y-87700000D01*
X162374953Y-87700000D01*
X162443106Y-87864943D01*
X162902637Y-88325278D01*
X163503352Y-88574716D01*
X164153795Y-88575284D01*
X164754943Y-88326894D01*
X165215278Y-87867363D01*
X165464716Y-87266648D01*
X165465284Y-86616205D01*
X165216894Y-86015057D01*
X164757363Y-85554722D01*
X164590000Y-85485227D01*
X164590000Y-83874463D01*
X164622192Y-83842327D01*
X164764838Y-83498799D01*
X164765162Y-83126833D01*
X164623117Y-82783057D01*
X164360327Y-82519808D01*
X164016799Y-82377162D01*
X163644833Y-82376838D01*
X163301057Y-82518883D01*
X163037808Y-82781673D01*
X162895162Y-83125201D01*
X162894838Y-83497167D01*
X163036883Y-83840943D01*
X163070000Y-83874118D01*
X163070000Y-85484953D01*
X162905057Y-85553106D01*
X162444722Y-86012637D01*
X162375227Y-86180000D01*
X158785047Y-86180000D01*
X158716894Y-86015057D01*
X158257363Y-85554722D01*
X157656648Y-85305284D01*
X157006205Y-85304716D01*
X156405057Y-85553106D01*
X155944722Y-86012637D01*
X155695284Y-86613352D01*
X155694716Y-87263795D01*
X155763919Y-87431279D01*
X155055198Y-88140000D01*
X149350000Y-88140000D01*
X149350000Y-88138000D01*
X149306804Y-87920839D01*
X149292148Y-87847160D01*
X149127401Y-87600599D01*
X147857401Y-86330599D01*
X147610839Y-86165852D01*
X147320000Y-86108000D01*
X141986000Y-86108000D01*
X141695161Y-86165852D01*
X141448599Y-86330599D01*
X141222000Y-86557198D01*
X141222000Y-79552111D01*
X141226000Y-79556118D01*
X141226000Y-81788000D01*
X141283852Y-82078839D01*
X141448599Y-82325401D01*
X144098878Y-84975680D01*
X144098838Y-85021167D01*
X144240883Y-85364943D01*
X144503673Y-85628192D01*
X144847201Y-85770838D01*
X145219167Y-85771162D01*
X145562943Y-85629117D01*
X145826192Y-85366327D01*
X145968838Y-85022799D01*
X145969162Y-84650833D01*
X145827117Y-84307057D01*
X145564327Y-84043808D01*
X145220799Y-83901162D01*
X145173923Y-83901121D01*
X142746000Y-81473198D01*
X142746000Y-79675802D01*
X144102560Y-81032362D01*
X144102560Y-81930000D01*
X144146838Y-82165317D01*
X144285910Y-82381441D01*
X144498110Y-82526431D01*
X144750000Y-82577440D01*
X145450000Y-82577440D01*
X145685317Y-82533162D01*
X145901441Y-82394090D01*
X146046431Y-82181890D01*
X146049081Y-82168803D01*
X146185910Y-82381441D01*
X146398110Y-82526431D01*
X146650000Y-82577440D01*
X147350000Y-82577440D01*
X147585317Y-82533162D01*
X147801441Y-82394090D01*
X147946431Y-82181890D01*
X147981239Y-82010000D01*
X150752560Y-82010000D01*
X150752560Y-86510000D01*
X150796838Y-86745317D01*
X150935910Y-86961441D01*
X151148110Y-87106431D01*
X151400000Y-87157440D01*
X153400000Y-87157440D01*
X153635317Y-87113162D01*
X153851441Y-86974090D01*
X153996431Y-86761890D01*
X154047440Y-86510000D01*
X154047440Y-85020000D01*
X154055656Y-85020000D01*
X154155673Y-85120192D01*
X154499201Y-85262838D01*
X154871167Y-85263162D01*
X155214943Y-85121117D01*
X155478192Y-84858327D01*
X155620838Y-84514799D01*
X155621162Y-84142833D01*
X155479117Y-83799057D01*
X155216327Y-83535808D01*
X154872799Y-83393162D01*
X154500833Y-83392838D01*
X154241481Y-83500000D01*
X154047440Y-83500000D01*
X154047440Y-82010000D01*
X154003162Y-81774683D01*
X153864090Y-81558559D01*
X153651890Y-81413569D01*
X153400000Y-81362560D01*
X151400000Y-81362560D01*
X151164683Y-81406838D01*
X150948559Y-81545910D01*
X150803569Y-81758110D01*
X150752560Y-82010000D01*
X147981239Y-82010000D01*
X147997440Y-81930000D01*
X147997440Y-81677362D01*
X148729680Y-80945122D01*
X148775167Y-80945162D01*
X149118943Y-80803117D01*
X149382192Y-80540327D01*
X149524838Y-80196799D01*
X149525162Y-79824833D01*
X149383117Y-79481057D01*
X149120327Y-79217808D01*
X148776799Y-79075162D01*
X148404833Y-79074838D01*
X148061057Y-79216883D01*
X147797808Y-79479673D01*
X147655162Y-79823201D01*
X147655121Y-79870077D01*
X147510197Y-80015001D01*
X147350000Y-79982560D01*
X146650000Y-79982560D01*
X146414683Y-80026838D01*
X146198559Y-80165910D01*
X146053569Y-80378110D01*
X146050919Y-80391197D01*
X145914090Y-80178559D01*
X145701890Y-80033569D01*
X145450000Y-79982560D01*
X145202362Y-79982560D01*
X144132903Y-78913101D01*
X144203167Y-78913162D01*
X144546943Y-78771117D01*
X144584250Y-78733875D01*
X144750000Y-78767440D01*
X145450000Y-78767440D01*
X145685317Y-78723162D01*
X145901441Y-78584090D01*
X146046431Y-78371890D01*
X146049081Y-78358803D01*
X146185910Y-78571441D01*
X146398110Y-78716431D01*
X146650000Y-78767440D01*
X147350000Y-78767440D01*
X147585317Y-78723162D01*
X147801441Y-78584090D01*
X147946431Y-78371890D01*
X147997440Y-78120000D01*
X147997440Y-77867362D01*
X148475680Y-77389122D01*
X148521167Y-77389162D01*
X148864943Y-77247117D01*
X149128192Y-76984327D01*
X149270838Y-76640799D01*
X149271162Y-76268833D01*
X149129117Y-75925057D01*
X148866327Y-75661808D01*
X148522799Y-75519162D01*
X148150833Y-75518838D01*
X147807057Y-75660883D01*
X147543808Y-75923673D01*
X147433444Y-76189458D01*
X147350000Y-76172560D01*
X146650000Y-76172560D01*
X146414683Y-76216838D01*
X146198559Y-76355910D01*
X146053569Y-76568110D01*
X146050919Y-76581197D01*
X145914090Y-76368559D01*
X145701890Y-76223569D01*
X145540000Y-76190785D01*
X145540000Y-75692000D01*
X145482148Y-75401161D01*
X145317401Y-75154599D01*
X144910401Y-74747599D01*
X144663839Y-74582852D01*
X144373000Y-74525000D01*
X143552440Y-74525000D01*
X143552440Y-74410000D01*
X143539020Y-74338677D01*
X143540000Y-74336310D01*
X143540000Y-74256250D01*
X143519688Y-74235938D01*
X143508162Y-74174683D01*
X143384671Y-73982773D01*
X143501431Y-73811890D01*
X143516558Y-73737192D01*
X143540000Y-73713750D01*
X143540000Y-73633690D01*
X143538333Y-73629665D01*
X143552440Y-73560000D01*
X143552440Y-73510000D01*
X150752560Y-73510000D01*
X150752560Y-78010000D01*
X150796838Y-78245317D01*
X150935910Y-78461441D01*
X151148110Y-78606431D01*
X151400000Y-78657440D01*
X153400000Y-78657440D01*
X153635317Y-78613162D01*
X153851441Y-78474090D01*
X153996431Y-78261890D01*
X154047440Y-78010000D01*
X154047440Y-73510000D01*
X154020734Y-73368068D01*
X154317680Y-73071122D01*
X154363167Y-73071162D01*
X154706943Y-72929117D01*
X154970192Y-72666327D01*
X155112838Y-72322799D01*
X155113162Y-71950833D01*
X154971117Y-71607057D01*
X154708327Y-71343808D01*
X154364799Y-71201162D01*
X153992833Y-71200838D01*
X153649057Y-71342883D01*
X153385808Y-71605673D01*
X153243162Y-71949201D01*
X153243121Y-71996077D01*
X152376638Y-72862560D01*
X151400000Y-72862560D01*
X151164683Y-72906838D01*
X150948559Y-73045910D01*
X150803569Y-73258110D01*
X150752560Y-73510000D01*
X143552440Y-73510000D01*
X143552440Y-73110000D01*
X143532933Y-73006329D01*
X143552440Y-72910000D01*
X143552440Y-72460000D01*
X143532933Y-72356329D01*
X143552440Y-72260000D01*
X143552440Y-71810000D01*
X143532933Y-71706329D01*
X143552440Y-71610000D01*
X143552440Y-71160000D01*
X143532933Y-71056329D01*
X143552440Y-70960000D01*
X143552440Y-70510000D01*
X143532933Y-70406329D01*
X143552440Y-70310000D01*
X143552440Y-69860000D01*
X143532933Y-69756329D01*
X143552440Y-69660000D01*
X143552440Y-69210000D01*
X143508162Y-68974683D01*
X143369090Y-68758559D01*
X143156890Y-68613569D01*
X142905000Y-68562560D01*
X141155000Y-68562560D01*
X140919683Y-68606838D01*
X140703559Y-68745910D01*
X140558569Y-68958110D01*
X140507560Y-69210000D01*
X140507560Y-69660000D01*
X140527067Y-69763671D01*
X140507560Y-69860000D01*
X140507560Y-70310000D01*
X140527067Y-70413671D01*
X140507560Y-70510000D01*
X140507560Y-70960000D01*
X140527067Y-71063671D01*
X140507560Y-71160000D01*
X140507560Y-71247985D01*
X140394799Y-71201162D01*
X140347923Y-71201121D01*
X139344401Y-70197599D01*
X139097839Y-70032852D01*
X138807000Y-69975000D01*
X136352440Y-69975000D01*
X136352440Y-69860000D01*
X136332933Y-69756329D01*
X136352440Y-69660000D01*
X136352440Y-69210000D01*
X136308162Y-68974683D01*
X136169090Y-68758559D01*
X135956890Y-68613569D01*
X135705000Y-68562560D01*
X135032362Y-68562560D01*
X134004401Y-67534599D01*
X133757839Y-67369852D01*
X133467000Y-67312000D01*
X131490999Y-67312000D01*
X131491162Y-67124833D01*
X131349117Y-66781057D01*
X131086327Y-66517808D01*
X130742799Y-66375162D01*
X130695923Y-66375121D01*
X127947802Y-63627000D01*
X128474628Y-63627000D01*
X128787155Y-64383372D01*
X128787155Y-64383372D01*
G37*
X128787155Y-64383372D02*
X129415321Y-65012636D01*
X130236481Y-65353611D01*
X131125619Y-65354387D01*
X131947372Y-65014845D01*
X132576636Y-64386679D01*
X132863130Y-63696725D01*
X132867039Y-63716378D01*
X133188946Y-64198147D01*
X133670715Y-64520054D01*
X134239000Y-64633093D01*
X134605408Y-64560210D01*
X136114599Y-66069401D01*
X136134802Y-66082900D01*
X136375673Y-66324192D01*
X136719201Y-66466838D01*
X137091167Y-66467162D01*
X137434943Y-66325117D01*
X137698192Y-66062327D01*
X137840838Y-65718799D01*
X137840904Y-65643259D01*
X137989201Y-65704838D01*
X138361167Y-65705162D01*
X138704943Y-65563117D01*
X138968192Y-65300327D01*
X139110838Y-64956799D01*
X139111156Y-64591750D01*
X139319000Y-64633093D01*
X139887285Y-64520054D01*
X140369054Y-64198147D01*
X140596702Y-63857447D01*
X140663817Y-64000358D01*
X141092076Y-64390645D01*
X141502110Y-64560476D01*
X141732000Y-64439155D01*
X141732000Y-63627000D01*
X141986000Y-63627000D01*
X141986000Y-64439155D01*
X142215890Y-64560476D01*
X142625924Y-64390645D01*
X143054183Y-64000358D01*
X143121298Y-63857447D01*
X143348946Y-64198147D01*
X143639000Y-64391954D01*
X143639000Y-64897000D01*
X143696852Y-65187839D01*
X143861599Y-65434401D01*
X145114878Y-66687680D01*
X145114838Y-66733167D01*
X145256883Y-67076943D01*
X145519673Y-67340192D01*
X145863201Y-67482838D01*
X146235167Y-67483162D01*
X146578943Y-67341117D01*
X146842192Y-67078327D01*
X146984838Y-66734799D01*
X146985162Y-66362833D01*
X146921178Y-66207980D01*
X148162878Y-67449680D01*
X148162838Y-67495167D01*
X148304883Y-67838943D01*
X148567673Y-68102192D01*
X148911201Y-68244838D01*
X149283167Y-68245162D01*
X149626943Y-68103117D01*
X149890192Y-67840327D01*
X150032838Y-67496799D01*
X150033162Y-67124833D01*
X149891117Y-66781057D01*
X149628327Y-66517808D01*
X149284799Y-66375162D01*
X149237923Y-66375121D01*
X147699000Y-64836198D01*
X147699000Y-64391954D01*
X147989054Y-64198147D01*
X148209000Y-63868974D01*
X148428946Y-64198147D01*
X148910715Y-64520054D01*
X149479000Y-64633093D01*
X150047285Y-64520054D01*
X150529054Y-64198147D01*
X150749000Y-63868974D01*
X150968946Y-64198147D01*
X151450715Y-64520054D01*
X152019000Y-64633093D01*
X152587285Y-64520054D01*
X153069054Y-64198147D01*
X153289000Y-63868974D01*
X153508946Y-64198147D01*
X153990715Y-64520054D01*
X154559000Y-64633093D01*
X155127285Y-64520054D01*
X155609054Y-64198147D01*
X155636850Y-64156548D01*
X155645838Y-64204317D01*
X155784910Y-64420441D01*
X155997110Y-64565431D01*
X156249000Y-64616440D01*
X157521638Y-64616440D01*
X161231198Y-68326000D01*
X154656599Y-74900599D01*
X154491852Y-75147161D01*
X154434000Y-75438000D01*
X154434000Y-75946000D01*
X154491852Y-76236839D01*
X154656599Y-76483401D01*
X160244599Y-82071401D01*
X160491160Y-82236148D01*
X160782000Y-82294000D01*
X165550314Y-82294000D01*
X165841153Y-82236148D01*
X166087715Y-82071401D01*
X166405860Y-81753257D01*
X166628599Y-81975996D01*
X166737473Y-82050387D01*
X166805375Y-82152772D01*
X167028114Y-82375511D01*
X166264717Y-83138908D01*
X166184833Y-83138838D01*
X165841057Y-83280883D01*
X165577808Y-83543673D01*
X165435162Y-83887201D01*
X165434838Y-84259167D01*
X165576883Y-84602943D01*
X165839673Y-84866192D01*
X166183201Y-85008838D01*
X166555167Y-85009162D01*
X166898943Y-84867117D01*
X167162192Y-84604327D01*
X167304838Y-84260799D01*
X167304849Y-84248380D01*
X168102916Y-83450313D01*
X168325655Y-83673052D01*
X168523358Y-83808137D01*
X168774520Y-83862621D01*
X168874926Y-83843728D01*
X168932217Y-83901019D01*
X168724833Y-83900838D01*
X168381057Y-84042883D01*
X168117808Y-84305673D01*
X167975162Y-84649201D01*
X167974838Y-85021167D01*
X168116883Y-85364943D01*
X168150000Y-85398118D01*
X168150000Y-85960453D01*
X167873057Y-86074883D01*
X167844853Y-86103038D01*
X167754890Y-86041569D01*
X167503000Y-85990560D01*
X166253000Y-85990560D01*
X166017683Y-86034838D01*
X165801559Y-86173910D01*
X165656569Y-86386110D01*
X165605560Y-86638000D01*
X165605560Y-87638000D01*
X165649838Y-87873317D01*
X165788910Y-88089441D01*
X165857006Y-88135969D01*
X165714673Y-88278302D01*
X165618000Y-88511691D01*
X165618000Y-88852250D01*
X165776750Y-89011000D01*
X166751000Y-89011000D01*
X166751000Y-88991000D01*
X167005000Y-88991000D01*
X167005000Y-89011000D01*
X167025000Y-89011000D01*
X167025000Y-89265000D01*
X167005000Y-89265000D01*
X167005000Y-89285000D01*
X166751000Y-89285000D01*
X166751000Y-89265000D01*
X165776750Y-89265000D01*
X165618000Y-89423750D01*
X165618000Y-89764309D01*
X165714673Y-89997698D01*
X165893301Y-90176327D01*
X166126690Y-90273000D01*
X166592250Y-90273000D01*
X166750998Y-90114252D01*
X166750998Y-90273000D01*
X166841800Y-90273000D01*
X165473566Y-91641234D01*
X165451856Y-91054540D01*
X165249387Y-90565736D01*
X164982532Y-90467073D01*
X164009605Y-91440000D01*
X164023748Y-91454143D01*
X163844143Y-91633748D01*
X163830000Y-91619605D01*
X162857073Y-92592532D01*
X162955736Y-92859387D01*
X163565461Y-93085908D01*
X163911125Y-93073117D01*
X163910838Y-93403167D01*
X164045056Y-93728000D01*
X157937000Y-93728000D01*
X157646160Y-93785852D01*
X157399599Y-93950599D01*
X156819500Y-94530698D01*
X156129122Y-93840320D01*
X156129162Y-93794833D01*
X155987117Y-93451057D01*
X155724327Y-93187808D01*
X155380799Y-93045162D01*
X155008833Y-93044838D01*
X154665057Y-93186883D01*
X154401808Y-93449673D01*
X154259162Y-93793201D01*
X154258838Y-94165167D01*
X154400883Y-94508943D01*
X154663673Y-94772192D01*
X155007201Y-94914838D01*
X155054077Y-94914879D01*
X155306714Y-95167516D01*
X155193569Y-95333110D01*
X155142560Y-95585000D01*
X155142560Y-96185000D01*
X155186838Y-96420317D01*
X155250678Y-96519528D01*
X155193569Y-96603110D01*
X155142560Y-96855000D01*
X155142560Y-97455000D01*
X155186838Y-97690317D01*
X155250678Y-97789528D01*
X155193569Y-97873110D01*
X155142560Y-98125000D01*
X155142560Y-98725000D01*
X155186838Y-98960317D01*
X155245178Y-99050980D01*
X155155000Y-99268690D01*
X155155000Y-99409250D01*
X155313750Y-99568000D01*
X156413000Y-99568000D01*
X156413000Y-99548000D01*
X156667000Y-99548000D01*
X156667000Y-99568000D01*
X157766250Y-99568000D01*
X157925000Y-99409250D01*
X157925000Y-99312000D01*
X158949537Y-99312000D01*
X158981673Y-99344192D01*
X159325201Y-99486838D01*
X159697167Y-99487162D01*
X160040943Y-99345117D01*
X160304192Y-99082327D01*
X160446838Y-98738799D01*
X160447162Y-98366833D01*
X160305117Y-98023057D01*
X160042327Y-97759808D01*
X159698799Y-97617162D01*
X159326833Y-97616838D01*
X158983057Y-97758883D01*
X158949882Y-97792000D01*
X157995340Y-97792000D01*
X158144401Y-97692401D01*
X158889680Y-96947122D01*
X158935167Y-96947162D01*
X159278943Y-96805117D01*
X159542192Y-96542327D01*
X159684838Y-96198799D01*
X159685162Y-95826833D01*
X159543117Y-95483057D01*
X159308470Y-95248000D01*
X164328198Y-95248000D01*
X164646372Y-95566174D01*
X164642560Y-95585000D01*
X164642560Y-96185000D01*
X164686838Y-96420317D01*
X164750678Y-96519528D01*
X164693569Y-96603110D01*
X164642560Y-96855000D01*
X164642560Y-97455000D01*
X164686838Y-97690317D01*
X164750678Y-97789528D01*
X164693569Y-97873110D01*
X164642560Y-98125000D01*
X164642560Y-98725000D01*
X164686838Y-98960317D01*
X164745178Y-99050980D01*
X164655000Y-99268690D01*
X164655000Y-99409250D01*
X164813750Y-99568000D01*
X165913000Y-99568000D01*
X165913000Y-99548000D01*
X166167000Y-99548000D01*
X166167000Y-99568000D01*
X167266250Y-99568000D01*
X167425000Y-99409250D01*
X167425000Y-99268690D01*
X167335194Y-99051878D01*
X167386431Y-98976890D01*
X167437440Y-98725000D01*
X167437440Y-98125000D01*
X167393162Y-97889683D01*
X167349258Y-97821455D01*
X167542401Y-97692401D01*
X167572998Y-97661804D01*
X167572998Y-105236941D01*
X167454833Y-105236838D01*
X167400086Y-105259459D01*
X167437440Y-105075000D01*
X167437440Y-104475000D01*
X167393162Y-104239683D01*
X167329322Y-104140472D01*
X167386431Y-104056890D01*
X167437440Y-103805000D01*
X167437440Y-103205000D01*
X167393162Y-102969683D01*
X167334822Y-102879020D01*
X167425000Y-102661310D01*
X167425000Y-102520750D01*
X167266250Y-102362000D01*
X166167000Y-102362000D01*
X166167000Y-102382000D01*
X165913000Y-102382000D01*
X165913000Y-102362000D01*
X164813750Y-102362000D01*
X164655000Y-102520750D01*
X164655000Y-102661310D01*
X164744806Y-102878122D01*
X164693569Y-102953110D01*
X164690797Y-102966799D01*
X164689599Y-102967599D01*
X161544000Y-106113198D01*
X159668401Y-104237599D01*
X159421839Y-104072852D01*
X159131000Y-104015000D01*
X157890334Y-104015000D01*
X157925000Y-103931310D01*
X157925000Y-103790750D01*
X157766250Y-103632000D01*
X156667000Y-103632000D01*
X156667000Y-103652000D01*
X156413000Y-103652000D01*
X156413000Y-103632000D01*
X155313750Y-103632000D01*
X155155000Y-103790750D01*
X155155000Y-103931310D01*
X155244806Y-104148122D01*
X155193569Y-104223110D01*
X155142560Y-104475000D01*
X155142560Y-105075000D01*
X155186838Y-105310317D01*
X155250678Y-105409528D01*
X155193569Y-105493110D01*
X155142560Y-105745000D01*
X155142560Y-106345000D01*
X155186838Y-106580317D01*
X155250678Y-106679528D01*
X155193569Y-106763110D01*
X155142560Y-107015000D01*
X155142560Y-107615000D01*
X155186838Y-107850317D01*
X155325910Y-108066441D01*
X155538110Y-108211431D01*
X155790000Y-108262440D01*
X157290000Y-108262440D01*
X157525317Y-108218162D01*
X157741441Y-108079090D01*
X157744236Y-108075000D01*
X157806759Y-108075000D01*
X157965673Y-108234192D01*
X158309201Y-108376838D01*
X158681167Y-108377162D01*
X159024943Y-108235117D01*
X159288192Y-107972327D01*
X159430838Y-107628799D01*
X159431162Y-107256833D01*
X159289117Y-106913057D01*
X159183290Y-106807046D01*
X159288192Y-106702327D01*
X159430838Y-106358799D01*
X159431020Y-106149822D01*
X163800599Y-110519401D01*
X164047161Y-110684148D01*
X164338000Y-110742000D01*
X164745560Y-110742000D01*
X164745560Y-111944863D01*
X162660440Y-111986565D01*
X162660440Y-110529000D01*
X162616162Y-110293683D01*
X162477090Y-110077559D01*
X162264890Y-109932569D01*
X162013000Y-109881560D01*
X160313000Y-109881560D01*
X160077683Y-109925838D01*
X159861559Y-110064910D01*
X159716569Y-110277110D01*
X159694699Y-110385107D01*
X159389924Y-110107355D01*
X158979890Y-109937524D01*
X158750000Y-110058845D01*
X158750000Y-111252000D01*
X158770000Y-111252000D01*
X158770000Y-111506000D01*
X158750000Y-111506000D01*
X158750000Y-111526000D01*
X158496000Y-111526000D01*
X158496000Y-111506000D01*
X156210000Y-111506000D01*
X156210000Y-111526000D01*
X155956000Y-111526000D01*
X155956000Y-111506000D01*
X155936000Y-111506000D01*
X155936000Y-111252000D01*
X155956000Y-111252000D01*
X155956000Y-110058845D01*
X156210000Y-110058845D01*
X156210000Y-111252000D01*
X158496000Y-111252000D01*
X158496000Y-110058845D01*
X158266110Y-109937524D01*
X157856076Y-110107355D01*
X157427817Y-110497642D01*
X157353000Y-110656954D01*
X157278183Y-110497642D01*
X156849924Y-110107355D01*
X156439890Y-109937524D01*
X156210000Y-110058845D01*
X155956000Y-110058845D01*
X155726110Y-109937524D01*
X155316076Y-110107355D01*
X154887817Y-110497642D01*
X154820702Y-110640553D01*
X154593054Y-110299853D01*
X154111285Y-109977946D01*
X153543000Y-109864907D01*
X152974715Y-109977946D01*
X152733765Y-110138944D01*
X152826838Y-109914799D01*
X152827162Y-109542833D01*
X152685117Y-109199057D01*
X152422327Y-108935808D01*
X152078799Y-108793162D01*
X151706833Y-108792838D01*
X151363057Y-108934883D01*
X151099808Y-109197673D01*
X150957162Y-109541201D01*
X150957121Y-109588077D01*
X150600161Y-109945037D01*
X150434715Y-109977946D01*
X149952946Y-110299853D01*
X149733000Y-110629026D01*
X149513054Y-110299853D01*
X149031285Y-109977946D01*
X148463000Y-109864907D01*
X147894715Y-109977946D01*
X147412946Y-110299853D01*
X147193000Y-110629026D01*
X146973054Y-110299853D01*
X146491285Y-109977946D01*
X145923000Y-109864907D01*
X145354715Y-109977946D01*
X144872946Y-110299853D01*
X144653000Y-110629026D01*
X144433054Y-110299853D01*
X143951285Y-109977946D01*
X143383000Y-109864907D01*
X142814715Y-109977946D01*
X142332946Y-110299853D01*
X142011039Y-110781622D01*
X141898000Y-111349907D01*
X141898000Y-111408093D01*
X142011039Y-111976378D01*
X142290066Y-112393973D01*
X131320469Y-112613365D01*
X131647611Y-111825519D01*
X131648387Y-110936381D01*
X131308845Y-110114628D01*
X130680679Y-109485364D01*
X129859519Y-109144389D01*
X128970381Y-109143613D01*
X128148628Y-109483155D01*
X127519364Y-110111321D01*
X127178389Y-110932481D01*
X127177613Y-111821619D01*
X127517155Y-112643372D01*
X127562234Y-112688529D01*
X120122440Y-112837325D01*
X120122440Y-111820000D01*
X120078162Y-111584683D01*
X119939090Y-111368559D01*
X119726890Y-111223569D01*
X119475000Y-111172560D01*
X116967000Y-111172560D01*
X116967000Y-110505750D01*
X121140000Y-110505750D01*
X121140000Y-110846309D01*
X121236673Y-111079698D01*
X121415301Y-111258327D01*
X121648690Y-111355000D01*
X123239250Y-111355000D01*
X123398000Y-111196250D01*
X123398000Y-110347000D01*
X123652000Y-110347000D01*
X123652000Y-111196250D01*
X123810750Y-111355000D01*
X125401310Y-111355000D01*
X125634699Y-111258327D01*
X125813327Y-111079698D01*
X125910000Y-110846309D01*
X125910000Y-110505750D01*
X125751250Y-110347000D01*
X123652000Y-110347000D01*
X123398000Y-110347000D01*
X121298750Y-110347000D01*
X121140000Y-110505750D01*
X116967000Y-110505750D01*
X116967000Y-107267440D01*
X119475000Y-107267440D01*
X119710317Y-107223162D01*
X119926441Y-107084090D01*
X119950563Y-107048786D01*
X120119673Y-107218192D01*
X120463201Y-107360838D01*
X120510077Y-107360879D01*
X121127560Y-107978362D01*
X121127560Y-108720000D01*
X121171838Y-108955317D01*
X121310910Y-109171441D01*
X121379006Y-109217969D01*
X121236673Y-109360302D01*
X121140000Y-109593691D01*
X121140000Y-109934250D01*
X121298750Y-110093000D01*
X123398000Y-110093000D01*
X123398000Y-110073000D01*
X123652000Y-110073000D01*
X123652000Y-110093000D01*
X125751250Y-110093000D01*
X125910000Y-109934250D01*
X125910000Y-109593691D01*
X125813327Y-109360302D01*
X125672090Y-109219064D01*
X125726441Y-109184090D01*
X125871431Y-108971890D01*
X125922440Y-108720000D01*
X125922440Y-107720000D01*
X125878162Y-107484683D01*
X125739090Y-107268559D01*
X125526890Y-107123569D01*
X125275000Y-107072560D01*
X122371362Y-107072560D01*
X121585122Y-106286320D01*
X121585162Y-106240833D01*
X121443117Y-105897057D01*
X121180327Y-105633808D01*
X120836799Y-105491162D01*
X120464833Y-105490838D01*
X120122440Y-105632312D01*
X120122440Y-105120000D01*
X120078162Y-104884683D01*
X119939090Y-104668559D01*
X119726890Y-104523569D01*
X119475000Y-104472560D01*
X116967000Y-104472560D01*
X116967000Y-102897440D01*
X117510000Y-102897440D01*
X117745317Y-102853162D01*
X117961441Y-102714090D01*
X118106431Y-102501890D01*
X118109081Y-102488803D01*
X118245910Y-102701441D01*
X118458110Y-102846431D01*
X118710000Y-102897440D01*
X119410000Y-102897440D01*
X119645317Y-102853162D01*
X119861441Y-102714090D01*
X120006431Y-102501890D01*
X120035164Y-102360000D01*
X120872666Y-102360000D01*
X120886838Y-102435317D01*
X121025910Y-102651441D01*
X121238110Y-102796431D01*
X121490000Y-102847440D01*
X122690000Y-102847440D01*
X122925317Y-102803162D01*
X123141441Y-102664090D01*
X123187969Y-102595994D01*
X123330302Y-102738327D01*
X123563691Y-102835000D01*
X124004250Y-102835000D01*
X124163000Y-102676250D01*
X124163000Y-101727000D01*
X124143000Y-101727000D01*
X124143000Y-101473000D01*
X124163000Y-101473000D01*
X124163000Y-100523750D01*
X124004250Y-100365000D01*
X123563691Y-100365000D01*
X123330302Y-100461673D01*
X123189064Y-100602910D01*
X123154090Y-100548559D01*
X122941890Y-100403569D01*
X122690000Y-100352560D01*
X121490000Y-100352560D01*
X121254683Y-100396838D01*
X121038559Y-100535910D01*
X120893569Y-100748110D01*
X120874961Y-100840000D01*
X120036742Y-100840000D01*
X120013162Y-100714683D01*
X119874090Y-100498559D01*
X119661890Y-100353569D01*
X119410000Y-100302560D01*
X118710000Y-100302560D01*
X118474683Y-100346838D01*
X118258559Y-100485910D01*
X118113569Y-100698110D01*
X118110919Y-100711197D01*
X117974090Y-100498559D01*
X117920000Y-100461601D01*
X117920000Y-100324802D01*
X119064802Y-99180000D01*
X120171925Y-99180000D01*
X120703855Y-99074193D01*
X121154803Y-98772878D01*
X121456118Y-98321930D01*
X121561925Y-97790000D01*
X121456118Y-97258070D01*
X121301053Y-97026000D01*
X124412290Y-97026000D01*
X124265852Y-97245161D01*
X124208000Y-97536000D01*
X124208000Y-97735537D01*
X124175808Y-97767673D01*
X124033162Y-98111201D01*
X124032838Y-98483167D01*
X124174883Y-98826943D01*
X124437673Y-99090192D01*
X124781201Y-99232838D01*
X125153167Y-99233162D01*
X125496943Y-99091117D01*
X125519437Y-99068662D01*
X125468569Y-99143110D01*
X125417560Y-99395000D01*
X125417560Y-99995000D01*
X125461838Y-100230317D01*
X125520178Y-100320980D01*
X125430000Y-100538690D01*
X125430000Y-100644340D01*
X125428327Y-100640301D01*
X125249698Y-100461673D01*
X125016309Y-100365000D01*
X124575750Y-100365000D01*
X124417000Y-100523750D01*
X124417000Y-101473000D01*
X124437000Y-101473000D01*
X124437000Y-101727000D01*
X124417000Y-101727000D01*
X124417000Y-102676250D01*
X124575750Y-102835000D01*
X125016309Y-102835000D01*
X125249698Y-102738327D01*
X125428327Y-102559699D01*
X125525000Y-102326310D01*
X125525000Y-101885750D01*
X125366252Y-101727002D01*
X125525000Y-101727002D01*
X125525000Y-101620660D01*
X125526673Y-101624699D01*
X125705302Y-101803327D01*
X125938691Y-101900000D01*
X126554250Y-101900000D01*
X126713000Y-101741250D01*
X126713000Y-101092000D01*
X126967000Y-101092000D01*
X126967000Y-101741250D01*
X127125750Y-101900000D01*
X127741309Y-101900000D01*
X127974698Y-101803327D01*
X128153327Y-101624699D01*
X128250000Y-101391310D01*
X128250000Y-101250750D01*
X128091250Y-101092000D01*
X126967000Y-101092000D01*
X126713000Y-101092000D01*
X126693000Y-101092000D01*
X126693000Y-100838000D01*
X126713000Y-100838000D01*
X126713000Y-100818000D01*
X126967000Y-100818000D01*
X126967000Y-100838000D01*
X128091250Y-100838000D01*
X128250000Y-100679250D01*
X128250000Y-100582000D01*
X128463198Y-100582000D01*
X130780599Y-102899401D01*
X131027160Y-103064148D01*
X131075414Y-103073746D01*
X131318000Y-103122000D01*
X133807889Y-103122000D01*
X133573808Y-103355673D01*
X133431162Y-103699201D01*
X133431121Y-103746077D01*
X133202599Y-103974599D01*
X133037852Y-104221161D01*
X132980000Y-104512000D01*
X132980000Y-104882560D01*
X132490000Y-104882560D01*
X132254683Y-104926838D01*
X132038559Y-105065910D01*
X131893569Y-105278110D01*
X131842560Y-105530000D01*
X131842560Y-107830000D01*
X131886838Y-108065317D01*
X132025910Y-108281441D01*
X132238110Y-108426431D01*
X132490000Y-108477440D01*
X134990000Y-108477440D01*
X135071837Y-108462041D01*
X134843808Y-108689673D01*
X134701162Y-109033201D01*
X134700838Y-109405167D01*
X134842883Y-109748943D01*
X135105673Y-110012192D01*
X135449201Y-110154838D01*
X135821167Y-110155162D01*
X136164943Y-110013117D01*
X136428192Y-109750327D01*
X136570838Y-109406799D01*
X136570997Y-109223805D01*
X137280000Y-108514802D01*
X137280000Y-108939669D01*
X137241162Y-109033201D01*
X137240838Y-109405167D01*
X137382883Y-109748943D01*
X137645673Y-110012192D01*
X137989201Y-110154838D01*
X138361167Y-110155162D01*
X138704943Y-110013117D01*
X138968192Y-109750327D01*
X139006045Y-109659167D01*
X140288838Y-109659167D01*
X140430883Y-110002943D01*
X140693673Y-110266192D01*
X141037201Y-110408838D01*
X141409167Y-110409162D01*
X141752943Y-110267117D01*
X142016192Y-110004327D01*
X142158838Y-109660799D01*
X142158879Y-109613923D01*
X142597401Y-109175401D01*
X142762148Y-108928839D01*
X142820000Y-108638000D01*
X142820000Y-108485105D01*
X142961441Y-108394090D01*
X143106431Y-108181890D01*
X143157440Y-107930000D01*
X143157440Y-105430000D01*
X143113162Y-105194683D01*
X142974090Y-104978559D01*
X142761890Y-104833569D01*
X142510000Y-104782560D01*
X141610000Y-104782560D01*
X141374683Y-104826838D01*
X141158559Y-104965910D01*
X141013569Y-105178110D01*
X140962560Y-105430000D01*
X140962560Y-107930000D01*
X141006838Y-108165317D01*
X141145910Y-108381441D01*
X141202851Y-108420347D01*
X141084320Y-108538878D01*
X141038833Y-108538838D01*
X140695057Y-108680883D01*
X140431808Y-108943673D01*
X140289162Y-109287201D01*
X140288838Y-109659167D01*
X139006045Y-109659167D01*
X139110838Y-109406799D01*
X139111162Y-109034833D01*
X138969117Y-108691057D01*
X138800000Y-108521645D01*
X138800000Y-108477440D01*
X139290000Y-108477440D01*
X139525317Y-108433162D01*
X139741441Y-108294090D01*
X139886431Y-108081890D01*
X139937440Y-107830000D01*
X139937440Y-105530000D01*
X139893162Y-105294683D01*
X139754090Y-105078559D01*
X139541890Y-104933569D01*
X139290000Y-104882560D01*
X136790000Y-104882560D01*
X136554683Y-104926838D01*
X136338559Y-105065910D01*
X136193569Y-105278110D01*
X136142560Y-105530000D01*
X136142560Y-107502638D01*
X135592303Y-108052895D01*
X135637440Y-107830000D01*
X135637440Y-105530000D01*
X135593162Y-105294683D01*
X135454090Y-105078559D01*
X135241890Y-104933569D01*
X134990000Y-104882560D01*
X134500000Y-104882560D01*
X134500000Y-104826802D01*
X134505680Y-104821122D01*
X134551167Y-104821162D01*
X134894943Y-104679117D01*
X135158192Y-104416327D01*
X135300838Y-104072799D01*
X135301162Y-103700833D01*
X135159117Y-103357057D01*
X134924470Y-103122000D01*
X144475889Y-103122000D01*
X144241808Y-103355673D01*
X144099162Y-103699201D01*
X144098838Y-104071167D01*
X144200000Y-104315998D01*
X144200000Y-104874895D01*
X144058559Y-104965910D01*
X143913569Y-105178110D01*
X143862560Y-105430000D01*
X143862560Y-107930000D01*
X143906838Y-108165317D01*
X144045910Y-108381441D01*
X144258110Y-108526431D01*
X144510000Y-108577440D01*
X145410000Y-108577440D01*
X145645317Y-108533162D01*
X145861441Y-108394090D01*
X146006431Y-108181890D01*
X146057440Y-107930000D01*
X146057440Y-105430000D01*
X146013162Y-105194683D01*
X145943978Y-105087167D01*
X146638838Y-105087167D01*
X146780883Y-105430943D01*
X147043673Y-105694192D01*
X147387201Y-105836838D01*
X147391300Y-105836842D01*
X147382560Y-105880000D01*
X147382560Y-107480000D01*
X147426838Y-107715317D01*
X147565910Y-107931441D01*
X147778110Y-108076431D01*
X148030000Y-108127440D01*
X150630000Y-108127440D01*
X150865317Y-108083162D01*
X151081441Y-107944090D01*
X151127969Y-107875994D01*
X151270302Y-108018327D01*
X151503691Y-108115000D01*
X152644250Y-108115000D01*
X152803000Y-107956250D01*
X152803000Y-106807000D01*
X153057000Y-106807000D01*
X153057000Y-107956250D01*
X153215750Y-108115000D01*
X154356309Y-108115000D01*
X154589698Y-108018327D01*
X154768327Y-107839699D01*
X154865000Y-107606310D01*
X154865000Y-106965750D01*
X154706250Y-106807000D01*
X153057000Y-106807000D01*
X152803000Y-106807000D01*
X152783000Y-106807000D01*
X152783000Y-106553000D01*
X152803000Y-106553000D01*
X152803000Y-105403750D01*
X153057000Y-105403750D01*
X153057000Y-106553000D01*
X154706250Y-106553000D01*
X154865000Y-106394250D01*
X154865000Y-105753690D01*
X154768327Y-105520301D01*
X154589698Y-105341673D01*
X154356309Y-105245000D01*
X153215750Y-105245000D01*
X153057000Y-105403750D01*
X152803000Y-105403750D01*
X152644250Y-105245000D01*
X151503691Y-105245000D01*
X151270302Y-105341673D01*
X151129064Y-105482910D01*
X151094090Y-105428559D01*
X150881890Y-105283569D01*
X150630000Y-105232560D01*
X148957362Y-105232560D01*
X148509103Y-104784301D01*
X148509162Y-104716833D01*
X148367117Y-104373057D01*
X148104327Y-104109808D01*
X147760799Y-103967162D01*
X147388833Y-103966838D01*
X147045057Y-104108883D01*
X146781808Y-104371673D01*
X146639162Y-104715201D01*
X146638838Y-105087167D01*
X145943978Y-105087167D01*
X145874090Y-104978559D01*
X145720000Y-104873274D01*
X145720000Y-104522334D01*
X145826192Y-104416327D01*
X145968838Y-104072799D01*
X145969162Y-103700833D01*
X145827117Y-103357057D01*
X145592470Y-103122000D01*
X148568000Y-103122000D01*
X148858839Y-103064148D01*
X148883844Y-103047440D01*
X150630000Y-103047440D01*
X150865317Y-103003162D01*
X151081441Y-102864090D01*
X151127969Y-102795994D01*
X151270302Y-102938327D01*
X151503691Y-103035000D01*
X152644250Y-103035000D01*
X152803000Y-102876250D01*
X152803000Y-101727000D01*
X153057000Y-101727000D01*
X153057000Y-102876250D01*
X153215750Y-103035000D01*
X154356309Y-103035000D01*
X154589698Y-102938327D01*
X154768327Y-102759699D01*
X154865000Y-102526310D01*
X154865000Y-102520750D01*
X155155000Y-102520750D01*
X155155000Y-102661310D01*
X155241442Y-102870000D01*
X155155000Y-103078690D01*
X155155000Y-103219250D01*
X155313750Y-103378000D01*
X156413000Y-103378000D01*
X156413000Y-102362000D01*
X156667000Y-102362000D01*
X156667000Y-103378000D01*
X157766250Y-103378000D01*
X157925000Y-103219250D01*
X157925000Y-103078690D01*
X157838558Y-102870000D01*
X157925000Y-102661310D01*
X157925000Y-102520750D01*
X157766250Y-102362000D01*
X156667000Y-102362000D01*
X156413000Y-102362000D01*
X155313750Y-102362000D01*
X155155000Y-102520750D01*
X154865000Y-102520750D01*
X154865000Y-101885750D01*
X154706250Y-101727000D01*
X153057000Y-101727000D01*
X152803000Y-101727000D01*
X152783000Y-101727000D01*
X152783000Y-101473000D01*
X152803000Y-101473000D01*
X152803000Y-100323750D01*
X153057000Y-100323750D01*
X153057000Y-101473000D01*
X154706250Y-101473000D01*
X154865000Y-101314250D01*
X154865000Y-101250750D01*
X155155000Y-101250750D01*
X155155000Y-101391310D01*
X155241442Y-101600000D01*
X155155000Y-101808690D01*
X155155000Y-101949250D01*
X155313750Y-102108000D01*
X156413000Y-102108000D01*
X156413000Y-101092000D01*
X156667000Y-101092000D01*
X156667000Y-102108000D01*
X157766250Y-102108000D01*
X157925000Y-101949250D01*
X157925000Y-101808690D01*
X157838558Y-101600000D01*
X157925000Y-101391310D01*
X157925000Y-101250750D01*
X164655000Y-101250750D01*
X164655000Y-101391310D01*
X164741442Y-101600000D01*
X164655000Y-101808690D01*
X164655000Y-101949250D01*
X164813750Y-102108000D01*
X165913000Y-102108000D01*
X165913000Y-101092000D01*
X166167000Y-101092000D01*
X166167000Y-102108000D01*
X167266250Y-102108000D01*
X167425000Y-101949250D01*
X167425000Y-101808690D01*
X167338558Y-101600000D01*
X167425000Y-101391310D01*
X167425000Y-101250750D01*
X167266250Y-101092000D01*
X166167000Y-101092000D01*
X165913000Y-101092000D01*
X164813750Y-101092000D01*
X164655000Y-101250750D01*
X157925000Y-101250750D01*
X157766250Y-101092000D01*
X156667000Y-101092000D01*
X156413000Y-101092000D01*
X155313750Y-101092000D01*
X155155000Y-101250750D01*
X154865000Y-101250750D01*
X154865000Y-100673690D01*
X154768327Y-100440301D01*
X154589698Y-100261673D01*
X154356309Y-100165000D01*
X153215750Y-100165000D01*
X153057000Y-100323750D01*
X152803000Y-100323750D01*
X152644250Y-100165000D01*
X151503691Y-100165000D01*
X151270302Y-100261673D01*
X151129064Y-100402910D01*
X151094090Y-100348559D01*
X150881890Y-100203569D01*
X150630000Y-100152560D01*
X148754962Y-100152560D01*
X148864943Y-100107117D01*
X148991530Y-99980750D01*
X155155000Y-99980750D01*
X155155000Y-100121310D01*
X155241442Y-100330000D01*
X155155000Y-100538690D01*
X155155000Y-100679250D01*
X155313750Y-100838000D01*
X156413000Y-100838000D01*
X156413000Y-99822000D01*
X156667000Y-99822000D01*
X156667000Y-100838000D01*
X157766250Y-100838000D01*
X157925000Y-100679250D01*
X157925000Y-100538690D01*
X157838558Y-100330000D01*
X157925000Y-100121310D01*
X157925000Y-99980750D01*
X164655000Y-99980750D01*
X164655000Y-100121310D01*
X164741442Y-100330000D01*
X164655000Y-100538690D01*
X164655000Y-100679250D01*
X164813750Y-100838000D01*
X165913000Y-100838000D01*
X165913000Y-99822000D01*
X166167000Y-99822000D01*
X166167000Y-100838000D01*
X167266250Y-100838000D01*
X167425000Y-100679250D01*
X167425000Y-100538690D01*
X167338558Y-100330000D01*
X167425000Y-100121310D01*
X167425000Y-99980750D01*
X167266250Y-99822000D01*
X166167000Y-99822000D01*
X165913000Y-99822000D01*
X164813750Y-99822000D01*
X164655000Y-99980750D01*
X157925000Y-99980750D01*
X157766250Y-99822000D01*
X156667000Y-99822000D01*
X156413000Y-99822000D01*
X155313750Y-99822000D01*
X155155000Y-99980750D01*
X148991530Y-99980750D01*
X149128192Y-99844327D01*
X149270838Y-99500799D01*
X149271162Y-99128833D01*
X149129117Y-98785057D01*
X148866327Y-98521808D01*
X148522799Y-98379162D01*
X148150833Y-98378838D01*
X147807057Y-98520883D01*
X147773882Y-98554000D01*
X145618802Y-98554000D01*
X144782440Y-97717638D01*
X144782440Y-97280000D01*
X146159897Y-97280000D01*
X146131162Y-97349201D01*
X146130838Y-97721167D01*
X146272883Y-98064943D01*
X146535673Y-98328192D01*
X146879201Y-98470838D01*
X147251167Y-98471162D01*
X147594943Y-98329117D01*
X147858192Y-98066327D01*
X147909395Y-97943017D01*
X148030000Y-97967440D01*
X150630000Y-97967440D01*
X150865317Y-97923162D01*
X151081441Y-97784090D01*
X151127969Y-97715994D01*
X151270302Y-97858327D01*
X151503691Y-97955000D01*
X152644250Y-97955000D01*
X152803000Y-97796250D01*
X152803000Y-96647000D01*
X153057000Y-96647000D01*
X153057000Y-97796250D01*
X153215750Y-97955000D01*
X154356309Y-97955000D01*
X154589698Y-97858327D01*
X154768327Y-97679699D01*
X154865000Y-97446310D01*
X154865000Y-96805750D01*
X154706250Y-96647000D01*
X153057000Y-96647000D01*
X152803000Y-96647000D01*
X152783000Y-96647000D01*
X152783000Y-96393000D01*
X152803000Y-96393000D01*
X152803000Y-95243750D01*
X153057000Y-95243750D01*
X153057000Y-96393000D01*
X154706250Y-96393000D01*
X154865000Y-96234250D01*
X154865000Y-95593690D01*
X154768327Y-95360301D01*
X154589698Y-95181673D01*
X154356309Y-95085000D01*
X153215750Y-95085000D01*
X153057000Y-95243750D01*
X152803000Y-95243750D01*
X152644250Y-95085000D01*
X151503691Y-95085000D01*
X151270302Y-95181673D01*
X151129064Y-95322910D01*
X151094090Y-95268559D01*
X150881890Y-95123569D01*
X150630000Y-95072560D01*
X148957362Y-95072560D01*
X148597401Y-94712599D01*
X148350839Y-94547852D01*
X148060000Y-94490000D01*
X147210103Y-94490000D01*
X147238838Y-94420799D01*
X147239162Y-94048833D01*
X147097117Y-93705057D01*
X146834327Y-93441808D01*
X146490799Y-93299162D01*
X146118833Y-93298838D01*
X145775057Y-93440883D01*
X145511808Y-93703673D01*
X145369162Y-94047201D01*
X145369121Y-94094077D01*
X144714808Y-94748390D01*
X144599090Y-94568559D01*
X144386890Y-94423569D01*
X144135000Y-94372560D01*
X142885000Y-94372560D01*
X142649683Y-94416838D01*
X142433559Y-94555910D01*
X142288569Y-94768110D01*
X142237560Y-95020000D01*
X142237560Y-95760000D01*
X142040463Y-95760000D01*
X142008327Y-95727808D01*
X141664799Y-95585162D01*
X141292833Y-95584838D01*
X140949057Y-95726883D01*
X140685808Y-95989673D01*
X140543162Y-96333201D01*
X140542838Y-96705167D01*
X140684883Y-97048943D01*
X140947673Y-97312192D01*
X141291201Y-97454838D01*
X141663167Y-97455162D01*
X142006943Y-97313117D01*
X142040118Y-97280000D01*
X142237560Y-97280000D01*
X142237560Y-98020000D01*
X142281838Y-98255317D01*
X142420910Y-98471441D01*
X142633110Y-98616431D01*
X142885000Y-98667440D01*
X143582638Y-98667440D01*
X144766599Y-99851401D01*
X145013161Y-100016148D01*
X145304000Y-100074000D01*
X147773537Y-100074000D01*
X147805673Y-100106192D01*
X147952471Y-100167148D01*
X147794683Y-100196838D01*
X147578559Y-100335910D01*
X147433569Y-100548110D01*
X147382560Y-100800000D01*
X147382560Y-101602000D01*
X138595202Y-101602000D01*
X138695317Y-101583162D01*
X138911441Y-101444090D01*
X139056431Y-101231890D01*
X139085164Y-101090000D01*
X139645537Y-101090000D01*
X139677673Y-101122192D01*
X140021201Y-101264838D01*
X140393167Y-101265162D01*
X140736943Y-101123117D01*
X141000192Y-100860327D01*
X141142838Y-100516799D01*
X141143162Y-100144833D01*
X141001117Y-99801057D01*
X140738327Y-99537808D01*
X140394799Y-99395162D01*
X140065351Y-99394875D01*
X140126838Y-99246799D01*
X140127162Y-98874833D01*
X139985117Y-98531057D01*
X139722327Y-98267808D01*
X139600294Y-98217135D01*
X139631167Y-98217162D01*
X139974943Y-98075117D01*
X140238192Y-97812327D01*
X140380838Y-97468799D01*
X140381162Y-97096833D01*
X140239117Y-96753057D01*
X139976327Y-96489808D01*
X139632799Y-96347162D01*
X139585923Y-96347121D01*
X139221401Y-95982599D01*
X139107440Y-95906453D01*
X139107440Y-95870000D01*
X139063162Y-95634683D01*
X138924090Y-95418559D01*
X138739499Y-95292434D01*
X138709810Y-95248000D01*
X140153537Y-95248000D01*
X140185673Y-95280192D01*
X140529201Y-95422838D01*
X140901167Y-95423162D01*
X141244943Y-95281117D01*
X141508192Y-95018327D01*
X141650838Y-94674799D01*
X141651162Y-94302833D01*
X141509117Y-93959057D01*
X141246327Y-93695808D01*
X140902799Y-93553162D01*
X140530833Y-93552838D01*
X140187057Y-93694883D01*
X140153882Y-93728000D01*
X138977096Y-93728000D01*
X139056431Y-93611890D01*
X139107440Y-93360000D01*
X139107440Y-93323547D01*
X139221401Y-93247401D01*
X139879917Y-92588885D01*
X139945910Y-92691441D01*
X140158110Y-92836431D01*
X140410000Y-92887440D01*
X143010000Y-92887440D01*
X143245317Y-92843162D01*
X143461441Y-92704090D01*
X143507969Y-92635994D01*
X143650302Y-92778327D01*
X143883691Y-92875000D01*
X145024250Y-92875000D01*
X145183000Y-92716250D01*
X145183000Y-91567000D01*
X145437000Y-91567000D01*
X145437000Y-92716250D01*
X145595750Y-92875000D01*
X146736309Y-92875000D01*
X146969698Y-92778327D01*
X147148327Y-92599699D01*
X147245000Y-92366310D01*
X147245000Y-91725750D01*
X147086250Y-91567000D01*
X145437000Y-91567000D01*
X145183000Y-91567000D01*
X145163000Y-91567000D01*
X145163000Y-91313000D01*
X145183000Y-91313000D01*
X145183000Y-91293000D01*
X145437000Y-91293000D01*
X145437000Y-91313000D01*
X147086250Y-91313000D01*
X147245000Y-91154250D01*
X147245000Y-90851157D01*
X147251167Y-90851162D01*
X147594943Y-90709117D01*
X147655024Y-90649140D01*
X147654838Y-90863167D01*
X147796883Y-91206943D01*
X148059673Y-91470192D01*
X148403201Y-91612838D01*
X148775167Y-91613162D01*
X149118943Y-91471117D01*
X149382192Y-91208327D01*
X149524838Y-90864799D01*
X149525162Y-90492833D01*
X149383117Y-90149057D01*
X149350000Y-90115882D01*
X149350000Y-89660000D01*
X152603889Y-89660000D01*
X152369808Y-89893673D01*
X152227162Y-90237201D01*
X152227121Y-90284077D01*
X151752320Y-90758878D01*
X151706833Y-90758838D01*
X151363057Y-90900883D01*
X151099808Y-91163673D01*
X150957162Y-91507201D01*
X150956838Y-91879167D01*
X151098883Y-92222943D01*
X151361673Y-92486192D01*
X151705201Y-92628838D01*
X152077167Y-92629162D01*
X152165818Y-92592532D01*
X156357073Y-92592532D01*
X156455736Y-92859387D01*
X157065461Y-93085908D01*
X157715460Y-93061856D01*
X158204264Y-92859387D01*
X158302927Y-92592532D01*
X157330000Y-91619605D01*
X156357073Y-92592532D01*
X152165818Y-92592532D01*
X152420943Y-92487117D01*
X152684192Y-92224327D01*
X152826838Y-91880799D01*
X152826879Y-91833923D01*
X153301680Y-91359122D01*
X153347167Y-91359162D01*
X153690943Y-91217117D01*
X153732671Y-91175461D01*
X155684092Y-91175461D01*
X155708144Y-91825460D01*
X155910613Y-92314264D01*
X156177468Y-92412927D01*
X157150395Y-91440000D01*
X157509605Y-91440000D01*
X158482532Y-92412927D01*
X158749387Y-92314264D01*
X158975908Y-91704539D01*
X158956331Y-91175461D01*
X162184092Y-91175461D01*
X162208144Y-91825460D01*
X162410613Y-92314264D01*
X162677468Y-92412927D01*
X163650395Y-91440000D01*
X162677468Y-90467073D01*
X162410613Y-90565736D01*
X162184092Y-91175461D01*
X158956331Y-91175461D01*
X158951856Y-91054540D01*
X158749387Y-90565736D01*
X158482532Y-90467073D01*
X157509605Y-91440000D01*
X157150395Y-91440000D01*
X156177468Y-90467073D01*
X155910613Y-90565736D01*
X155684092Y-91175461D01*
X153732671Y-91175461D01*
X153954192Y-90954327D01*
X154096838Y-90610799D01*
X154097119Y-90287468D01*
X156357073Y-90287468D01*
X157330000Y-91260395D01*
X158302927Y-90287468D01*
X162857073Y-90287468D01*
X163830000Y-91260395D01*
X164802927Y-90287468D01*
X164704264Y-90020613D01*
X164094539Y-89794092D01*
X163444540Y-89818144D01*
X162955736Y-90020613D01*
X162857073Y-90287468D01*
X158302927Y-90287468D01*
X158204264Y-90020613D01*
X157594539Y-89794092D01*
X156944540Y-89818144D01*
X156455736Y-90020613D01*
X156357073Y-90287468D01*
X154097119Y-90287468D01*
X154097162Y-90238833D01*
X153955117Y-89895057D01*
X153720470Y-89660000D01*
X155370000Y-89660000D01*
X155660839Y-89602148D01*
X155907401Y-89437401D01*
X156838527Y-88506275D01*
X157003352Y-88574716D01*
X157653795Y-88575284D01*
X158254943Y-88326894D01*
X158715278Y-87867363D01*
X158784773Y-87700000D01*
X162374953Y-87700000D01*
X162443106Y-87864943D01*
X162902637Y-88325278D01*
X163503352Y-88574716D01*
X164153795Y-88575284D01*
X164754943Y-88326894D01*
X165215278Y-87867363D01*
X165464716Y-87266648D01*
X165465284Y-86616205D01*
X165216894Y-86015057D01*
X164757363Y-85554722D01*
X164590000Y-85485227D01*
X164590000Y-83874463D01*
X164622192Y-83842327D01*
X164764838Y-83498799D01*
X164765162Y-83126833D01*
X164623117Y-82783057D01*
X164360327Y-82519808D01*
X164016799Y-82377162D01*
X163644833Y-82376838D01*
X163301057Y-82518883D01*
X163037808Y-82781673D01*
X162895162Y-83125201D01*
X162894838Y-83497167D01*
X163036883Y-83840943D01*
X163070000Y-83874118D01*
X163070000Y-85484953D01*
X162905057Y-85553106D01*
X162444722Y-86012637D01*
X162375227Y-86180000D01*
X158785047Y-86180000D01*
X158716894Y-86015057D01*
X158257363Y-85554722D01*
X157656648Y-85305284D01*
X157006205Y-85304716D01*
X156405057Y-85553106D01*
X155944722Y-86012637D01*
X155695284Y-86613352D01*
X155694716Y-87263795D01*
X155763919Y-87431279D01*
X155055198Y-88140000D01*
X149350000Y-88140000D01*
X149350000Y-88138000D01*
X149306804Y-87920839D01*
X149292148Y-87847160D01*
X149127401Y-87600599D01*
X147857401Y-86330599D01*
X147610839Y-86165852D01*
X147320000Y-86108000D01*
X141986000Y-86108000D01*
X141695161Y-86165852D01*
X141448599Y-86330599D01*
X141222000Y-86557198D01*
X141222000Y-79552111D01*
X141226000Y-79556118D01*
X141226000Y-81788000D01*
X141283852Y-82078839D01*
X141448599Y-82325401D01*
X144098878Y-84975680D01*
X144098838Y-85021167D01*
X144240883Y-85364943D01*
X144503673Y-85628192D01*
X144847201Y-85770838D01*
X145219167Y-85771162D01*
X145562943Y-85629117D01*
X145826192Y-85366327D01*
X145968838Y-85022799D01*
X145969162Y-84650833D01*
X145827117Y-84307057D01*
X145564327Y-84043808D01*
X145220799Y-83901162D01*
X145173923Y-83901121D01*
X142746000Y-81473198D01*
X142746000Y-79675802D01*
X144102560Y-81032362D01*
X144102560Y-81930000D01*
X144146838Y-82165317D01*
X144285910Y-82381441D01*
X144498110Y-82526431D01*
X144750000Y-82577440D01*
X145450000Y-82577440D01*
X145685317Y-82533162D01*
X145901441Y-82394090D01*
X146046431Y-82181890D01*
X146049081Y-82168803D01*
X146185910Y-82381441D01*
X146398110Y-82526431D01*
X146650000Y-82577440D01*
X147350000Y-82577440D01*
X147585317Y-82533162D01*
X147801441Y-82394090D01*
X147946431Y-82181890D01*
X147981239Y-82010000D01*
X150752560Y-82010000D01*
X150752560Y-86510000D01*
X150796838Y-86745317D01*
X150935910Y-86961441D01*
X151148110Y-87106431D01*
X151400000Y-87157440D01*
X153400000Y-87157440D01*
X153635317Y-87113162D01*
X153851441Y-86974090D01*
X153996431Y-86761890D01*
X154047440Y-86510000D01*
X154047440Y-85020000D01*
X154055656Y-85020000D01*
X154155673Y-85120192D01*
X154499201Y-85262838D01*
X154871167Y-85263162D01*
X155214943Y-85121117D01*
X155478192Y-84858327D01*
X155620838Y-84514799D01*
X155621162Y-84142833D01*
X155479117Y-83799057D01*
X155216327Y-83535808D01*
X154872799Y-83393162D01*
X154500833Y-83392838D01*
X154241481Y-83500000D01*
X154047440Y-83500000D01*
X154047440Y-82010000D01*
X154003162Y-81774683D01*
X153864090Y-81558559D01*
X153651890Y-81413569D01*
X153400000Y-81362560D01*
X151400000Y-81362560D01*
X151164683Y-81406838D01*
X150948559Y-81545910D01*
X150803569Y-81758110D01*
X150752560Y-82010000D01*
X147981239Y-82010000D01*
X147997440Y-81930000D01*
X147997440Y-81677362D01*
X148729680Y-80945122D01*
X148775167Y-80945162D01*
X149118943Y-80803117D01*
X149382192Y-80540327D01*
X149524838Y-80196799D01*
X149525162Y-79824833D01*
X149383117Y-79481057D01*
X149120327Y-79217808D01*
X148776799Y-79075162D01*
X148404833Y-79074838D01*
X148061057Y-79216883D01*
X147797808Y-79479673D01*
X147655162Y-79823201D01*
X147655121Y-79870077D01*
X147510197Y-80015001D01*
X147350000Y-79982560D01*
X146650000Y-79982560D01*
X146414683Y-80026838D01*
X146198559Y-80165910D01*
X146053569Y-80378110D01*
X146050919Y-80391197D01*
X145914090Y-80178559D01*
X145701890Y-80033569D01*
X145450000Y-79982560D01*
X145202362Y-79982560D01*
X144132903Y-78913101D01*
X144203167Y-78913162D01*
X144546943Y-78771117D01*
X144584250Y-78733875D01*
X144750000Y-78767440D01*
X145450000Y-78767440D01*
X145685317Y-78723162D01*
X145901441Y-78584090D01*
X146046431Y-78371890D01*
X146049081Y-78358803D01*
X146185910Y-78571441D01*
X146398110Y-78716431D01*
X146650000Y-78767440D01*
X147350000Y-78767440D01*
X147585317Y-78723162D01*
X147801441Y-78584090D01*
X147946431Y-78371890D01*
X147997440Y-78120000D01*
X147997440Y-77867362D01*
X148475680Y-77389122D01*
X148521167Y-77389162D01*
X148864943Y-77247117D01*
X149128192Y-76984327D01*
X149270838Y-76640799D01*
X149271162Y-76268833D01*
X149129117Y-75925057D01*
X148866327Y-75661808D01*
X148522799Y-75519162D01*
X148150833Y-75518838D01*
X147807057Y-75660883D01*
X147543808Y-75923673D01*
X147433444Y-76189458D01*
X147350000Y-76172560D01*
X146650000Y-76172560D01*
X146414683Y-76216838D01*
X146198559Y-76355910D01*
X146053569Y-76568110D01*
X146050919Y-76581197D01*
X145914090Y-76368559D01*
X145701890Y-76223569D01*
X145540000Y-76190785D01*
X145540000Y-75692000D01*
X145482148Y-75401161D01*
X145317401Y-75154599D01*
X144910401Y-74747599D01*
X144663839Y-74582852D01*
X144373000Y-74525000D01*
X143552440Y-74525000D01*
X143552440Y-74410000D01*
X143539020Y-74338677D01*
X143540000Y-74336310D01*
X143540000Y-74256250D01*
X143519688Y-74235938D01*
X143508162Y-74174683D01*
X143384671Y-73982773D01*
X143501431Y-73811890D01*
X143516558Y-73737192D01*
X143540000Y-73713750D01*
X143540000Y-73633690D01*
X143538333Y-73629665D01*
X143552440Y-73560000D01*
X143552440Y-73510000D01*
X150752560Y-73510000D01*
X150752560Y-78010000D01*
X150796838Y-78245317D01*
X150935910Y-78461441D01*
X151148110Y-78606431D01*
X151400000Y-78657440D01*
X153400000Y-78657440D01*
X153635317Y-78613162D01*
X153851441Y-78474090D01*
X153996431Y-78261890D01*
X154047440Y-78010000D01*
X154047440Y-73510000D01*
X154020734Y-73368068D01*
X154317680Y-73071122D01*
X154363167Y-73071162D01*
X154706943Y-72929117D01*
X154970192Y-72666327D01*
X155112838Y-72322799D01*
X155113162Y-71950833D01*
X154971117Y-71607057D01*
X154708327Y-71343808D01*
X154364799Y-71201162D01*
X153992833Y-71200838D01*
X153649057Y-71342883D01*
X153385808Y-71605673D01*
X153243162Y-71949201D01*
X153243121Y-71996077D01*
X152376638Y-72862560D01*
X151400000Y-72862560D01*
X151164683Y-72906838D01*
X150948559Y-73045910D01*
X150803569Y-73258110D01*
X150752560Y-73510000D01*
X143552440Y-73510000D01*
X143552440Y-73110000D01*
X143532933Y-73006329D01*
X143552440Y-72910000D01*
X143552440Y-72460000D01*
X143532933Y-72356329D01*
X143552440Y-72260000D01*
X143552440Y-71810000D01*
X143532933Y-71706329D01*
X143552440Y-71610000D01*
X143552440Y-71160000D01*
X143532933Y-71056329D01*
X143552440Y-70960000D01*
X143552440Y-70510000D01*
X143532933Y-70406329D01*
X143552440Y-70310000D01*
X143552440Y-69860000D01*
X143532933Y-69756329D01*
X143552440Y-69660000D01*
X143552440Y-69210000D01*
X143508162Y-68974683D01*
X143369090Y-68758559D01*
X143156890Y-68613569D01*
X142905000Y-68562560D01*
X141155000Y-68562560D01*
X140919683Y-68606838D01*
X140703559Y-68745910D01*
X140558569Y-68958110D01*
X140507560Y-69210000D01*
X140507560Y-69660000D01*
X140527067Y-69763671D01*
X140507560Y-69860000D01*
X140507560Y-70310000D01*
X140527067Y-70413671D01*
X140507560Y-70510000D01*
X140507560Y-70960000D01*
X140527067Y-71063671D01*
X140507560Y-71160000D01*
X140507560Y-71247985D01*
X140394799Y-71201162D01*
X140347923Y-71201121D01*
X139344401Y-70197599D01*
X139097839Y-70032852D01*
X138807000Y-69975000D01*
X136352440Y-69975000D01*
X136352440Y-69860000D01*
X136332933Y-69756329D01*
X136352440Y-69660000D01*
X136352440Y-69210000D01*
X136308162Y-68974683D01*
X136169090Y-68758559D01*
X135956890Y-68613569D01*
X135705000Y-68562560D01*
X135032362Y-68562560D01*
X134004401Y-67534599D01*
X133757839Y-67369852D01*
X133467000Y-67312000D01*
X131490999Y-67312000D01*
X131491162Y-67124833D01*
X131349117Y-66781057D01*
X131086327Y-66517808D01*
X130742799Y-66375162D01*
X130695923Y-66375121D01*
X127947802Y-63627000D01*
X128474628Y-63627000D01*
X128787155Y-64383372D01*
G36*
X130578217Y-99649019D02*
X130370833Y-99648838D01*
X130027057Y-99790883D01*
X129924281Y-99893479D01*
X129315401Y-99284599D01*
X129068839Y-99119852D01*
X128778000Y-99062000D01*
X128162729Y-99062000D01*
X128250000Y-98851310D01*
X128250000Y-98710750D01*
X128091250Y-98552000D01*
X126967000Y-98552000D01*
X126967000Y-98572000D01*
X126713000Y-98572000D01*
X126713000Y-98552000D01*
X126693000Y-98552000D01*
X126693000Y-98298000D01*
X126713000Y-98298000D01*
X126713000Y-98278000D01*
X126967000Y-98278000D01*
X126967000Y-98298000D01*
X128091250Y-98298000D01*
X128250000Y-98139250D01*
X128250000Y-97998690D01*
X128160194Y-97781878D01*
X128211431Y-97706890D01*
X128262440Y-97455000D01*
X128262440Y-97333242D01*
X130578217Y-99649019D01*
X130578217Y-99649019D01*
G37*
X130578217Y-99649019D02*
X130370833Y-99648838D01*
X130027057Y-99790883D01*
X129924281Y-99893479D01*
X129315401Y-99284599D01*
X129068839Y-99119852D01*
X128778000Y-99062000D01*
X128162729Y-99062000D01*
X128250000Y-98851310D01*
X128250000Y-98710750D01*
X128091250Y-98552000D01*
X126967000Y-98552000D01*
X126967000Y-98572000D01*
X126713000Y-98572000D01*
X126713000Y-98552000D01*
X126693000Y-98552000D01*
X126693000Y-98298000D01*
X126713000Y-98298000D01*
X126713000Y-98278000D01*
X126967000Y-98278000D01*
X126967000Y-98298000D01*
X128091250Y-98298000D01*
X128250000Y-98139250D01*
X128250000Y-97998690D01*
X128160194Y-97781878D01*
X128211431Y-97706890D01*
X128262440Y-97455000D01*
X128262440Y-97333242D01*
X130578217Y-99649019D01*
G36*
X122026673Y-63640302D02*
X121930000Y-63873691D01*
X121930000Y-64214250D01*
X122088750Y-64373000D01*
X123063000Y-64373000D01*
X123063000Y-64353000D01*
X123317000Y-64353000D01*
X123317000Y-64373000D01*
X124291250Y-64373000D01*
X124450000Y-64214250D01*
X124450000Y-63873691D01*
X124353327Y-63640302D01*
X124340025Y-63627000D01*
X125798198Y-63627000D01*
X129483198Y-67312000D01*
X126778000Y-67312000D01*
X126487161Y-67369852D01*
X126240599Y-67534599D01*
X122767851Y-71007347D01*
X122738700Y-70995242D01*
X122183735Y-70994758D01*
X121670828Y-71206687D01*
X121278066Y-71598764D01*
X121065242Y-72111300D01*
X121064758Y-72666265D01*
X121276687Y-73179172D01*
X121668764Y-73571934D01*
X121864934Y-73653391D01*
X121730059Y-73709258D01*
X121660841Y-73951236D01*
X122460000Y-74750395D01*
X123259159Y-73951236D01*
X123189941Y-73709258D01*
X123045138Y-73657618D01*
X123249172Y-73573313D01*
X123460024Y-73362829D01*
X123668764Y-73571934D01*
X123880738Y-73659954D01*
X123670828Y-73746687D01*
X123278066Y-74138764D01*
X123169581Y-74400024D01*
X122639605Y-74930000D01*
X123169595Y-75459990D01*
X123276687Y-75719172D01*
X123668764Y-76111934D01*
X123700000Y-76124904D01*
X123700000Y-80785198D01*
X123432638Y-81052560D01*
X122560000Y-81052560D01*
X122324683Y-81096838D01*
X122108559Y-81235910D01*
X121963569Y-81448110D01*
X121912560Y-81700000D01*
X121912560Y-83400000D01*
X121956838Y-83635317D01*
X122095910Y-83851441D01*
X122308110Y-83996431D01*
X122560000Y-84047440D01*
X123460000Y-84047440D01*
X123695317Y-84003162D01*
X123911441Y-83864090D01*
X124056431Y-83651890D01*
X124107440Y-83400000D01*
X124107440Y-82527362D01*
X124812560Y-81822242D01*
X124812560Y-83400000D01*
X124856838Y-83635317D01*
X124995910Y-83851441D01*
X125208110Y-83996431D01*
X125460000Y-84047440D01*
X126336305Y-84047440D01*
X126460883Y-84348943D01*
X126723673Y-84612192D01*
X127067201Y-84754838D01*
X127439167Y-84755162D01*
X127782943Y-84613117D01*
X128046192Y-84350327D01*
X128188838Y-84006799D01*
X128189162Y-83634833D01*
X128047117Y-83291057D01*
X127784327Y-83027808D01*
X127440799Y-82885162D01*
X127393923Y-82885121D01*
X127007440Y-82498638D01*
X127007440Y-81700000D01*
X126963162Y-81464683D01*
X126824090Y-81248559D01*
X126611890Y-81103569D01*
X126360000Y-81052560D01*
X125460000Y-81052560D01*
X125224683Y-81096838D01*
X125220000Y-81099851D01*
X125220000Y-76125367D01*
X125249172Y-76113313D01*
X125641934Y-75721236D01*
X125854758Y-75208700D01*
X125855242Y-74653735D01*
X125643313Y-74140828D01*
X125251236Y-73748066D01*
X125039262Y-73660046D01*
X125249172Y-73573313D01*
X125641934Y-73181236D01*
X125854758Y-72668700D01*
X125855003Y-72388000D01*
X131533367Y-72388000D01*
X131499756Y-72468944D01*
X131491890Y-72463569D01*
X131240000Y-72412560D01*
X130040000Y-72412560D01*
X129804683Y-72456838D01*
X129588559Y-72595910D01*
X129540866Y-72665711D01*
X129504090Y-72608559D01*
X129291890Y-72463569D01*
X129040000Y-72412560D01*
X127840000Y-72412560D01*
X127604683Y-72456838D01*
X127388559Y-72595910D01*
X127243569Y-72808110D01*
X127192560Y-73060000D01*
X127192560Y-74260000D01*
X127236838Y-74495317D01*
X127375910Y-74711441D01*
X127588110Y-74856431D01*
X127680000Y-74875039D01*
X127680000Y-76514791D01*
X127643569Y-76568110D01*
X127592560Y-76820000D01*
X127592560Y-78120000D01*
X127636838Y-78355317D01*
X127775910Y-78571441D01*
X127988110Y-78716431D01*
X128240000Y-78767440D01*
X128940000Y-78767440D01*
X129175317Y-78723162D01*
X129391441Y-78584090D01*
X129536431Y-78371890D01*
X129539081Y-78358803D01*
X129675910Y-78571441D01*
X129888110Y-78716431D01*
X130140000Y-78767440D01*
X130840000Y-78767440D01*
X131075317Y-78723162D01*
X131291441Y-78584090D01*
X131320000Y-78542292D01*
X131320000Y-79187198D01*
X130524638Y-79982560D01*
X130140000Y-79982560D01*
X129904683Y-80026838D01*
X129688559Y-80165910D01*
X129543569Y-80378110D01*
X129540919Y-80391197D01*
X129404090Y-80178559D01*
X129191890Y-80033569D01*
X128940000Y-79982560D01*
X128301362Y-79982560D01*
X127935122Y-79616320D01*
X127935162Y-79570833D01*
X127793117Y-79227057D01*
X127530327Y-78963808D01*
X127186799Y-78821162D01*
X126814833Y-78820838D01*
X126471057Y-78962883D01*
X126207808Y-79225673D01*
X126065162Y-79569201D01*
X126064838Y-79941167D01*
X126206883Y-80284943D01*
X126469673Y-80548192D01*
X126813201Y-80690838D01*
X126860077Y-80690879D01*
X127592560Y-81423362D01*
X127592560Y-81930000D01*
X127636838Y-82165317D01*
X127775910Y-82381441D01*
X127988110Y-82526431D01*
X128240000Y-82577440D01*
X128940000Y-82577440D01*
X129175317Y-82533162D01*
X129391441Y-82394090D01*
X129536431Y-82181890D01*
X129539081Y-82168803D01*
X129675910Y-82381441D01*
X129888110Y-82526431D01*
X130140000Y-82577440D01*
X130840000Y-82577440D01*
X131075317Y-82533162D01*
X131291441Y-82394090D01*
X131342064Y-82320000D01*
X134617560Y-82320000D01*
X134617560Y-83320000D01*
X134661838Y-83555317D01*
X134800910Y-83771441D01*
X134869006Y-83817969D01*
X134726673Y-83960302D01*
X134630000Y-84193691D01*
X134630000Y-84534250D01*
X134788750Y-84693000D01*
X135763000Y-84693000D01*
X135763000Y-84673000D01*
X136017000Y-84673000D01*
X136017000Y-84693000D01*
X136991250Y-84693000D01*
X137150000Y-84534250D01*
X137150000Y-84193691D01*
X137053327Y-83960302D01*
X136912090Y-83819064D01*
X136966441Y-83784090D01*
X137111431Y-83571890D01*
X137162440Y-83320000D01*
X137162440Y-82320000D01*
X137138995Y-82195400D01*
X137434943Y-82073117D01*
X137698192Y-81810327D01*
X137840838Y-81466799D01*
X137841162Y-81094833D01*
X137699117Y-80751057D01*
X137436327Y-80487808D01*
X137092799Y-80345162D01*
X136720833Y-80344838D01*
X136377057Y-80486883D01*
X136113808Y-80749673D01*
X135971162Y-81093201D01*
X135971121Y-81140077D01*
X135438638Y-81672560D01*
X135265000Y-81672560D01*
X135029683Y-81716838D01*
X134813559Y-81855910D01*
X134668569Y-82068110D01*
X134617560Y-82320000D01*
X131342064Y-82320000D01*
X131436431Y-82181890D01*
X131487440Y-81930000D01*
X131487440Y-81169362D01*
X132617401Y-80039401D01*
X132782148Y-79792839D01*
X132840000Y-79502000D01*
X132840000Y-76768802D01*
X133320730Y-76288072D01*
X133321667Y-76290335D01*
X133307560Y-76360000D01*
X133307560Y-76810000D01*
X133327067Y-76913671D01*
X133307560Y-77010000D01*
X133307560Y-77460000D01*
X133327067Y-77563671D01*
X133307560Y-77660000D01*
X133307560Y-78110000D01*
X133351838Y-78345317D01*
X133490910Y-78561441D01*
X133703110Y-78706431D01*
X133955000Y-78757440D01*
X135705000Y-78757440D01*
X135940317Y-78713162D01*
X136156441Y-78574090D01*
X136301431Y-78361890D01*
X136352440Y-78110000D01*
X136352440Y-77660000D01*
X136332933Y-77556329D01*
X136352440Y-77460000D01*
X136352440Y-77010000D01*
X136332933Y-76906329D01*
X136352440Y-76810000D01*
X136352440Y-76360000D01*
X136339020Y-76288677D01*
X136340000Y-76286310D01*
X136340000Y-76206250D01*
X136319688Y-76185938D01*
X136308162Y-76124683D01*
X136184671Y-75932773D01*
X136301431Y-75761890D01*
X136316558Y-75687192D01*
X136340000Y-75663750D01*
X136340000Y-75583690D01*
X136338333Y-75579665D01*
X136352440Y-75510000D01*
X136352440Y-75060000D01*
X136332933Y-74956329D01*
X136352440Y-74860000D01*
X136352440Y-74410000D01*
X136332933Y-74306329D01*
X136352440Y-74210000D01*
X136352440Y-73760000D01*
X136339020Y-73688677D01*
X136340000Y-73686310D01*
X136340000Y-73606250D01*
X136319688Y-73585938D01*
X136308162Y-73524683D01*
X136267828Y-73462002D01*
X136340000Y-73462002D01*
X136340000Y-73445000D01*
X136378198Y-73445000D01*
X137748878Y-74815680D01*
X137748838Y-74861167D01*
X137890883Y-75204943D01*
X138153673Y-75468192D01*
X138497201Y-75610838D01*
X138869167Y-75611162D01*
X139212943Y-75469117D01*
X139476192Y-75206327D01*
X139618838Y-74862799D01*
X139619162Y-74490833D01*
X139477117Y-74147057D01*
X139214327Y-73883808D01*
X138870799Y-73741162D01*
X138823923Y-73741121D01*
X137230401Y-72147599D01*
X136983839Y-71982852D01*
X136693000Y-71925000D01*
X136352440Y-71925000D01*
X136352440Y-71810000D01*
X136339020Y-71738677D01*
X136340000Y-71736310D01*
X136340000Y-71656250D01*
X136319688Y-71635938D01*
X136308162Y-71574683D01*
X136267828Y-71512002D01*
X136340000Y-71512002D01*
X136340000Y-71495000D01*
X138492198Y-71495000D01*
X139272878Y-72275680D01*
X139272838Y-72321167D01*
X139414883Y-72664943D01*
X139677673Y-72928192D01*
X140021201Y-73070838D01*
X140393167Y-73071162D01*
X140526589Y-73016033D01*
X140507560Y-73110000D01*
X140507560Y-73560000D01*
X140520980Y-73631323D01*
X140520000Y-73633690D01*
X140520000Y-73713750D01*
X140540312Y-73734062D01*
X140551838Y-73795317D01*
X140675329Y-73987227D01*
X140558569Y-74158110D01*
X140543442Y-74232808D01*
X140520000Y-74256250D01*
X140520000Y-74336310D01*
X140521667Y-74340335D01*
X140507560Y-74410000D01*
X140507560Y-74860000D01*
X140527067Y-74963671D01*
X140517473Y-75011048D01*
X140276833Y-75010838D01*
X139933057Y-75152883D01*
X139669808Y-75415673D01*
X139527162Y-75759201D01*
X139526838Y-76131167D01*
X139668883Y-76474943D01*
X139702000Y-76508118D01*
X139702000Y-86108000D01*
X136652000Y-86108000D01*
X136361160Y-86165852D01*
X136114599Y-86330599D01*
X135672599Y-86772599D01*
X135507852Y-87019161D01*
X135450000Y-87310000D01*
X135450000Y-87759243D01*
X135408559Y-87785910D01*
X135263569Y-87998110D01*
X135234836Y-88140000D01*
X133604000Y-88140000D01*
X133313161Y-88197852D01*
X133066599Y-88362599D01*
X131997246Y-89431952D01*
X132070000Y-89256309D01*
X132070000Y-88915750D01*
X131911250Y-88757000D01*
X130937000Y-88757000D01*
X130937000Y-89606250D01*
X131095750Y-89765000D01*
X131561310Y-89765000D01*
X131736951Y-89692247D01*
X131432320Y-89996878D01*
X131386833Y-89996838D01*
X131043057Y-90138883D01*
X130779808Y-90401673D01*
X130637162Y-90745201D01*
X130636838Y-91117167D01*
X130758892Y-91412560D01*
X130140000Y-91412560D01*
X129904683Y-91456838D01*
X129688559Y-91595910D01*
X129543569Y-91808110D01*
X129536809Y-91841490D01*
X129478327Y-91700301D01*
X129299698Y-91521673D01*
X129066309Y-91425000D01*
X128875750Y-91425000D01*
X128717000Y-91583750D01*
X128717000Y-92583000D01*
X128737000Y-92583000D01*
X128737000Y-92837000D01*
X128717000Y-92837000D01*
X128717000Y-93836250D01*
X128875750Y-93995000D01*
X129066309Y-93995000D01*
X129299698Y-93898327D01*
X129478327Y-93719699D01*
X129534654Y-93583713D01*
X129536838Y-93595317D01*
X129675910Y-93811441D01*
X129888110Y-93956431D01*
X130140000Y-94007440D01*
X130636975Y-94007440D01*
X130636838Y-94165167D01*
X130771056Y-94490000D01*
X129540000Y-94490000D01*
X129249161Y-94547852D01*
X129002599Y-94712599D01*
X128209198Y-95506000D01*
X121511004Y-95506000D01*
X121561925Y-95250000D01*
X121456118Y-94718070D01*
X121154803Y-94267122D01*
X120725096Y-93980000D01*
X121154803Y-93692878D01*
X121456118Y-93241930D01*
X121505086Y-92995750D01*
X127605000Y-92995750D01*
X127605000Y-93486310D01*
X127701673Y-93719699D01*
X127880302Y-93898327D01*
X128113691Y-93995000D01*
X128304250Y-93995000D01*
X128463000Y-93836250D01*
X128463000Y-92837000D01*
X127763750Y-92837000D01*
X127605000Y-92995750D01*
X121505086Y-92995750D01*
X121561925Y-92710000D01*
X121456118Y-92178070D01*
X121292828Y-91933690D01*
X127605000Y-91933690D01*
X127605000Y-92424250D01*
X127763750Y-92583000D01*
X128463000Y-92583000D01*
X128463000Y-91583750D01*
X128304250Y-91425000D01*
X128113691Y-91425000D01*
X127880302Y-91521673D01*
X127701673Y-91700301D01*
X127605000Y-91933690D01*
X121292828Y-91933690D01*
X121154803Y-91727122D01*
X120703855Y-91425807D01*
X120171925Y-91320000D01*
X118588075Y-91320000D01*
X118056145Y-91425807D01*
X117605197Y-91727122D01*
X117303882Y-92178070D01*
X117198075Y-92710000D01*
X117303882Y-93241930D01*
X117605197Y-93692878D01*
X118034904Y-93980000D01*
X117605197Y-94267122D01*
X117303882Y-94718070D01*
X117198075Y-95250000D01*
X117303882Y-95781930D01*
X117605197Y-96232878D01*
X118034904Y-96520000D01*
X117605197Y-96807122D01*
X117303882Y-97258070D01*
X117198075Y-97790000D01*
X117303882Y-98321930D01*
X117491892Y-98603306D01*
X116967000Y-99128198D01*
X116967000Y-89497662D01*
X117020910Y-89581441D01*
X117233110Y-89726431D01*
X117485000Y-89777440D01*
X118735000Y-89777440D01*
X118970317Y-89733162D01*
X119186441Y-89594090D01*
X119325890Y-89390000D01*
X120875116Y-89390000D01*
X121060000Y-89427440D01*
X122134638Y-89427440D01*
X122508878Y-89801680D01*
X122508838Y-89847167D01*
X122650883Y-90190943D01*
X122913673Y-90454192D01*
X123257201Y-90596838D01*
X123629167Y-90597162D01*
X123972943Y-90455117D01*
X124236192Y-90192327D01*
X124378838Y-89848799D01*
X124379162Y-89476833D01*
X124237117Y-89133057D01*
X124148180Y-89043965D01*
X124156431Y-89031890D01*
X124207440Y-88780000D01*
X124207440Y-86480000D01*
X124712560Y-86480000D01*
X124712560Y-88780000D01*
X124756838Y-89015317D01*
X124895910Y-89231441D01*
X125108110Y-89376431D01*
X125360000Y-89427440D01*
X127722638Y-89427440D01*
X128604878Y-90309680D01*
X128604838Y-90355167D01*
X128746883Y-90698943D01*
X129009673Y-90962192D01*
X129353201Y-91104838D01*
X129725167Y-91105162D01*
X130068943Y-90963117D01*
X130332192Y-90700327D01*
X130474838Y-90356799D01*
X130475162Y-89984833D01*
X130384329Y-89765000D01*
X130524250Y-89765000D01*
X130683000Y-89606250D01*
X130683000Y-88757000D01*
X129708750Y-88757000D01*
X129550000Y-88915750D01*
X129550000Y-89105198D01*
X128507440Y-88062638D01*
X128507440Y-86480000D01*
X128463162Y-86244683D01*
X128389366Y-86130000D01*
X129537560Y-86130000D01*
X129537560Y-87130000D01*
X129581838Y-87365317D01*
X129720910Y-87581441D01*
X129789006Y-87627969D01*
X129646673Y-87770302D01*
X129550000Y-88003691D01*
X129550000Y-88344250D01*
X129708750Y-88503000D01*
X130683000Y-88503000D01*
X130683000Y-88483000D01*
X130937000Y-88483000D01*
X130937000Y-88503000D01*
X131911250Y-88503000D01*
X132070000Y-88344250D01*
X132070000Y-88003691D01*
X131973327Y-87770302D01*
X131832090Y-87629064D01*
X131886441Y-87594090D01*
X132031431Y-87381890D01*
X132082440Y-87130000D01*
X132082440Y-87120000D01*
X132533537Y-87120000D01*
X132565673Y-87152192D01*
X132909201Y-87294838D01*
X133281167Y-87295162D01*
X133624943Y-87153117D01*
X133888192Y-86890327D01*
X134030838Y-86546799D01*
X134031162Y-86174833D01*
X133889117Y-85831057D01*
X133626327Y-85567808D01*
X133282799Y-85425162D01*
X132910833Y-85424838D01*
X132567057Y-85566883D01*
X132533882Y-85600000D01*
X131784115Y-85600000D01*
X131686890Y-85533569D01*
X131435000Y-85482560D01*
X130185000Y-85482560D01*
X129949683Y-85526838D01*
X129733559Y-85665910D01*
X129588569Y-85878110D01*
X129537560Y-86130000D01*
X128389366Y-86130000D01*
X128324090Y-86028559D01*
X128111890Y-85883569D01*
X127860000Y-85832560D01*
X125360000Y-85832560D01*
X125124683Y-85876838D01*
X124908559Y-86015910D01*
X124763569Y-86228110D01*
X124712560Y-86480000D01*
X124207440Y-86480000D01*
X124163162Y-86244683D01*
X124024090Y-86028559D01*
X123811890Y-85883569D01*
X123560000Y-85832560D01*
X121060000Y-85832560D01*
X120824683Y-85876838D01*
X120608559Y-86015910D01*
X120463569Y-86228110D01*
X120412560Y-86480000D01*
X120412560Y-87870000D01*
X119322279Y-87870000D01*
X119199090Y-87678559D01*
X119130994Y-87632031D01*
X119273327Y-87489698D01*
X119370000Y-87256309D01*
X119370000Y-86915750D01*
X119211250Y-86757000D01*
X118237000Y-86757000D01*
X118237000Y-86777000D01*
X117983000Y-86777000D01*
X117983000Y-86757000D01*
X117963000Y-86757000D01*
X117963000Y-86503000D01*
X117983000Y-86503000D01*
X117983000Y-85653750D01*
X118237000Y-85653750D01*
X118237000Y-86503000D01*
X119211250Y-86503000D01*
X119370000Y-86344250D01*
X119370000Y-86003691D01*
X119273327Y-85770302D01*
X119094699Y-85591673D01*
X118861310Y-85495000D01*
X118395750Y-85495000D01*
X118237000Y-85653750D01*
X117983000Y-85653750D01*
X117824250Y-85495000D01*
X117358690Y-85495000D01*
X117125301Y-85591673D01*
X116967000Y-85749975D01*
X116967000Y-85105750D01*
X134630000Y-85105750D01*
X134630000Y-85446309D01*
X134726673Y-85679698D01*
X134905301Y-85858327D01*
X135138690Y-85955000D01*
X135604250Y-85955000D01*
X135763000Y-85796250D01*
X135763000Y-84947000D01*
X136017000Y-84947000D01*
X136017000Y-85796250D01*
X136175750Y-85955000D01*
X136641310Y-85955000D01*
X136874699Y-85858327D01*
X137053327Y-85679698D01*
X137150000Y-85446309D01*
X137150000Y-85105750D01*
X136991250Y-84947000D01*
X136017000Y-84947000D01*
X135763000Y-84947000D01*
X134788750Y-84947000D01*
X134630000Y-85105750D01*
X116967000Y-85105750D01*
X116967000Y-81065593D01*
X118534012Y-81065593D01*
X118675478Y-81368782D01*
X119411955Y-81653737D01*
X120201418Y-81635164D01*
X120844522Y-81368782D01*
X120985988Y-81065593D01*
X119760000Y-79839605D01*
X118534012Y-81065593D01*
X116967000Y-81065593D01*
X116967000Y-79311955D01*
X117766263Y-79311955D01*
X117784836Y-80101418D01*
X118051218Y-80744522D01*
X118354407Y-80885988D01*
X119580395Y-79660000D01*
X119939605Y-79660000D01*
X121165593Y-80885988D01*
X121468782Y-80744522D01*
X121753737Y-80008045D01*
X121735164Y-79218582D01*
X121468782Y-78575478D01*
X121165593Y-78434012D01*
X119939605Y-79660000D01*
X119580395Y-79660000D01*
X118354407Y-78434012D01*
X118051218Y-78575478D01*
X117766263Y-79311955D01*
X116967000Y-79311955D01*
X116967000Y-78254407D01*
X118534012Y-78254407D01*
X119760000Y-79480395D01*
X120985988Y-78254407D01*
X120844522Y-77951218D01*
X120108045Y-77666263D01*
X119318582Y-77684836D01*
X118675478Y-77951218D01*
X118534012Y-78254407D01*
X116967000Y-78254407D01*
X116967000Y-75908764D01*
X121660841Y-75908764D01*
X121730059Y-76150742D01*
X122252780Y-76337155D01*
X122807049Y-76309341D01*
X123189941Y-76150742D01*
X123259159Y-75908764D01*
X122460000Y-75109605D01*
X121660841Y-75908764D01*
X116967000Y-75908764D01*
X116967000Y-74722780D01*
X121052845Y-74722780D01*
X121080659Y-75277049D01*
X121239258Y-75659941D01*
X121481236Y-75729159D01*
X122280395Y-74930000D01*
X121481236Y-74130841D01*
X121239258Y-74200059D01*
X121052845Y-74722780D01*
X116967000Y-74722780D01*
X116967000Y-69065593D01*
X118534012Y-69065593D01*
X118675478Y-69368782D01*
X119411955Y-69653737D01*
X120201418Y-69635164D01*
X120844522Y-69368782D01*
X120985988Y-69065593D01*
X119760000Y-67839605D01*
X118534012Y-69065593D01*
X116967000Y-69065593D01*
X116967000Y-67311955D01*
X117766263Y-67311955D01*
X117784836Y-68101418D01*
X118051218Y-68744522D01*
X118354407Y-68885988D01*
X119580395Y-67660000D01*
X119939605Y-67660000D01*
X121165593Y-68885988D01*
X121468782Y-68744522D01*
X121753737Y-68008045D01*
X121735164Y-67218582D01*
X121468782Y-66575478D01*
X121165593Y-66434012D01*
X119939605Y-67660000D01*
X119580395Y-67660000D01*
X118354407Y-66434012D01*
X118051218Y-66575478D01*
X117766263Y-67311955D01*
X116967000Y-67311955D01*
X116967000Y-66254407D01*
X118534012Y-66254407D01*
X119760000Y-67480395D01*
X120985988Y-66254407D01*
X120844522Y-65951218D01*
X120108045Y-65666263D01*
X119318582Y-65684836D01*
X118675478Y-65951218D01*
X118534012Y-66254407D01*
X116967000Y-66254407D01*
X116967000Y-65380025D01*
X117125301Y-65538327D01*
X117358690Y-65635000D01*
X117824250Y-65635000D01*
X117983000Y-65476250D01*
X117983000Y-64627000D01*
X118237000Y-64627000D01*
X118237000Y-65476250D01*
X118395750Y-65635000D01*
X118861310Y-65635000D01*
X119094699Y-65538327D01*
X119273327Y-65359698D01*
X119370000Y-65126309D01*
X119370000Y-64785750D01*
X121930000Y-64785750D01*
X121930000Y-65126309D01*
X122026673Y-65359698D01*
X122205301Y-65538327D01*
X122438690Y-65635000D01*
X122904250Y-65635000D01*
X123063000Y-65476250D01*
X123063000Y-64627000D01*
X123317000Y-64627000D01*
X123317000Y-65476250D01*
X123475750Y-65635000D01*
X123941310Y-65635000D01*
X124174699Y-65538327D01*
X124353327Y-65359698D01*
X124450000Y-65126309D01*
X124450000Y-64785750D01*
X124291250Y-64627000D01*
X123317000Y-64627000D01*
X123063000Y-64627000D01*
X122088750Y-64627000D01*
X121930000Y-64785750D01*
X119370000Y-64785750D01*
X119211250Y-64627000D01*
X118237000Y-64627000D01*
X117983000Y-64627000D01*
X117963000Y-64627000D01*
X117963000Y-64373000D01*
X117983000Y-64373000D01*
X117983000Y-64353000D01*
X118237000Y-64353000D01*
X118237000Y-64373000D01*
X119211250Y-64373000D01*
X119370000Y-64214250D01*
X119370000Y-63873691D01*
X119273327Y-63640302D01*
X119260025Y-63627000D01*
X122039975Y-63627000D01*
X122026673Y-63640302D01*
X122026673Y-63640302D01*
G37*
X122026673Y-63640302D02*
X121930000Y-63873691D01*
X121930000Y-64214250D01*
X122088750Y-64373000D01*
X123063000Y-64373000D01*
X123063000Y-64353000D01*
X123317000Y-64353000D01*
X123317000Y-64373000D01*
X124291250Y-64373000D01*
X124450000Y-64214250D01*
X124450000Y-63873691D01*
X124353327Y-63640302D01*
X124340025Y-63627000D01*
X125798198Y-63627000D01*
X129483198Y-67312000D01*
X126778000Y-67312000D01*
X126487161Y-67369852D01*
X126240599Y-67534599D01*
X122767851Y-71007347D01*
X122738700Y-70995242D01*
X122183735Y-70994758D01*
X121670828Y-71206687D01*
X121278066Y-71598764D01*
X121065242Y-72111300D01*
X121064758Y-72666265D01*
X121276687Y-73179172D01*
X121668764Y-73571934D01*
X121864934Y-73653391D01*
X121730059Y-73709258D01*
X121660841Y-73951236D01*
X122460000Y-74750395D01*
X123259159Y-73951236D01*
X123189941Y-73709258D01*
X123045138Y-73657618D01*
X123249172Y-73573313D01*
X123460024Y-73362829D01*
X123668764Y-73571934D01*
X123880738Y-73659954D01*
X123670828Y-73746687D01*
X123278066Y-74138764D01*
X123169581Y-74400024D01*
X122639605Y-74930000D01*
X123169595Y-75459990D01*
X123276687Y-75719172D01*
X123668764Y-76111934D01*
X123700000Y-76124904D01*
X123700000Y-80785198D01*
X123432638Y-81052560D01*
X122560000Y-81052560D01*
X122324683Y-81096838D01*
X122108559Y-81235910D01*
X121963569Y-81448110D01*
X121912560Y-81700000D01*
X121912560Y-83400000D01*
X121956838Y-83635317D01*
X122095910Y-83851441D01*
X122308110Y-83996431D01*
X122560000Y-84047440D01*
X123460000Y-84047440D01*
X123695317Y-84003162D01*
X123911441Y-83864090D01*
X124056431Y-83651890D01*
X124107440Y-83400000D01*
X124107440Y-82527362D01*
X124812560Y-81822242D01*
X124812560Y-83400000D01*
X124856838Y-83635317D01*
X124995910Y-83851441D01*
X125208110Y-83996431D01*
X125460000Y-84047440D01*
X126336305Y-84047440D01*
X126460883Y-84348943D01*
X126723673Y-84612192D01*
X127067201Y-84754838D01*
X127439167Y-84755162D01*
X127782943Y-84613117D01*
X128046192Y-84350327D01*
X128188838Y-84006799D01*
X128189162Y-83634833D01*
X128047117Y-83291057D01*
X127784327Y-83027808D01*
X127440799Y-82885162D01*
X127393923Y-82885121D01*
X127007440Y-82498638D01*
X127007440Y-81700000D01*
X126963162Y-81464683D01*
X126824090Y-81248559D01*
X126611890Y-81103569D01*
X126360000Y-81052560D01*
X125460000Y-81052560D01*
X125224683Y-81096838D01*
X125220000Y-81099851D01*
X125220000Y-76125367D01*
X125249172Y-76113313D01*
X125641934Y-75721236D01*
X125854758Y-75208700D01*
X125855242Y-74653735D01*
X125643313Y-74140828D01*
X125251236Y-73748066D01*
X125039262Y-73660046D01*
X125249172Y-73573313D01*
X125641934Y-73181236D01*
X125854758Y-72668700D01*
X125855003Y-72388000D01*
X131533367Y-72388000D01*
X131499756Y-72468944D01*
X131491890Y-72463569D01*
X131240000Y-72412560D01*
X130040000Y-72412560D01*
X129804683Y-72456838D01*
X129588559Y-72595910D01*
X129540866Y-72665711D01*
X129504090Y-72608559D01*
X129291890Y-72463569D01*
X129040000Y-72412560D01*
X127840000Y-72412560D01*
X127604683Y-72456838D01*
X127388559Y-72595910D01*
X127243569Y-72808110D01*
X127192560Y-73060000D01*
X127192560Y-74260000D01*
X127236838Y-74495317D01*
X127375910Y-74711441D01*
X127588110Y-74856431D01*
X127680000Y-74875039D01*
X127680000Y-76514791D01*
X127643569Y-76568110D01*
X127592560Y-76820000D01*
X127592560Y-78120000D01*
X127636838Y-78355317D01*
X127775910Y-78571441D01*
X127988110Y-78716431D01*
X128240000Y-78767440D01*
X128940000Y-78767440D01*
X129175317Y-78723162D01*
X129391441Y-78584090D01*
X129536431Y-78371890D01*
X129539081Y-78358803D01*
X129675910Y-78571441D01*
X129888110Y-78716431D01*
X130140000Y-78767440D01*
X130840000Y-78767440D01*
X131075317Y-78723162D01*
X131291441Y-78584090D01*
X131320000Y-78542292D01*
X131320000Y-79187198D01*
X130524638Y-79982560D01*
X130140000Y-79982560D01*
X129904683Y-80026838D01*
X129688559Y-80165910D01*
X129543569Y-80378110D01*
X129540919Y-80391197D01*
X129404090Y-80178559D01*
X129191890Y-80033569D01*
X128940000Y-79982560D01*
X128301362Y-79982560D01*
X127935122Y-79616320D01*
X127935162Y-79570833D01*
X127793117Y-79227057D01*
X127530327Y-78963808D01*
X127186799Y-78821162D01*
X126814833Y-78820838D01*
X126471057Y-78962883D01*
X126207808Y-79225673D01*
X126065162Y-79569201D01*
X126064838Y-79941167D01*
X126206883Y-80284943D01*
X126469673Y-80548192D01*
X126813201Y-80690838D01*
X126860077Y-80690879D01*
X127592560Y-81423362D01*
X127592560Y-81930000D01*
X127636838Y-82165317D01*
X127775910Y-82381441D01*
X127988110Y-82526431D01*
X128240000Y-82577440D01*
X128940000Y-82577440D01*
X129175317Y-82533162D01*
X129391441Y-82394090D01*
X129536431Y-82181890D01*
X129539081Y-82168803D01*
X129675910Y-82381441D01*
X129888110Y-82526431D01*
X130140000Y-82577440D01*
X130840000Y-82577440D01*
X131075317Y-82533162D01*
X131291441Y-82394090D01*
X131342064Y-82320000D01*
X134617560Y-82320000D01*
X134617560Y-83320000D01*
X134661838Y-83555317D01*
X134800910Y-83771441D01*
X134869006Y-83817969D01*
X134726673Y-83960302D01*
X134630000Y-84193691D01*
X134630000Y-84534250D01*
X134788750Y-84693000D01*
X135763000Y-84693000D01*
X135763000Y-84673000D01*
X136017000Y-84673000D01*
X136017000Y-84693000D01*
X136991250Y-84693000D01*
X137150000Y-84534250D01*
X137150000Y-84193691D01*
X137053327Y-83960302D01*
X136912090Y-83819064D01*
X136966441Y-83784090D01*
X137111431Y-83571890D01*
X137162440Y-83320000D01*
X137162440Y-82320000D01*
X137138995Y-82195400D01*
X137434943Y-82073117D01*
X137698192Y-81810327D01*
X137840838Y-81466799D01*
X137841162Y-81094833D01*
X137699117Y-80751057D01*
X137436327Y-80487808D01*
X137092799Y-80345162D01*
X136720833Y-80344838D01*
X136377057Y-80486883D01*
X136113808Y-80749673D01*
X135971162Y-81093201D01*
X135971121Y-81140077D01*
X135438638Y-81672560D01*
X135265000Y-81672560D01*
X135029683Y-81716838D01*
X134813559Y-81855910D01*
X134668569Y-82068110D01*
X134617560Y-82320000D01*
X131342064Y-82320000D01*
X131436431Y-82181890D01*
X131487440Y-81930000D01*
X131487440Y-81169362D01*
X132617401Y-80039401D01*
X132782148Y-79792839D01*
X132840000Y-79502000D01*
X132840000Y-76768802D01*
X133320730Y-76288072D01*
X133321667Y-76290335D01*
X133307560Y-76360000D01*
X133307560Y-76810000D01*
X133327067Y-76913671D01*
X133307560Y-77010000D01*
X133307560Y-77460000D01*
X133327067Y-77563671D01*
X133307560Y-77660000D01*
X133307560Y-78110000D01*
X133351838Y-78345317D01*
X133490910Y-78561441D01*
X133703110Y-78706431D01*
X133955000Y-78757440D01*
X135705000Y-78757440D01*
X135940317Y-78713162D01*
X136156441Y-78574090D01*
X136301431Y-78361890D01*
X136352440Y-78110000D01*
X136352440Y-77660000D01*
X136332933Y-77556329D01*
X136352440Y-77460000D01*
X136352440Y-77010000D01*
X136332933Y-76906329D01*
X136352440Y-76810000D01*
X136352440Y-76360000D01*
X136339020Y-76288677D01*
X136340000Y-76286310D01*
X136340000Y-76206250D01*
X136319688Y-76185938D01*
X136308162Y-76124683D01*
X136184671Y-75932773D01*
X136301431Y-75761890D01*
X136316558Y-75687192D01*
X136340000Y-75663750D01*
X136340000Y-75583690D01*
X136338333Y-75579665D01*
X136352440Y-75510000D01*
X136352440Y-75060000D01*
X136332933Y-74956329D01*
X136352440Y-74860000D01*
X136352440Y-74410000D01*
X136332933Y-74306329D01*
X136352440Y-74210000D01*
X136352440Y-73760000D01*
X136339020Y-73688677D01*
X136340000Y-73686310D01*
X136340000Y-73606250D01*
X136319688Y-73585938D01*
X136308162Y-73524683D01*
X136267828Y-73462002D01*
X136340000Y-73462002D01*
X136340000Y-73445000D01*
X136378198Y-73445000D01*
X137748878Y-74815680D01*
X137748838Y-74861167D01*
X137890883Y-75204943D01*
X138153673Y-75468192D01*
X138497201Y-75610838D01*
X138869167Y-75611162D01*
X139212943Y-75469117D01*
X139476192Y-75206327D01*
X139618838Y-74862799D01*
X139619162Y-74490833D01*
X139477117Y-74147057D01*
X139214327Y-73883808D01*
X138870799Y-73741162D01*
X138823923Y-73741121D01*
X137230401Y-72147599D01*
X136983839Y-71982852D01*
X136693000Y-71925000D01*
X136352440Y-71925000D01*
X136352440Y-71810000D01*
X136339020Y-71738677D01*
X136340000Y-71736310D01*
X136340000Y-71656250D01*
X136319688Y-71635938D01*
X136308162Y-71574683D01*
X136267828Y-71512002D01*
X136340000Y-71512002D01*
X136340000Y-71495000D01*
X138492198Y-71495000D01*
X139272878Y-72275680D01*
X139272838Y-72321167D01*
X139414883Y-72664943D01*
X139677673Y-72928192D01*
X140021201Y-73070838D01*
X140393167Y-73071162D01*
X140526589Y-73016033D01*
X140507560Y-73110000D01*
X140507560Y-73560000D01*
X140520980Y-73631323D01*
X140520000Y-73633690D01*
X140520000Y-73713750D01*
X140540312Y-73734062D01*
X140551838Y-73795317D01*
X140675329Y-73987227D01*
X140558569Y-74158110D01*
X140543442Y-74232808D01*
X140520000Y-74256250D01*
X140520000Y-74336310D01*
X140521667Y-74340335D01*
X140507560Y-74410000D01*
X140507560Y-74860000D01*
X140527067Y-74963671D01*
X140517473Y-75011048D01*
X140276833Y-75010838D01*
X139933057Y-75152883D01*
X139669808Y-75415673D01*
X139527162Y-75759201D01*
X139526838Y-76131167D01*
X139668883Y-76474943D01*
X139702000Y-76508118D01*
X139702000Y-86108000D01*
X136652000Y-86108000D01*
X136361160Y-86165852D01*
X136114599Y-86330599D01*
X135672599Y-86772599D01*
X135507852Y-87019161D01*
X135450000Y-87310000D01*
X135450000Y-87759243D01*
X135408559Y-87785910D01*
X135263569Y-87998110D01*
X135234836Y-88140000D01*
X133604000Y-88140000D01*
X133313161Y-88197852D01*
X133066599Y-88362599D01*
X131997246Y-89431952D01*
X132070000Y-89256309D01*
X132070000Y-88915750D01*
X131911250Y-88757000D01*
X130937000Y-88757000D01*
X130937000Y-89606250D01*
X131095750Y-89765000D01*
X131561310Y-89765000D01*
X131736951Y-89692247D01*
X131432320Y-89996878D01*
X131386833Y-89996838D01*
X131043057Y-90138883D01*
X130779808Y-90401673D01*
X130637162Y-90745201D01*
X130636838Y-91117167D01*
X130758892Y-91412560D01*
X130140000Y-91412560D01*
X129904683Y-91456838D01*
X129688559Y-91595910D01*
X129543569Y-91808110D01*
X129536809Y-91841490D01*
X129478327Y-91700301D01*
X129299698Y-91521673D01*
X129066309Y-91425000D01*
X128875750Y-91425000D01*
X128717000Y-91583750D01*
X128717000Y-92583000D01*
X128737000Y-92583000D01*
X128737000Y-92837000D01*
X128717000Y-92837000D01*
X128717000Y-93836250D01*
X128875750Y-93995000D01*
X129066309Y-93995000D01*
X129299698Y-93898327D01*
X129478327Y-93719699D01*
X129534654Y-93583713D01*
X129536838Y-93595317D01*
X129675910Y-93811441D01*
X129888110Y-93956431D01*
X130140000Y-94007440D01*
X130636975Y-94007440D01*
X130636838Y-94165167D01*
X130771056Y-94490000D01*
X129540000Y-94490000D01*
X129249161Y-94547852D01*
X129002599Y-94712599D01*
X128209198Y-95506000D01*
X121511004Y-95506000D01*
X121561925Y-95250000D01*
X121456118Y-94718070D01*
X121154803Y-94267122D01*
X120725096Y-93980000D01*
X121154803Y-93692878D01*
X121456118Y-93241930D01*
X121505086Y-92995750D01*
X127605000Y-92995750D01*
X127605000Y-93486310D01*
X127701673Y-93719699D01*
X127880302Y-93898327D01*
X128113691Y-93995000D01*
X128304250Y-93995000D01*
X128463000Y-93836250D01*
X128463000Y-92837000D01*
X127763750Y-92837000D01*
X127605000Y-92995750D01*
X121505086Y-92995750D01*
X121561925Y-92710000D01*
X121456118Y-92178070D01*
X121292828Y-91933690D01*
X127605000Y-91933690D01*
X127605000Y-92424250D01*
X127763750Y-92583000D01*
X128463000Y-92583000D01*
X128463000Y-91583750D01*
X128304250Y-91425000D01*
X128113691Y-91425000D01*
X127880302Y-91521673D01*
X127701673Y-91700301D01*
X127605000Y-91933690D01*
X121292828Y-91933690D01*
X121154803Y-91727122D01*
X120703855Y-91425807D01*
X120171925Y-91320000D01*
X118588075Y-91320000D01*
X118056145Y-91425807D01*
X117605197Y-91727122D01*
X117303882Y-92178070D01*
X117198075Y-92710000D01*
X117303882Y-93241930D01*
X117605197Y-93692878D01*
X118034904Y-93980000D01*
X117605197Y-94267122D01*
X117303882Y-94718070D01*
X117198075Y-95250000D01*
X117303882Y-95781930D01*
X117605197Y-96232878D01*
X118034904Y-96520000D01*
X117605197Y-96807122D01*
X117303882Y-97258070D01*
X117198075Y-97790000D01*
X117303882Y-98321930D01*
X117491892Y-98603306D01*
X116967000Y-99128198D01*
X116967000Y-89497662D01*
X117020910Y-89581441D01*
X117233110Y-89726431D01*
X117485000Y-89777440D01*
X118735000Y-89777440D01*
X118970317Y-89733162D01*
X119186441Y-89594090D01*
X119325890Y-89390000D01*
X120875116Y-89390000D01*
X121060000Y-89427440D01*
X122134638Y-89427440D01*
X122508878Y-89801680D01*
X122508838Y-89847167D01*
X122650883Y-90190943D01*
X122913673Y-90454192D01*
X123257201Y-90596838D01*
X123629167Y-90597162D01*
X123972943Y-90455117D01*
X124236192Y-90192327D01*
X124378838Y-89848799D01*
X124379162Y-89476833D01*
X124237117Y-89133057D01*
X124148180Y-89043965D01*
X124156431Y-89031890D01*
X124207440Y-88780000D01*
X124207440Y-86480000D01*
X124712560Y-86480000D01*
X124712560Y-88780000D01*
X124756838Y-89015317D01*
X124895910Y-89231441D01*
X125108110Y-89376431D01*
X125360000Y-89427440D01*
X127722638Y-89427440D01*
X128604878Y-90309680D01*
X128604838Y-90355167D01*
X128746883Y-90698943D01*
X129009673Y-90962192D01*
X129353201Y-91104838D01*
X129725167Y-91105162D01*
X130068943Y-90963117D01*
X130332192Y-90700327D01*
X130474838Y-90356799D01*
X130475162Y-89984833D01*
X130384329Y-89765000D01*
X130524250Y-89765000D01*
X130683000Y-89606250D01*
X130683000Y-88757000D01*
X129708750Y-88757000D01*
X129550000Y-88915750D01*
X129550000Y-89105198D01*
X128507440Y-88062638D01*
X128507440Y-86480000D01*
X128463162Y-86244683D01*
X128389366Y-86130000D01*
X129537560Y-86130000D01*
X129537560Y-87130000D01*
X129581838Y-87365317D01*
X129720910Y-87581441D01*
X129789006Y-87627969D01*
X129646673Y-87770302D01*
X129550000Y-88003691D01*
X129550000Y-88344250D01*
X129708750Y-88503000D01*
X130683000Y-88503000D01*
X130683000Y-88483000D01*
X130937000Y-88483000D01*
X130937000Y-88503000D01*
X131911250Y-88503000D01*
X132070000Y-88344250D01*
X132070000Y-88003691D01*
X131973327Y-87770302D01*
X131832090Y-87629064D01*
X131886441Y-87594090D01*
X132031431Y-87381890D01*
X132082440Y-87130000D01*
X132082440Y-87120000D01*
X132533537Y-87120000D01*
X132565673Y-87152192D01*
X132909201Y-87294838D01*
X133281167Y-87295162D01*
X133624943Y-87153117D01*
X133888192Y-86890327D01*
X134030838Y-86546799D01*
X134031162Y-86174833D01*
X133889117Y-85831057D01*
X133626327Y-85567808D01*
X133282799Y-85425162D01*
X132910833Y-85424838D01*
X132567057Y-85566883D01*
X132533882Y-85600000D01*
X131784115Y-85600000D01*
X131686890Y-85533569D01*
X131435000Y-85482560D01*
X130185000Y-85482560D01*
X129949683Y-85526838D01*
X129733559Y-85665910D01*
X129588569Y-85878110D01*
X129537560Y-86130000D01*
X128389366Y-86130000D01*
X128324090Y-86028559D01*
X128111890Y-85883569D01*
X127860000Y-85832560D01*
X125360000Y-85832560D01*
X125124683Y-85876838D01*
X124908559Y-86015910D01*
X124763569Y-86228110D01*
X124712560Y-86480000D01*
X124207440Y-86480000D01*
X124163162Y-86244683D01*
X124024090Y-86028559D01*
X123811890Y-85883569D01*
X123560000Y-85832560D01*
X121060000Y-85832560D01*
X120824683Y-85876838D01*
X120608559Y-86015910D01*
X120463569Y-86228110D01*
X120412560Y-86480000D01*
X120412560Y-87870000D01*
X119322279Y-87870000D01*
X119199090Y-87678559D01*
X119130994Y-87632031D01*
X119273327Y-87489698D01*
X119370000Y-87256309D01*
X119370000Y-86915750D01*
X119211250Y-86757000D01*
X118237000Y-86757000D01*
X118237000Y-86777000D01*
X117983000Y-86777000D01*
X117983000Y-86757000D01*
X117963000Y-86757000D01*
X117963000Y-86503000D01*
X117983000Y-86503000D01*
X117983000Y-85653750D01*
X118237000Y-85653750D01*
X118237000Y-86503000D01*
X119211250Y-86503000D01*
X119370000Y-86344250D01*
X119370000Y-86003691D01*
X119273327Y-85770302D01*
X119094699Y-85591673D01*
X118861310Y-85495000D01*
X118395750Y-85495000D01*
X118237000Y-85653750D01*
X117983000Y-85653750D01*
X117824250Y-85495000D01*
X117358690Y-85495000D01*
X117125301Y-85591673D01*
X116967000Y-85749975D01*
X116967000Y-85105750D01*
X134630000Y-85105750D01*
X134630000Y-85446309D01*
X134726673Y-85679698D01*
X134905301Y-85858327D01*
X135138690Y-85955000D01*
X135604250Y-85955000D01*
X135763000Y-85796250D01*
X135763000Y-84947000D01*
X136017000Y-84947000D01*
X136017000Y-85796250D01*
X136175750Y-85955000D01*
X136641310Y-85955000D01*
X136874699Y-85858327D01*
X137053327Y-85679698D01*
X137150000Y-85446309D01*
X137150000Y-85105750D01*
X136991250Y-84947000D01*
X136017000Y-84947000D01*
X135763000Y-84947000D01*
X134788750Y-84947000D01*
X134630000Y-85105750D01*
X116967000Y-85105750D01*
X116967000Y-81065593D01*
X118534012Y-81065593D01*
X118675478Y-81368782D01*
X119411955Y-81653737D01*
X120201418Y-81635164D01*
X120844522Y-81368782D01*
X120985988Y-81065593D01*
X119760000Y-79839605D01*
X118534012Y-81065593D01*
X116967000Y-81065593D01*
X116967000Y-79311955D01*
X117766263Y-79311955D01*
X117784836Y-80101418D01*
X118051218Y-80744522D01*
X118354407Y-80885988D01*
X119580395Y-79660000D01*
X119939605Y-79660000D01*
X121165593Y-80885988D01*
X121468782Y-80744522D01*
X121753737Y-80008045D01*
X121735164Y-79218582D01*
X121468782Y-78575478D01*
X121165593Y-78434012D01*
X119939605Y-79660000D01*
X119580395Y-79660000D01*
X118354407Y-78434012D01*
X118051218Y-78575478D01*
X117766263Y-79311955D01*
X116967000Y-79311955D01*
X116967000Y-78254407D01*
X118534012Y-78254407D01*
X119760000Y-79480395D01*
X120985988Y-78254407D01*
X120844522Y-77951218D01*
X120108045Y-77666263D01*
X119318582Y-77684836D01*
X118675478Y-77951218D01*
X118534012Y-78254407D01*
X116967000Y-78254407D01*
X116967000Y-75908764D01*
X121660841Y-75908764D01*
X121730059Y-76150742D01*
X122252780Y-76337155D01*
X122807049Y-76309341D01*
X123189941Y-76150742D01*
X123259159Y-75908764D01*
X122460000Y-75109605D01*
X121660841Y-75908764D01*
X116967000Y-75908764D01*
X116967000Y-74722780D01*
X121052845Y-74722780D01*
X121080659Y-75277049D01*
X121239258Y-75659941D01*
X121481236Y-75729159D01*
X122280395Y-74930000D01*
X121481236Y-74130841D01*
X121239258Y-74200059D01*
X121052845Y-74722780D01*
X116967000Y-74722780D01*
X116967000Y-69065593D01*
X118534012Y-69065593D01*
X118675478Y-69368782D01*
X119411955Y-69653737D01*
X120201418Y-69635164D01*
X120844522Y-69368782D01*
X120985988Y-69065593D01*
X119760000Y-67839605D01*
X118534012Y-69065593D01*
X116967000Y-69065593D01*
X116967000Y-67311955D01*
X117766263Y-67311955D01*
X117784836Y-68101418D01*
X118051218Y-68744522D01*
X118354407Y-68885988D01*
X119580395Y-67660000D01*
X119939605Y-67660000D01*
X121165593Y-68885988D01*
X121468782Y-68744522D01*
X121753737Y-68008045D01*
X121735164Y-67218582D01*
X121468782Y-66575478D01*
X121165593Y-66434012D01*
X119939605Y-67660000D01*
X119580395Y-67660000D01*
X118354407Y-66434012D01*
X118051218Y-66575478D01*
X117766263Y-67311955D01*
X116967000Y-67311955D01*
X116967000Y-66254407D01*
X118534012Y-66254407D01*
X119760000Y-67480395D01*
X120985988Y-66254407D01*
X120844522Y-65951218D01*
X120108045Y-65666263D01*
X119318582Y-65684836D01*
X118675478Y-65951218D01*
X118534012Y-66254407D01*
X116967000Y-66254407D01*
X116967000Y-65380025D01*
X117125301Y-65538327D01*
X117358690Y-65635000D01*
X117824250Y-65635000D01*
X117983000Y-65476250D01*
X117983000Y-64627000D01*
X118237000Y-64627000D01*
X118237000Y-65476250D01*
X118395750Y-65635000D01*
X118861310Y-65635000D01*
X119094699Y-65538327D01*
X119273327Y-65359698D01*
X119370000Y-65126309D01*
X119370000Y-64785750D01*
X121930000Y-64785750D01*
X121930000Y-65126309D01*
X122026673Y-65359698D01*
X122205301Y-65538327D01*
X122438690Y-65635000D01*
X122904250Y-65635000D01*
X123063000Y-65476250D01*
X123063000Y-64627000D01*
X123317000Y-64627000D01*
X123317000Y-65476250D01*
X123475750Y-65635000D01*
X123941310Y-65635000D01*
X124174699Y-65538327D01*
X124353327Y-65359698D01*
X124450000Y-65126309D01*
X124450000Y-64785750D01*
X124291250Y-64627000D01*
X123317000Y-64627000D01*
X123063000Y-64627000D01*
X122088750Y-64627000D01*
X121930000Y-64785750D01*
X119370000Y-64785750D01*
X119211250Y-64627000D01*
X118237000Y-64627000D01*
X117983000Y-64627000D01*
X117963000Y-64627000D01*
X117963000Y-64373000D01*
X117983000Y-64373000D01*
X117983000Y-64353000D01*
X118237000Y-64353000D01*
X118237000Y-64373000D01*
X119211250Y-64373000D01*
X119370000Y-64214250D01*
X119370000Y-63873691D01*
X119273327Y-63640302D01*
X119260025Y-63627000D01*
X122039975Y-63627000D01*
X122026673Y-63640302D01*
G36*
X166152427Y-71374000D02*
X166210279Y-71664839D01*
X166375026Y-71911401D01*
X167192492Y-72728867D01*
X167205564Y-72798343D01*
X167095352Y-72774435D01*
X166940214Y-72803626D01*
X166806570Y-72803626D01*
X166724857Y-72885339D01*
X166716389Y-72905782D01*
X166628599Y-72964004D01*
X166239690Y-73352913D01*
X166179009Y-73441722D01*
X166161024Y-73449172D01*
X166079311Y-73530885D01*
X166079311Y-73667217D01*
X166050121Y-73801778D01*
X166074194Y-73929714D01*
X165963981Y-73905806D01*
X165808843Y-73934997D01*
X165675199Y-73934997D01*
X165593486Y-74016710D01*
X165585018Y-74037153D01*
X165497228Y-74095375D01*
X165291703Y-74300901D01*
X163241122Y-72250320D01*
X163241162Y-72204833D01*
X163099117Y-71861057D01*
X162996521Y-71758281D01*
X166145401Y-68609401D01*
X166152427Y-68598886D01*
X166152427Y-71374000D01*
X166152427Y-71374000D01*
G37*
X166152427Y-71374000D02*
X166210279Y-71664839D01*
X166375026Y-71911401D01*
X167192492Y-72728867D01*
X167205564Y-72798343D01*
X167095352Y-72774435D01*
X166940214Y-72803626D01*
X166806570Y-72803626D01*
X166724857Y-72885339D01*
X166716389Y-72905782D01*
X166628599Y-72964004D01*
X166239690Y-73352913D01*
X166179009Y-73441722D01*
X166161024Y-73449172D01*
X166079311Y-73530885D01*
X166079311Y-73667217D01*
X166050121Y-73801778D01*
X166074194Y-73929714D01*
X165963981Y-73905806D01*
X165808843Y-73934997D01*
X165675199Y-73934997D01*
X165593486Y-74016710D01*
X165585018Y-74037153D01*
X165497228Y-74095375D01*
X165291703Y-74300901D01*
X163241122Y-72250320D01*
X163241162Y-72204833D01*
X163099117Y-71861057D01*
X162996521Y-71758281D01*
X166145401Y-68609401D01*
X166152427Y-68598886D01*
X166152427Y-71374000D01*
M02*
