M48
;DRILL file {KiCad 4.0.7} date Sunday, September 09, 2018 'PMt' 03:55:35 PM
;FORMAT={3:3/ absolute / metric / suppress leading zeros}
FMAT,2
METRIC,TZ
T1C0.400
T2C0.810
T3C1.000
T4C1.100
T5C2.300
T6C3.200
%
G90
G05
M71
T1
X120650Y-106426
X123444Y-89662
X124968Y-98298
X127000Y-70866
X127000Y-79756
X127254Y-83820
X128524Y-98806
X128524Y-100584
X129540Y-90170
X130556Y-67310
X130556Y-100584
X131572Y-90932
X131572Y-93980
X132080Y-68834
X132334Y-72898
X133096Y-86360
X134112Y-91694
X134366Y-103886
X134874Y-96520
X134874Y-98298
X135128Y-94488
X135382Y-99314
X135636Y-97790
X135636Y-109220
X136144Y-101600
X136398Y-73406
X136906Y-65532
X136906Y-81280
X137160Y-71628
X138176Y-64770
X138176Y-109220
X138684Y-74676
X139192Y-99060
X139446Y-97282
X140208Y-72136
X140208Y-100330
X140462Y-73914
X140462Y-75946
X140716Y-94488
X141224Y-109474
X141478Y-96520
X141986Y-78994
X144018Y-77978
X145034Y-84836
X145034Y-103886
X146050Y-66548
X146304Y-94234
X146304Y-95250
X147066Y-89916
X147066Y-97536
X147574Y-104902
X148336Y-76454
X148336Y-99314
X148590Y-80010
X148590Y-90678
X149098Y-67310
X151892Y-91694
X151892Y-109728
X153162Y-90424
X154178Y-72136
X154686Y-84328
X155194Y-93980
X158496Y-106172
X158496Y-107442
X158750Y-96012
X159512Y-98552
X159766Y-68580
X162306Y-72390
X163576Y-71374
X163830Y-83312
X164084Y-77470
X164338Y-107442
X164846Y-93218
X166370Y-84074
X167640Y-94234
X167640Y-95250
X167640Y-106172
X167894Y-108204
X167894Y-109220
X168148Y-109982
X168402Y-86868
X168656Y-79502
X168910Y-84836
X169672Y-79756
X169672Y-87122
X170434Y-74168
X170434Y-84328
X170688Y-80772
X170942Y-74930
X171704Y-75438
X171958Y-85598
X171958Y-96266
X172212Y-106172
X172974Y-84074
X173228Y-78486
X173990Y-81788
X174244Y-92202
X176022Y-73152
X176530Y-74930
X177546Y-70358
X177546Y-75184
X178816Y-70358
X178816Y-87630
T2
X122460Y-72390
X122460Y-74930
X124460Y-72390
X124460Y-74930
T3
X119380Y-92710
X119380Y-95250
X119380Y-97790
X134239Y-63119
X136779Y-63119
X139319Y-63119
X141859Y-63119
X143383Y-111379
X144399Y-63119
X145923Y-111379
X146939Y-63119
X148463Y-111379
X149479Y-63119
X151003Y-111379
X152019Y-63119
X153543Y-111379
X154559Y-63119
X156083Y-111379
X157099Y-63119
X158623Y-111379
X161163Y-63119
X161163Y-111379
X163703Y-63119
X166243Y-63119
X166243Y-111379
X168783Y-63119
X168783Y-111379
X171323Y-63119
X171323Y-111379
X173863Y-63119
X173863Y-111379
X176403Y-63119
X176403Y-111379
X178943Y-63119
X178943Y-111379
X179070Y-91440
X179070Y-93980
X179070Y-97790
X179070Y-100330
T4
X157330Y-86940
X157330Y-91440
X163830Y-86940
X163830Y-91440
T5
X119760Y-67660
X119760Y-79660
T6
X129413Y-111379
X130683Y-63119
X181483Y-78359
X181483Y-106299
T0
M30
