G04 #@! TF.FileFunction,Soldermask,Bot*
%FSLAX46Y46*%
G04 Gerber Fmt 4.6, Leading zero omitted, Abs format (unit mm)*
G04 Created by KiCad (PCBNEW 4.0.7) date Sunday, September 09, 2018 'PMt' 03:54:26 PM*
%MOMM*%
%LPD*%
G01*
G04 APERTURE LIST*
%ADD10C,0.100000*%
%ADD11C,3.600000*%
%ADD12C,1.920000*%
%ADD13C,3.100000*%
%ADD14R,2.100000X2.100000*%
%ADD15O,2.100000X2.100000*%
%ADD16O,3.410000X1.910000*%
%ADD17C,2.400000*%
G04 APERTURE END LIST*
D10*
D11*
X130683000Y-63119000D03*
X129413000Y-111379000D03*
X181483000Y-78359000D03*
X181483000Y-106299000D03*
D12*
X124460000Y-72390000D03*
X124460000Y-74930000D03*
X122460000Y-74930000D03*
X122460000Y-72390000D03*
D13*
X119760000Y-67660000D03*
X119760000Y-79660000D03*
D14*
X157099000Y-63119000D03*
D15*
X154559000Y-63119000D03*
X152019000Y-63119000D03*
X149479000Y-63119000D03*
X146939000Y-63119000D03*
X144399000Y-63119000D03*
X141859000Y-63119000D03*
X139319000Y-63119000D03*
X136779000Y-63119000D03*
X134239000Y-63119000D03*
D14*
X166243000Y-111379000D03*
D15*
X168783000Y-111379000D03*
X171323000Y-111379000D03*
X173863000Y-111379000D03*
X176403000Y-111379000D03*
X178943000Y-111379000D03*
D14*
X161163000Y-111379000D03*
D15*
X158623000Y-111379000D03*
X156083000Y-111379000D03*
X153543000Y-111379000D03*
X151003000Y-111379000D03*
X148463000Y-111379000D03*
X145923000Y-111379000D03*
X143383000Y-111379000D03*
D14*
X178943000Y-63119000D03*
D15*
X176403000Y-63119000D03*
X173863000Y-63119000D03*
X171323000Y-63119000D03*
X168783000Y-63119000D03*
X166243000Y-63119000D03*
X163703000Y-63119000D03*
X161163000Y-63119000D03*
D16*
X179070000Y-93980000D03*
X179070000Y-91440000D03*
X179070000Y-100330000D03*
X179070000Y-97790000D03*
X119380000Y-97790000D03*
X119380000Y-95250000D03*
X119380000Y-92710000D03*
D17*
X163830000Y-86940000D03*
X163830000Y-91440000D03*
X157330000Y-86940000D03*
X157330000Y-91440000D03*
M02*
